%FSLAX25Y25*%
%MOIN*%
G70*
G01*
G75*
G04 Layer_Color=16711935*
%ADD10R,0.03347X0.03150*%
G04:AMPARAMS|DCode=11|XSize=25.59mil|YSize=33.47mil|CornerRadius=6.4mil|HoleSize=0mil|Usage=FLASHONLY|Rotation=180.000|XOffset=0mil|YOffset=0mil|HoleType=Round|Shape=RoundedRectangle|*
%AMROUNDEDRECTD11*
21,1,0.02559,0.02067,0,0,180.0*
21,1,0.01280,0.03347,0,0,180.0*
1,1,0.01280,-0.00640,0.01034*
1,1,0.01280,0.00640,0.01034*
1,1,0.01280,0.00640,-0.01034*
1,1,0.01280,-0.00640,-0.01034*
%
%ADD11ROUNDEDRECTD11*%
%ADD12R,0.03150X0.03347*%
%ADD13R,0.02362X0.04724*%
%ADD14R,0.04331X0.05906*%
G04:AMPARAMS|DCode=15|XSize=33.47mil|YSize=31.5mil|CornerRadius=0mil|HoleSize=0mil|Usage=FLASHONLY|Rotation=225.000|XOffset=0mil|YOffset=0mil|HoleType=Round|Shape=Rectangle|*
%AMROTATEDRECTD15*
4,1,4,0.00070,0.02297,0.02297,0.00070,-0.00070,-0.02297,-0.02297,-0.00070,0.00070,0.02297,0.0*
%
%ADD15ROTATEDRECTD15*%

%ADD16R,0.03819X0.03543*%
%ADD17R,0.03819X0.02559*%
%ADD18R,0.08500X0.05500*%
%ADD19R,0.08661X0.08661*%
%ADD20O,0.03740X0.01181*%
%ADD21O,0.01181X0.03740*%
G04:AMPARAMS|DCode=22|XSize=33.47mil|YSize=31.5mil|CornerRadius=0mil|HoleSize=0mil|Usage=FLASHONLY|Rotation=315.000|XOffset=0mil|YOffset=0mil|HoleType=Round|Shape=Rectangle|*
%AMROTATEDRECTD22*
4,1,4,-0.02297,0.00070,-0.00070,0.02297,0.02297,-0.00070,0.00070,-0.02297,-0.02297,0.00070,0.0*
%
%ADD22ROTATEDRECTD22*%

%ADD23R,0.03543X0.08268*%
%ADD24R,0.12992X0.08268*%
%ADD25R,0.04724X0.03347*%
%ADD26R,0.05000X0.03347*%
%ADD27R,0.03347X0.04724*%
%ADD28R,0.03347X0.05000*%
%ADD29R,0.02900X0.11000*%
G04:AMPARAMS|DCode=30|XSize=78.74mil|YSize=94.49mil|CornerRadius=0mil|HoleSize=0mil|Usage=FLASHONLY|Rotation=315.000|XOffset=0mil|YOffset=0mil|HoleType=Round|Shape=Rectangle|*
%AMROTATEDRECTD30*
4,1,4,-0.06125,-0.00557,0.00557,0.06125,0.06125,0.00557,-0.00557,-0.06125,-0.06125,-0.00557,0.0*
%
%ADD30ROTATEDRECTD30*%

%ADD31R,0.06000X0.08500*%
%ADD32R,0.02362X0.08071*%
G04:AMPARAMS|DCode=33|XSize=9.84mil|YSize=59.06mil|CornerRadius=0mil|HoleSize=0mil|Usage=FLASHONLY|Rotation=45.000|XOffset=0mil|YOffset=0mil|HoleType=Round|Shape=Rectangle|*
%AMROTATEDRECTD33*
4,1,4,0.01740,-0.02436,-0.02436,0.01740,-0.01740,0.02436,0.02436,-0.01740,0.01740,-0.02436,0.0*
%
%ADD33ROTATEDRECTD33*%

G04:AMPARAMS|DCode=34|XSize=9.84mil|YSize=59.06mil|CornerRadius=0mil|HoleSize=0mil|Usage=FLASHONLY|Rotation=135.000|XOffset=0mil|YOffset=0mil|HoleType=Round|Shape=Rectangle|*
%AMROTATEDRECTD34*
4,1,4,0.02436,0.01740,-0.01740,-0.02436,-0.02436,-0.01740,0.01740,0.02436,0.02436,0.01740,0.0*
%
%ADD34ROTATEDRECTD34*%

%ADD35R,0.02362X0.07087*%
%ADD36R,0.11024X0.03937*%
%ADD37R,0.01378X0.03937*%
%ADD38R,0.05512X0.01575*%
%ADD39R,0.09843X0.05610*%
%ADD40R,0.02756X0.05610*%
%ADD41C,0.01400*%
%ADD42C,0.01200*%
%ADD43R,0.06500X0.06500*%
%ADD44C,0.06500*%
%ADD45C,0.08661*%
%ADD46R,0.06500X0.06500*%
%ADD47R,0.05906X0.05906*%
%ADD48C,0.05906*%
%ADD49C,0.06299*%
%ADD50C,0.05709*%
%ADD51C,0.02598*%
%ADD52C,0.02500*%
%ADD53C,0.01000*%
%ADD54C,0.00984*%
%ADD55C,0.00787*%
%ADD56C,0.02362*%
%ADD57C,0.00700*%
%ADD58C,0.00591*%
%ADD59C,0.00600*%
%ADD60C,0.00800*%
%ADD61C,0.00400*%
%ADD62C,0.00500*%
%ADD63R,0.04147X0.03950*%
G04:AMPARAMS|DCode=64|XSize=33.59mil|YSize=41.47mil|CornerRadius=10.4mil|HoleSize=0mil|Usage=FLASHONLY|Rotation=180.000|XOffset=0mil|YOffset=0mil|HoleType=Round|Shape=RoundedRectangle|*
%AMROUNDEDRECTD64*
21,1,0.03359,0.02067,0,0,180.0*
21,1,0.01280,0.04147,0,0,180.0*
1,1,0.02080,-0.00640,0.01034*
1,1,0.02080,0.00640,0.01034*
1,1,0.02080,0.00640,-0.01034*
1,1,0.02080,-0.00640,-0.01034*
%
%ADD64ROUNDEDRECTD64*%
%ADD65R,0.03950X0.04147*%
%ADD66R,0.03162X0.05524*%
%ADD67R,0.05131X0.06706*%
G04:AMPARAMS|DCode=68|XSize=41.47mil|YSize=39.5mil|CornerRadius=0mil|HoleSize=0mil|Usage=FLASHONLY|Rotation=225.000|XOffset=0mil|YOffset=0mil|HoleType=Round|Shape=Rectangle|*
%AMROTATEDRECTD68*
4,1,4,0.00070,0.02862,0.02862,0.00070,-0.00070,-0.02862,-0.02862,-0.00070,0.00070,0.02862,0.0*
%
%ADD68ROTATEDRECTD68*%

%ADD69R,0.04619X0.04343*%
%ADD70R,0.04619X0.03359*%
%ADD71R,0.09300X0.06300*%
%ADD72R,0.09461X0.09461*%
%ADD73O,0.04540X0.01981*%
%ADD74O,0.01981X0.04540*%
G04:AMPARAMS|DCode=75|XSize=41.47mil|YSize=39.5mil|CornerRadius=0mil|HoleSize=0mil|Usage=FLASHONLY|Rotation=315.000|XOffset=0mil|YOffset=0mil|HoleType=Round|Shape=Rectangle|*
%AMROTATEDRECTD75*
4,1,4,-0.02862,0.00070,-0.00070,0.02862,0.02862,-0.00070,0.00070,-0.02862,-0.02862,0.00070,0.0*
%
%ADD75ROTATEDRECTD75*%

%ADD76R,0.04343X0.09068*%
%ADD77R,0.13792X0.09068*%
%ADD78R,0.05524X0.04147*%
%ADD79R,0.05800X0.04147*%
%ADD80R,0.04147X0.05524*%
%ADD81R,0.04147X0.05800*%
%ADD82R,0.03700X0.11800*%
G04:AMPARAMS|DCode=83|XSize=86.74mil|YSize=102.49mil|CornerRadius=0mil|HoleSize=0mil|Usage=FLASHONLY|Rotation=315.000|XOffset=0mil|YOffset=0mil|HoleType=Round|Shape=Rectangle|*
%AMROTATEDRECTD83*
4,1,4,-0.06690,-0.00557,0.00557,0.06690,0.06690,0.00557,-0.00557,-0.06690,-0.06690,-0.00557,0.0*
%
%ADD83ROTATEDRECTD83*%

%ADD84R,0.06800X0.09300*%
%ADD85R,0.03162X0.08871*%
G04:AMPARAMS|DCode=86|XSize=17.84mil|YSize=67.06mil|CornerRadius=0mil|HoleSize=0mil|Usage=FLASHONLY|Rotation=45.000|XOffset=0mil|YOffset=0mil|HoleType=Round|Shape=Rectangle|*
%AMROTATEDRECTD86*
4,1,4,0.01740,-0.03002,-0.03002,0.01740,-0.01740,0.03002,0.03002,-0.01740,0.01740,-0.03002,0.0*
%
%ADD86ROTATEDRECTD86*%

G04:AMPARAMS|DCode=87|XSize=17.84mil|YSize=67.06mil|CornerRadius=0mil|HoleSize=0mil|Usage=FLASHONLY|Rotation=135.000|XOffset=0mil|YOffset=0mil|HoleType=Round|Shape=Rectangle|*
%AMROTATEDRECTD87*
4,1,4,0.03002,0.01740,-0.01740,-0.03002,-0.03002,-0.01740,0.01740,0.03002,0.03002,0.01740,0.0*
%
%ADD87ROTATEDRECTD87*%

%ADD88R,0.03162X0.07887*%
%ADD89R,0.11824X0.04737*%
%ADD90R,0.02178X0.04737*%
%ADD91R,0.06312X0.02375*%
%ADD92R,0.10642X0.06410*%
%ADD93R,0.03556X0.06410*%
%ADD94R,0.07300X0.07300*%
%ADD95C,0.07300*%
%ADD96C,0.09461*%
%ADD97R,0.00800X0.00800*%
%ADD98R,0.07300X0.07300*%
%ADD99C,0.00800*%
%ADD100R,0.06706X0.06706*%
%ADD101C,0.06706*%
%ADD102C,0.07099*%
%ADD103C,0.06509*%
%ADD104C,0.03300*%
%ADD105C,0.03398*%
D72*
X16300Y222490D02*
D03*
D94*
X275300Y240800D02*
D03*
X185300D02*
D03*
X5300D02*
D03*
X95300D02*
D03*
D95*
X285300D02*
D03*
X295300D02*
D03*
X305300D02*
D03*
X315300D02*
D03*
X325300D02*
D03*
X275300Y250800D02*
D03*
X285300D02*
D03*
X295300D02*
D03*
X305300D02*
D03*
X315300D02*
D03*
X325300D02*
D03*
X195300Y240800D02*
D03*
X205300D02*
D03*
X215300D02*
D03*
X225300D02*
D03*
X235300D02*
D03*
X185300Y250800D02*
D03*
X195300D02*
D03*
X205300D02*
D03*
X215300D02*
D03*
X225300D02*
D03*
X235300D02*
D03*
X15300Y240800D02*
D03*
X25300D02*
D03*
X35300D02*
D03*
X45300D02*
D03*
X55300D02*
D03*
X5300Y250800D02*
D03*
X15300D02*
D03*
X25300D02*
D03*
X35300D02*
D03*
X45300D02*
D03*
X55300D02*
D03*
X105300Y240800D02*
D03*
X115300D02*
D03*
X125300D02*
D03*
X135300D02*
D03*
X145300D02*
D03*
X95300Y250800D02*
D03*
X105300D02*
D03*
X115300D02*
D03*
X125300D02*
D03*
X135300D02*
D03*
X145300D02*
D03*
X322000Y70500D02*
D03*
Y80500D02*
D03*
Y90500D02*
D03*
Y100500D02*
D03*
Y110500D02*
D03*
Y120500D02*
D03*
X312000Y70500D02*
D03*
Y80500D02*
D03*
Y90500D02*
D03*
Y100500D02*
D03*
Y110500D02*
D03*
Y218000D02*
D03*
Y208000D02*
D03*
Y198000D02*
D03*
Y188000D02*
D03*
Y178000D02*
D03*
X322000Y228000D02*
D03*
Y218000D02*
D03*
Y208000D02*
D03*
Y198000D02*
D03*
Y188000D02*
D03*
Y178000D02*
D03*
D96*
X16300Y208710D02*
D03*
D97*
X59500Y108500D02*
D03*
X44500D02*
D03*
X104500Y227000D02*
D03*
X304500Y57000D02*
D03*
Y167000D02*
D03*
X99500Y37000D02*
D03*
D98*
X312000Y120500D02*
D03*
Y228000D02*
D03*
D99*
X17535Y100437D02*
D03*
Y139807D02*
D03*
D100*
X174500Y37000D02*
D03*
X244500D02*
D03*
X294500Y227000D02*
D03*
X208500D02*
D03*
X164500Y37000D02*
D03*
X154500D02*
D03*
D101*
X184500D02*
D03*
X194500D02*
D03*
X204500D02*
D03*
X214500D02*
D03*
X224500D02*
D03*
X254500D02*
D03*
X264500D02*
D03*
X274500D02*
D03*
X284500D02*
D03*
X294500D02*
D03*
X284500Y227000D02*
D03*
X274500D02*
D03*
X264500D02*
D03*
X254500D02*
D03*
X244500D02*
D03*
X234500D02*
D03*
X224500D02*
D03*
X198500D02*
D03*
X188500D02*
D03*
X178500D02*
D03*
X168500D02*
D03*
X158500D02*
D03*
X148500D02*
D03*
X138500D02*
D03*
X128500D02*
D03*
X118500D02*
D03*
D102*
X8429Y161772D02*
D03*
Y183228D02*
D03*
X8929Y55272D02*
D03*
Y76728D02*
D03*
D103*
X20358Y182047D02*
D03*
Y162953D02*
D03*
X20858Y75547D02*
D03*
Y56453D02*
D03*
D104*
X187000Y161000D02*
D03*
X189500Y163500D02*
D03*
X193500Y167000D02*
D03*
X198000Y172500D02*
D03*
X179500Y153000D02*
D03*
X171500Y119000D02*
D03*
X189500Y99500D02*
D03*
X192000Y97000D02*
D03*
X194500Y95000D02*
D03*
X204500Y85500D02*
D03*
X209000Y81500D02*
D03*
X216000Y74500D02*
D03*
X240000Y81500D02*
D03*
X254000Y94500D02*
D03*
X256000Y97000D02*
D03*
X269500Y111000D02*
D03*
X278000Y145000D02*
D03*
X264500Y158500D02*
D03*
X260000Y163000D02*
D03*
X258000Y165500D02*
D03*
X240000Y182500D02*
D03*
X272000Y82500D02*
D03*
X277000Y102500D02*
D03*
X248000Y77500D02*
D03*
X253500Y71500D02*
D03*
X206900Y69600D02*
D03*
X200900Y63800D02*
D03*
X201300Y72900D02*
D03*
X196800Y77000D02*
D03*
X183800Y88900D02*
D03*
X189800Y90700D02*
D03*
X180400Y92400D02*
D03*
X182300Y84600D02*
D03*
X165300Y116500D02*
D03*
X173300Y155600D02*
D03*
X181900Y172000D02*
D03*
X174000Y170400D02*
D03*
X187400Y176000D02*
D03*
X192300Y181600D02*
D03*
X248600Y190600D02*
D03*
X265700Y174300D02*
D03*
X268400Y171600D02*
D03*
X272900Y166700D02*
D03*
X286100Y153300D02*
D03*
X189300Y83900D02*
D03*
X267100Y91300D02*
D03*
X259700D02*
D03*
X266400Y84300D02*
D03*
X176900Y166400D02*
D03*
X209900Y64400D02*
D03*
X246200Y70900D02*
D03*
D105*
X42638Y70638D02*
D03*
Y75362D02*
D03*
X47362Y70638D02*
D03*
Y75362D02*
D03*
M02*
