%FSLAX25Y25*%
%MOIN*%
G70*
G01*
G75*
G04 Layer_Color=65535*
%ADD10R,0.03347X0.03150*%
G04:AMPARAMS|DCode=11|XSize=25.59mil|YSize=33.47mil|CornerRadius=6.4mil|HoleSize=0mil|Usage=FLASHONLY|Rotation=180.000|XOffset=0mil|YOffset=0mil|HoleType=Round|Shape=RoundedRectangle|*
%AMROUNDEDRECTD11*
21,1,0.02559,0.02067,0,0,180.0*
21,1,0.01280,0.03347,0,0,180.0*
1,1,0.01280,-0.00640,0.01034*
1,1,0.01280,0.00640,0.01034*
1,1,0.01280,0.00640,-0.01034*
1,1,0.01280,-0.00640,-0.01034*
%
%ADD11ROUNDEDRECTD11*%
%ADD12R,0.03150X0.03347*%
%ADD13R,0.02362X0.04724*%
%ADD14R,0.04331X0.05906*%
G04:AMPARAMS|DCode=15|XSize=33.47mil|YSize=31.5mil|CornerRadius=0mil|HoleSize=0mil|Usage=FLASHONLY|Rotation=225.000|XOffset=0mil|YOffset=0mil|HoleType=Round|Shape=Rectangle|*
%AMROTATEDRECTD15*
4,1,4,0.00070,0.02297,0.02297,0.00070,-0.00070,-0.02297,-0.02297,-0.00070,0.00070,0.02297,0.0*
%
%ADD15ROTATEDRECTD15*%

%ADD16R,0.03819X0.03543*%
%ADD17R,0.03819X0.02559*%
%ADD18R,0.08500X0.05500*%
%ADD19R,0.08661X0.08661*%
%ADD20O,0.03740X0.01181*%
%ADD21O,0.01181X0.03740*%
G04:AMPARAMS|DCode=22|XSize=33.47mil|YSize=31.5mil|CornerRadius=0mil|HoleSize=0mil|Usage=FLASHONLY|Rotation=315.000|XOffset=0mil|YOffset=0mil|HoleType=Round|Shape=Rectangle|*
%AMROTATEDRECTD22*
4,1,4,-0.02297,0.00070,-0.00070,0.02297,0.02297,-0.00070,0.00070,-0.02297,-0.02297,0.00070,0.0*
%
%ADD22ROTATEDRECTD22*%

%ADD23R,0.03543X0.08268*%
%ADD24R,0.12992X0.08268*%
%ADD25R,0.04724X0.03347*%
%ADD26R,0.05000X0.03347*%
%ADD27R,0.03347X0.04724*%
%ADD28R,0.03347X0.05000*%
%ADD29R,0.02900X0.11000*%
G04:AMPARAMS|DCode=30|XSize=78.74mil|YSize=94.49mil|CornerRadius=0mil|HoleSize=0mil|Usage=FLASHONLY|Rotation=315.000|XOffset=0mil|YOffset=0mil|HoleType=Round|Shape=Rectangle|*
%AMROTATEDRECTD30*
4,1,4,-0.06125,-0.00557,0.00557,0.06125,0.06125,0.00557,-0.00557,-0.06125,-0.06125,-0.00557,0.0*
%
%ADD30ROTATEDRECTD30*%

%ADD31R,0.06000X0.08500*%
%ADD32R,0.02362X0.08071*%
G04:AMPARAMS|DCode=33|XSize=9.84mil|YSize=59.06mil|CornerRadius=0mil|HoleSize=0mil|Usage=FLASHONLY|Rotation=45.000|XOffset=0mil|YOffset=0mil|HoleType=Round|Shape=Rectangle|*
%AMROTATEDRECTD33*
4,1,4,0.01740,-0.02436,-0.02436,0.01740,-0.01740,0.02436,0.02436,-0.01740,0.01740,-0.02436,0.0*
%
%ADD33ROTATEDRECTD33*%

G04:AMPARAMS|DCode=34|XSize=9.84mil|YSize=59.06mil|CornerRadius=0mil|HoleSize=0mil|Usage=FLASHONLY|Rotation=135.000|XOffset=0mil|YOffset=0mil|HoleType=Round|Shape=Rectangle|*
%AMROTATEDRECTD34*
4,1,4,0.02436,0.01740,-0.01740,-0.02436,-0.02436,-0.01740,0.01740,0.02436,0.02436,0.01740,0.0*
%
%ADD34ROTATEDRECTD34*%

%ADD35R,0.02362X0.07087*%
%ADD36R,0.11024X0.03937*%
%ADD37R,0.01378X0.03937*%
%ADD38R,0.05512X0.01575*%
%ADD39R,0.09843X0.05610*%
%ADD40R,0.02756X0.05610*%
%ADD41C,0.01400*%
%ADD42C,0.01200*%
%ADD43R,0.06500X0.06500*%
%ADD44C,0.06500*%
%ADD45C,0.08661*%
%ADD46R,0.06500X0.06500*%
%ADD47R,0.05906X0.05906*%
%ADD48C,0.05906*%
%ADD49C,0.06299*%
%ADD50C,0.05709*%
%ADD51C,0.02598*%
%ADD52C,0.02500*%
%ADD53C,0.01000*%
%ADD54C,0.00984*%
%ADD55C,0.00787*%
%ADD56C,0.02362*%
%ADD57C,0.00700*%
%ADD58C,0.00591*%
%ADD59C,0.00600*%
%ADD60C,0.00800*%
%ADD61C,0.00400*%
%ADD62C,0.00500*%
D53*
X170835Y51402D02*
G03*
X170835Y51402I-197J0D01*
G01*
X315832Y16100D02*
G03*
X315832Y16100I-7632J0D01*
G01*
X270999D02*
G03*
X270999Y16100I-7632J0D01*
G01*
X226166D02*
G03*
X226166Y16100I-7632J0D01*
G01*
X181332D02*
G03*
X181332Y16100I-7632J0D01*
G01*
X68132Y138000D02*
G03*
X68132Y138000I-7632J0D01*
G01*
X67632Y163500D02*
G03*
X67632Y163500I-7632J0D01*
G01*
X44520Y185539D02*
Y190559D01*
X41756Y85300D02*
Y90800D01*
X40181Y85288D02*
X44118D01*
X42543Y85300D02*
X46500D01*
X40181Y85288D02*
Y89619D01*
Y90800D01*
X42543D02*
X48055D01*
Y85300D02*
Y90800D01*
X44118Y85300D02*
X48055D01*
X42543D02*
Y90800D01*
X40181D02*
X44118D01*
X296200Y4200D02*
Y28200D01*
X320200D01*
Y4200D02*
Y28200D01*
X296200Y4200D02*
X320200D01*
X251367D02*
Y28200D01*
X275367D01*
Y4200D02*
Y28200D01*
X251367Y4200D02*
X275367D01*
X206533D02*
Y28200D01*
X230533D01*
Y4200D02*
Y28200D01*
X206533Y4200D02*
X230533D01*
X161700D02*
Y28200D01*
X185700D01*
Y4200D02*
Y28200D01*
X161700Y4200D02*
X185700D01*
X48500Y126100D02*
X72500D01*
Y150100D01*
X48500D02*
X72500D01*
X48500Y126100D02*
Y150100D01*
X48000Y151600D02*
X72000D01*
Y175600D01*
X48000D02*
X72000D01*
X48000Y151600D02*
Y175600D01*
X2000Y201500D02*
X29600D01*
X2000Y229400D02*
X29600D01*
X2000Y201500D02*
Y229400D01*
X29600Y201500D02*
Y229400D01*
X2477Y215597D02*
X16257D01*
X33200Y218138D02*
X38700D01*
X38712Y216563D02*
Y220500D01*
X38700Y218925D02*
Y222882D01*
X34381Y216563D02*
X38712D01*
X33200D02*
X34381D01*
X33200Y218925D02*
Y224437D01*
X38700D01*
Y220500D02*
Y224437D01*
X33200Y218925D02*
X38700D01*
X33200Y216563D02*
Y220500D01*
X199862Y49200D02*
Y54700D01*
X197500Y54712D02*
X201437D01*
X195118Y54700D02*
X199075D01*
X201437Y50381D02*
Y54712D01*
Y49200D02*
Y50381D01*
X193563Y49200D02*
X199075D01*
X193563D02*
Y54700D01*
X197500D01*
X199075Y49200D02*
Y54700D01*
X197500Y49200D02*
X201437D01*
X14000Y192700D02*
X17937D01*
X15575D02*
Y198200D01*
X10063D02*
X14000D01*
X10063Y192700D02*
Y198200D01*
Y192700D02*
X15575D01*
X17937D02*
Y193881D01*
Y198212D01*
X11618Y198200D02*
X15575D01*
X14000Y198212D02*
X17937D01*
X16362Y192700D02*
Y198200D01*
X20358Y157539D02*
Y187461D01*
X1736D02*
X20358D01*
X1736Y157539D02*
Y187461D01*
Y157539D02*
X20358D01*
X20858Y51039D02*
Y80961D01*
X2236D02*
X20858D01*
X2236Y51039D02*
Y80961D01*
Y51039D02*
X20858D01*
X170749Y71948D02*
X169749Y72948D01*
X167750D01*
X166750Y71948D01*
Y67950D01*
X167750Y66950D01*
X169749D01*
X170749Y67950D01*
X172748Y71948D02*
X173748Y72948D01*
X175747D01*
X176747Y71948D01*
Y70949D01*
X175747Y69949D01*
X174747D01*
X175747D01*
X176747Y68949D01*
Y67950D01*
X175747Y66950D01*
X173748D01*
X172748Y67950D01*
X182745Y66950D02*
X178746D01*
X182745Y70949D01*
Y71948D01*
X181745Y72948D01*
X179746D01*
X178746Y71948D01*
X170900Y68698D02*
Y63700D01*
X171900Y62700D01*
X173899D01*
X174899Y63700D01*
Y68698D01*
X176898D02*
X180897D01*
Y67698D01*
X176898Y63700D01*
Y62700D01*
X172100Y67800D02*
Y73798D01*
X175099D01*
X176099Y72798D01*
Y70799D01*
X175099Y69799D01*
X172100D01*
X174099D02*
X176099Y67800D01*
X178098D02*
X180097D01*
X179098D01*
Y73798D01*
X178098Y72798D01*
X183096D02*
X184096Y73798D01*
X186095D01*
X187095Y72798D01*
Y71799D01*
X186095Y70799D01*
X185096D01*
X186095D01*
X187095Y69799D01*
Y68800D01*
X186095Y67800D01*
X184096D01*
X183096Y68800D01*
X250999Y82998D02*
X249999Y83998D01*
X248000D01*
X247000Y82998D01*
Y79000D01*
X248000Y78000D01*
X249999D01*
X250999Y79000D01*
X252998Y78000D02*
X254997D01*
X253998D01*
Y83998D01*
X252998Y82998D01*
X261995Y83998D02*
X259996Y82998D01*
X257996Y80999D01*
Y79000D01*
X258996Y78000D01*
X260996D01*
X261995Y79000D01*
Y79999D01*
X260996Y80999D01*
X257996D01*
X167499Y127998D02*
X166499Y128998D01*
X164500D01*
X163500Y127998D01*
Y124000D01*
X164500Y123000D01*
X166499D01*
X167499Y124000D01*
X169498Y123000D02*
X171497D01*
X170498D01*
Y128998D01*
X169498Y127998D01*
X178495Y128998D02*
X174496D01*
Y125999D01*
X176496Y126999D01*
X177496D01*
X178495Y125999D01*
Y124000D01*
X177496Y123000D01*
X175496D01*
X174496Y124000D01*
X31750Y59950D02*
Y65948D01*
X34749D01*
X35749Y64948D01*
Y62949D01*
X34749Y61949D01*
X31750D01*
X33749D02*
X35749Y59950D01*
X41747D02*
X37748D01*
X41747Y63949D01*
Y64948D01*
X40747Y65948D01*
X38748D01*
X37748Y64948D01*
X43746D02*
X44746Y65948D01*
X46745D01*
X47745Y64948D01*
Y63949D01*
X46745Y62949D01*
X45746D01*
X46745D01*
X47745Y61949D01*
Y60950D01*
X46745Y59950D01*
X44746D01*
X43746Y60950D01*
X37750Y59950D02*
Y65948D01*
X40749D01*
X41749Y64948D01*
Y62949D01*
X40749Y61949D01*
X37750D01*
X39749D02*
X41749Y59950D01*
X47747D02*
X43748D01*
X47747Y63949D01*
Y64948D01*
X46747Y65948D01*
X44748D01*
X43748Y64948D01*
X52745Y59950D02*
Y65948D01*
X49746Y62949D01*
X53745D01*
X43750Y59950D02*
Y65948D01*
X46749D01*
X47749Y64948D01*
Y62949D01*
X46749Y61949D01*
X43750D01*
X45749D02*
X47749Y59950D01*
X53747D02*
X49748D01*
X53747Y63949D01*
Y64948D01*
X52747Y65948D01*
X50748D01*
X49748Y64948D01*
X59745Y65948D02*
X55746D01*
Y62949D01*
X57745Y63949D01*
X58745D01*
X59745Y62949D01*
Y60950D01*
X58745Y59950D01*
X56746D01*
X55746Y60950D01*
X124243Y30400D02*
Y36398D01*
X127242D01*
X128242Y35398D01*
Y33399D01*
X127242Y32399D01*
X124243D01*
X126242D02*
X128242Y30400D01*
X133240D02*
Y36398D01*
X130241Y33399D01*
X134240D01*
X136239Y36398D02*
X140238D01*
Y35398D01*
X136239Y31400D01*
Y30400D01*
X117757D02*
Y36398D01*
X120756D01*
X121756Y35398D01*
Y33399D01*
X120756Y32399D01*
X117757D01*
X119756D02*
X121756Y30400D01*
X126754D02*
Y36398D01*
X123755Y33399D01*
X127754D01*
X129753Y35398D02*
X130753Y36398D01*
X132752D01*
X133752Y35398D01*
Y34399D01*
X132752Y33399D01*
X133752Y32399D01*
Y31400D01*
X132752Y30400D01*
X130753D01*
X129753Y31400D01*
Y32399D01*
X130753Y33399D01*
X129753Y34399D01*
Y35398D01*
X130753Y33399D02*
X132752D01*
X98200Y30200D02*
Y36198D01*
X101199D01*
X102199Y35198D01*
Y33199D01*
X101199Y32199D01*
X98200D01*
X100199D02*
X102199Y30200D01*
X107197D02*
Y36198D01*
X104198Y33199D01*
X108197D01*
X110196Y31200D02*
X111196Y30200D01*
X113195D01*
X114195Y31200D01*
Y35198D01*
X113195Y36198D01*
X111196D01*
X110196Y35198D01*
Y34199D01*
X111196Y33199D01*
X114195D01*
X111729Y29900D02*
Y35898D01*
X114728D01*
X115727Y34898D01*
Y32899D01*
X114728Y31899D01*
X111729D01*
X113728D02*
X115727Y29900D01*
X121725Y35898D02*
X117727D01*
Y32899D01*
X119726Y33899D01*
X120726D01*
X121725Y32899D01*
Y30900D01*
X120726Y29900D01*
X118726D01*
X117727Y30900D01*
X123725Y34898D02*
X124724Y35898D01*
X126724D01*
X127723Y34898D01*
Y30900D01*
X126724Y29900D01*
X124724D01*
X123725Y30900D01*
Y34898D01*
X135400Y30200D02*
Y36198D01*
X138399D01*
X139399Y35198D01*
Y33199D01*
X138399Y32199D01*
X135400D01*
X137399D02*
X139399Y30200D01*
X145397Y36198D02*
X141398D01*
Y33199D01*
X143397Y34199D01*
X144397D01*
X145397Y33199D01*
Y31200D01*
X144397Y30200D01*
X142398D01*
X141398Y31200D01*
X147396Y30200D02*
X149396D01*
X148396D01*
Y36198D01*
X147396Y35198D01*
X141500Y30200D02*
Y36198D01*
X144499D01*
X145499Y35198D01*
Y33199D01*
X144499Y32199D01*
X141500D01*
X143499D02*
X145499Y30200D01*
X151497Y36198D02*
X147498D01*
Y33199D01*
X149497Y34199D01*
X150497D01*
X151497Y33199D01*
Y31200D01*
X150497Y30200D01*
X148498D01*
X147498Y31200D01*
X157495Y30200D02*
X153496D01*
X157495Y34199D01*
Y35198D01*
X156495Y36198D01*
X154496D01*
X153496Y35198D01*
X129200Y30200D02*
Y36198D01*
X132199D01*
X133199Y35198D01*
Y33199D01*
X132199Y32199D01*
X129200D01*
X131199D02*
X133199Y30200D01*
X139197Y36198D02*
X135198D01*
Y33199D01*
X137197Y34199D01*
X138197D01*
X139197Y33199D01*
Y31200D01*
X138197Y30200D01*
X136198D01*
X135198Y31200D01*
X141196Y35198D02*
X142196Y36198D01*
X144195D01*
X145195Y35198D01*
Y34199D01*
X144195Y33199D01*
X143195D01*
X144195D01*
X145195Y32199D01*
Y31200D01*
X144195Y30200D01*
X142196D01*
X141196Y31200D01*
X104400Y30200D02*
Y36198D01*
X107399D01*
X108399Y35198D01*
Y33199D01*
X107399Y32199D01*
X104400D01*
X106399D02*
X108399Y30200D01*
X114397Y36198D02*
X110398D01*
Y33199D01*
X112397Y34199D01*
X113397D01*
X114397Y33199D01*
Y31200D01*
X113397Y30200D01*
X111398D01*
X110398Y31200D01*
X119395Y30200D02*
Y36198D01*
X116396Y33199D01*
X120395D01*
X2001Y12499D02*
Y11167D01*
X2668Y10500D01*
X5334D01*
X6000Y11167D01*
Y12499D01*
X5334Y13166D01*
X2668D01*
X2001Y12499D01*
Y17165D02*
Y14499D01*
X4001D01*
Y15832D01*
Y14499D01*
X6000D01*
X2001Y21163D02*
Y18497D01*
X4001D01*
Y19830D01*
Y18497D01*
X6000D01*
X2001Y31499D02*
Y30166D01*
X2668Y29500D01*
X5334D01*
X6000Y30166D01*
Y31499D01*
X5334Y32166D01*
X2668D01*
X2001Y31499D01*
X6000Y33499D02*
X2001D01*
X6000Y36165D01*
X2001D01*
D54*
X66905Y181457D02*
G03*
X66905Y181457I-492J0D01*
G01*
X49331Y84220D02*
G03*
X49331Y84220I-492J0D01*
G01*
X69500Y205780D02*
G03*
X69500Y205780I-492J0D01*
G01*
X307146Y133468D02*
G03*
X307146Y133468I-492J0D01*
G01*
X169314Y128799D02*
G03*
X169314Y128799I-492J0D01*
G01*
X90839Y118567D02*
G03*
X90839Y118567I-492J0D01*
G01*
X272622Y196780D02*
G03*
X272622Y196780I-492J0D01*
G01*
X151122Y194780D02*
G03*
X151122Y194780I-492J0D01*
G01*
X42000Y205279D02*
G03*
X42000Y205279I-492J0D01*
G01*
X130352Y162909D02*
G03*
X130352Y162909I-492J0D01*
G01*
D55*
X307658Y142360D02*
G03*
X307658Y145640I0J1640D01*
G01*
X166720Y58606D02*
Y59394D01*
X169280Y58606D02*
Y59394D01*
X175606Y61221D02*
X176394D01*
X175606Y63779D02*
X176394D01*
X67398Y185295D02*
Y188445D01*
X70744D01*
X79602Y185295D02*
Y188445D01*
X76256D02*
X79602D01*
X50051Y191020D02*
X53988D01*
X50051Y185114D02*
X53988D01*
X43606Y179220D02*
X44394D01*
X43606Y181780D02*
X44394D01*
X62721Y183106D02*
Y183894D01*
X65280Y183106D02*
Y183894D01*
X243180Y56706D02*
Y57494D01*
X240620Y56706D02*
Y57494D01*
X292870Y137402D02*
X295425D01*
X287720Y131606D02*
Y132394D01*
X290280Y131606D02*
Y132394D01*
X284117Y91774D02*
X284674Y91217D01*
X285926Y93583D02*
X286483Y93026D01*
X293917Y102074D02*
X294474Y101517D01*
X295726Y103883D02*
X296283Y103326D01*
X235821Y56706D02*
Y57494D01*
X238380Y56706D02*
Y57494D01*
X27720Y63606D02*
Y64394D01*
X30279Y63606D02*
Y64394D01*
X64320Y71906D02*
Y72694D01*
X66879Y71906D02*
Y72694D01*
X58220Y71906D02*
Y72694D01*
X60780Y71906D02*
Y72694D01*
X30279Y74106D02*
Y74894D01*
X27720Y74106D02*
Y74894D01*
X36732Y81268D02*
X38898D01*
X36732Y79102D02*
Y81268D01*
Y64732D02*
Y66898D01*
Y64732D02*
X38898D01*
X51102D02*
X53268D01*
Y66898D01*
Y79102D02*
Y81268D01*
X51102D02*
X53268D01*
X130353Y42750D02*
X132159Y44556D01*
X133098Y45570D02*
Y48125D01*
X130144Y51059D02*
X131950Y49253D01*
X126475Y51998D02*
X129030D01*
X123641Y49044D02*
X125447Y50850D01*
X123302Y45375D02*
Y47930D01*
X123849Y44347D02*
X125656Y42541D01*
X126770Y42202D02*
X129325D01*
X68811Y211488D02*
X95189D01*
X68811Y222512D02*
X95189D01*
X68811Y211488D02*
Y222512D01*
X95189Y211488D02*
Y222512D01*
X111906Y175821D02*
X112694D01*
X111906Y178379D02*
X112694D01*
X104706Y184479D02*
X105494D01*
X104706Y181921D02*
X105494D01*
X29721Y177606D02*
Y178394D01*
X32280Y177606D02*
Y178394D01*
X32779Y165606D02*
Y166394D01*
X30220Y165606D02*
Y166394D01*
X54606Y179220D02*
X55394D01*
X54606Y181780D02*
X55394D01*
X84620Y148306D02*
Y149094D01*
X87179Y148306D02*
Y149094D01*
X53000Y13500D02*
Y33500D01*
X47000Y13500D02*
X53000D01*
X47000D02*
Y33500D01*
Y34500D01*
X53000D01*
Y33500D02*
Y34500D01*
X49000Y20500D02*
X51000D01*
Y15500D02*
Y20500D01*
X49000Y15500D02*
X51000D01*
X49000D02*
Y20500D01*
X59000Y15500D02*
Y20500D01*
Y15500D02*
X61000D01*
Y20500D01*
X59000D02*
X61000D01*
X63000Y33500D02*
Y34500D01*
X57000D02*
X63000D01*
X57000Y33500D02*
Y34500D01*
Y13500D02*
Y33500D01*
Y13500D02*
X63000D01*
Y33500D01*
X69000Y15500D02*
Y20500D01*
Y15500D02*
X71000D01*
Y20500D01*
X69000D02*
X71000D01*
X73000Y33500D02*
Y34500D01*
X67000D02*
X73000D01*
X67000Y33500D02*
Y34500D01*
Y13500D02*
Y33500D01*
Y13500D02*
X73000D01*
Y33500D01*
X79000Y15500D02*
Y20500D01*
Y15500D02*
X81000D01*
Y20500D01*
X79000D02*
X81000D01*
X83000Y33500D02*
Y34500D01*
X77000D02*
X83000D01*
X77000Y33500D02*
Y34500D01*
Y13500D02*
Y33500D01*
Y13500D02*
X83000D01*
Y33500D01*
X43000Y13500D02*
Y33500D01*
X37000Y13500D02*
X43000D01*
X37000D02*
Y33500D01*
Y34500D01*
X43000D01*
Y33500D02*
Y34500D01*
X39000Y20500D02*
X41000D01*
Y15500D02*
Y20500D01*
X39000Y15500D02*
X41000D01*
X39000D02*
Y20500D01*
X33000Y13500D02*
Y33500D01*
X27000Y13500D02*
X33000D01*
X27000D02*
Y33500D01*
Y34500D01*
X33000D01*
Y33500D02*
Y34500D01*
X29000Y20500D02*
X31000D01*
Y15500D02*
Y20500D01*
X29000Y15500D02*
X31000D01*
X29000D02*
Y20500D01*
X23000Y13500D02*
Y33500D01*
X17000Y13500D02*
X23000D01*
X17000D02*
Y33500D01*
Y34500D01*
X23000D01*
Y33500D02*
Y34500D01*
X19000Y20500D02*
X21000D01*
Y15500D02*
Y20500D01*
X19000Y15500D02*
X21000D01*
X19000D02*
Y20500D01*
X9000Y15500D02*
Y20500D01*
Y15500D02*
X11000D01*
Y20500D01*
X9000D02*
X11000D01*
X13000Y33500D02*
Y34500D01*
X7000D02*
X13000D01*
X7000Y33500D02*
Y34500D01*
Y13500D02*
Y33500D01*
Y13500D02*
X13000D01*
Y33500D01*
X1000Y38500D02*
X89000D01*
Y8500D02*
Y38500D01*
X1000Y8500D02*
X89000D01*
X1000D02*
Y38500D01*
X122818Y5398D02*
X125373D01*
X116632D02*
X119187D01*
X98075D02*
X100630D01*
X110446D02*
X113001D01*
X135189D02*
X137744D01*
X141375D02*
X143930D01*
X129003D02*
X131559D01*
X104261D02*
X106816D01*
X88106Y196221D02*
X88894D01*
X88106Y198779D02*
X88894D01*
X48106D02*
X48894D01*
X48106Y196221D02*
X48894D01*
X307657Y148921D02*
X327342D01*
X307657Y139079D02*
X327342D01*
Y148921D01*
X307657Y145640D02*
Y148921D01*
Y139079D02*
Y142360D01*
X67492Y94551D02*
X67492Y113449D01*
X91311Y94551D02*
Y113449D01*
X67492Y94551D02*
X91311D01*
X67492Y113449D02*
X91311D01*
X29937Y87051D02*
Y153193D01*
X5134D02*
X29937D01*
X5134Y87051D02*
Y153193D01*
Y87051D02*
X29937D01*
X27181Y116579D02*
X29937D01*
X27181D02*
Y123665D01*
X29937D01*
X155220Y15606D02*
Y16394D01*
X157780Y15606D02*
Y16394D01*
X288221Y15606D02*
Y16394D01*
X290779Y15606D02*
Y16394D01*
X243721Y15606D02*
Y16394D01*
X246280Y15606D02*
Y16394D01*
X200220Y15606D02*
Y16394D01*
X202780Y15606D02*
Y16394D01*
X299295Y200716D02*
Y215283D01*
X273705Y200716D02*
Y215283D01*
X177795Y198716D02*
Y213283D01*
X152205Y198716D02*
Y213283D01*
X76279Y51606D02*
Y52394D01*
X73721Y51606D02*
Y52394D01*
X70280Y51606D02*
Y52394D01*
X67721Y51606D02*
Y52394D01*
X64280Y51606D02*
Y52394D01*
X61721Y51606D02*
Y52394D01*
X58280Y51606D02*
Y52394D01*
X55721Y51606D02*
Y52394D01*
X52280Y51606D02*
Y52394D01*
X49720Y51606D02*
Y52394D01*
X43720Y51606D02*
Y52394D01*
X46279Y51606D02*
Y52394D01*
X37721Y51606D02*
Y52394D01*
X40279Y51606D02*
Y52394D01*
X31721Y51606D02*
Y52394D01*
X34280Y51606D02*
Y52394D01*
X153526Y156117D02*
X154083Y156674D01*
X151717Y157926D02*
X152274Y158483D01*
X149991Y159652D02*
X150548Y160209D01*
X148181Y161462D02*
X148738Y162019D01*
X106026Y129617D02*
X106583Y130174D01*
X104217Y131426D02*
X104774Y131983D01*
X83820Y171106D02*
Y171894D01*
X86379Y171106D02*
Y171894D01*
X84606Y82780D02*
X85394D01*
X84606Y80221D02*
X85394D01*
X76106Y196221D02*
X76894D01*
X76106Y198779D02*
X76894D01*
X210817Y71126D02*
X211374Y71683D01*
X212626Y69317D02*
X213183Y69874D01*
X60606Y196221D02*
X61394D01*
X60606Y198779D02*
X61394D01*
X316606Y164280D02*
X317394D01*
X316606Y161720D02*
X317394D01*
X326280Y165106D02*
Y165894D01*
X323720Y165106D02*
Y165894D01*
X316606Y169780D02*
X317394D01*
X316606Y167220D02*
X317394D01*
X331280Y165106D02*
Y165894D01*
X328720Y165106D02*
Y165894D01*
X218280Y60106D02*
Y60894D01*
X215720Y60106D02*
Y60894D01*
X305780Y154106D02*
Y154894D01*
X303220Y154106D02*
Y154894D01*
X192126Y88817D02*
X192683Y89374D01*
X190317Y90626D02*
X190874Y91183D01*
X190317Y171374D02*
X190874Y170817D01*
X192126Y173183D02*
X192683Y172626D01*
X199817Y81626D02*
X200374Y82183D01*
X201626Y79817D02*
X202183Y80374D01*
X256317Y89374D02*
X256874Y88817D01*
X258126Y91183D02*
X258683Y90626D01*
X265126Y165817D02*
X265683Y166374D01*
X263317Y167626D02*
X263874Y168183D01*
X185126Y81817D02*
X185683Y82374D01*
X183317Y83626D02*
X183874Y84183D01*
X205626Y62317D02*
X206183Y62874D01*
X203817Y64126D02*
X204374Y64683D01*
X259817Y92874D02*
X260374Y92317D01*
X261626Y94683D02*
X262183Y94126D01*
X266817Y85874D02*
X267374Y85317D01*
X268626Y87683D02*
X269183Y87126D01*
X176826Y172983D02*
X177383Y172426D01*
X175017Y171174D02*
X175574Y170617D01*
X188626Y91817D02*
X189183Y92374D01*
X186817Y93626D02*
X187374Y94183D01*
X186626Y169183D02*
X187183Y168626D01*
X184817Y167374D02*
X185374Y166817D01*
X262126Y168817D02*
X262683Y169374D01*
X260317Y170626D02*
X260874Y171183D01*
X181817Y164374D02*
X182374Y163817D01*
X183626Y166183D02*
X184183Y165626D01*
X245126Y185317D02*
X245683Y185873D01*
X243317Y187126D02*
X243874Y187683D01*
X176126Y158183D02*
X176683Y157626D01*
X174317Y156374D02*
X174874Y155817D01*
X282626Y147817D02*
X283183Y148374D01*
X280817Y149626D02*
X281374Y150183D01*
X269626Y161317D02*
X270183Y161874D01*
X267817Y163126D02*
X268374Y163683D01*
X197126Y178683D02*
X197683Y178127D01*
X195317Y176874D02*
X195874Y176317D01*
X271817Y105874D02*
X272374Y105317D01*
X273626Y107683D02*
X274183Y107126D01*
X242817Y76374D02*
X243374Y75817D01*
X244626Y78183D02*
X245183Y77626D01*
X183317Y97126D02*
X183874Y97683D01*
X185126Y95317D02*
X185683Y95874D01*
X204317Y77626D02*
X204874Y78183D01*
X206126Y75817D02*
X206683Y76374D01*
X166317Y115626D02*
X166874Y116183D01*
X168126Y113817D02*
X168683Y114374D01*
X251626Y71183D02*
X252183Y70626D01*
X249817Y69374D02*
X250374Y68817D01*
X41311Y210988D02*
X67689D01*
X41311Y222012D02*
X67689D01*
X41311Y210988D02*
Y222012D01*
X67689Y210988D02*
Y222012D01*
X104406Y21906D02*
Y22694D01*
X106965Y21906D02*
Y22694D01*
X129149Y21906D02*
Y22694D01*
X131708Y21906D02*
Y22694D01*
X141520Y21906D02*
Y22694D01*
X144079Y21906D02*
Y22694D01*
X135335Y21906D02*
Y22694D01*
X137894Y21906D02*
Y22694D01*
X111721Y21606D02*
Y22394D01*
X114279Y21606D02*
Y22394D01*
X98220Y21906D02*
Y22694D01*
X100779Y21906D02*
Y22694D01*
X117720Y22106D02*
Y22894D01*
X120280Y22106D02*
Y22894D01*
X124221Y22106D02*
Y22894D01*
X126779Y22106D02*
Y22894D01*
X107220Y50106D02*
Y50894D01*
X109780Y50106D02*
Y50894D01*
X151720Y48106D02*
Y48894D01*
X154279Y48106D02*
Y48894D01*
X102720Y50106D02*
Y50894D01*
X105280Y50106D02*
Y50894D01*
X102720Y60606D02*
X102720Y61394D01*
X105280Y60606D02*
Y61394D01*
X107220Y60606D02*
Y61394D01*
X109780Y60606D02*
Y61394D01*
X146721Y59606D02*
X146721Y60394D01*
X149279Y59606D02*
Y60394D01*
X151221Y59606D02*
Y60394D01*
X153779Y59606D02*
Y60394D01*
X147221Y48106D02*
Y48894D01*
X149779Y48106D02*
Y48894D01*
X115454Y142100D02*
X131600Y125953D01*
Y158247D02*
X147747Y142100D01*
X131600Y125953D02*
X147747Y142100D01*
X115454D02*
X131600Y158247D01*
D56*
X179190Y132000D02*
G03*
X179190Y132000I-1181J0D01*
G01*
X88752Y109512D02*
G03*
X88752Y109512I-1181J0D01*
G01*
X132781Y152679D02*
G03*
X132781Y152679I-1181J0D01*
G01*
D57*
X174941Y58500D02*
X177500D01*
X174941Y50600D02*
X177500D01*
X171327Y53567D02*
Y55634D01*
X181169Y53567D02*
Y55634D01*
X98346Y169830D02*
X102243Y173727D01*
X98346Y167046D02*
Y169830D01*
Y167046D02*
X109481Y155910D01*
X112265D01*
X118390Y162035D01*
Y164819D01*
X107254Y175954D02*
X118390Y164819D01*
X106976Y176233D02*
X107254Y175954D01*
X102243Y173727D02*
X104749Y176233D01*
X106976Y176233D01*
D58*
X295500Y131000D02*
Y133000D01*
X292500Y131000D02*
Y133000D01*
X135325Y41497D02*
X136739Y40082D01*
X133203Y39375D02*
X134617Y37961D01*
X137500Y48200D02*
X139500D01*
X137500Y45200D02*
X139500D01*
X133203Y54225D02*
X134617Y55639D01*
X135325Y52103D02*
X136739Y53518D01*
X126400Y56400D02*
Y58400D01*
X129400Y56400D02*
Y58400D01*
X119061Y53518D02*
X120475Y52103D01*
X121183Y55639D02*
X122597Y54225D01*
X116900Y45300D02*
X118900D01*
X116900Y48300D02*
X118900D01*
X121183Y37961D02*
X122597Y39375D01*
X119061Y40082D02*
X120475Y41497D01*
X129400Y35800D02*
Y37800D01*
X126400Y35800D02*
Y37800D01*
X125743Y9800D02*
Y11800D01*
X122743Y9800D02*
Y11800D01*
X119557Y9800D02*
Y11800D01*
X116557Y9800D02*
Y11800D01*
X101000Y9800D02*
Y11800D01*
X98000Y9800D02*
Y11800D01*
X113371Y9800D02*
Y11800D01*
X110371Y9800D02*
Y11800D01*
X138114Y9800D02*
Y11800D01*
X135114Y9800D02*
Y11800D01*
X144300Y9800D02*
Y11800D01*
X141300Y9800D02*
Y11800D01*
X131929Y9800D02*
Y11800D01*
X128928Y9800D02*
Y11800D01*
X107186Y9800D02*
Y11800D01*
X104186Y9800D02*
Y11800D01*
D59*
X224500Y79941D02*
X276559Y132000D01*
X172441D02*
X224500Y184059D01*
X276559Y132000D01*
X172441D02*
X224500Y79941D01*
X101421Y126768D02*
X103188Y125001D01*
X103895D01*
X104602Y125708D01*
X104602Y126415D01*
X102835Y128182D01*
X105309Y127122D02*
X106016D01*
X106723Y127829D01*
X106723Y128535D01*
X105309Y129949D01*
X104602Y129949D01*
X103895Y129242D01*
Y128535D01*
X104248Y128182D01*
X104955Y128182D01*
X106016Y129242D01*
X167240Y130501D02*
X169739D01*
X170239Y131001D01*
Y132000D01*
X169739Y132500D01*
X167240D01*
X170239Y133500D02*
Y134500D01*
Y134000D01*
X167240D01*
X167740Y133500D01*
X204462Y82213D02*
X204962Y81713D01*
X205962D01*
X206462Y82213D01*
Y84212D01*
X205962Y84712D01*
X204962D01*
X204462Y84212D01*
X201463Y84712D02*
X203463D01*
X201463Y82713D01*
Y82213D01*
X201963Y81713D01*
X202963D01*
X203463Y82213D01*
X198464Y81713D02*
X199464Y82213D01*
X200464Y83213D01*
Y84212D01*
X199964Y84712D01*
X198964D01*
X198464Y84212D01*
Y83712D01*
X198964Y83213D01*
X200464D01*
X189911Y111893D02*
X190411Y112393D01*
Y113393D01*
X189911Y113893D01*
X187912D01*
X187412Y113393D01*
Y112393D01*
X187912Y111893D01*
X187412Y108894D02*
Y110894D01*
X189412Y108894D01*
X189911D01*
X190411Y109394D01*
Y110394D01*
X189911Y110894D01*
X190411Y105895D02*
Y107895D01*
X188912D01*
X189412Y106895D01*
Y106395D01*
X188912Y105895D01*
X187912D01*
X187412Y106395D01*
Y107395D01*
X187912Y107895D01*
X229136Y82941D02*
X228636Y83441D01*
X227637D01*
X227137Y82941D01*
Y80942D01*
X227637Y80442D01*
X228636D01*
X229136Y80942D01*
X232135Y80442D02*
X230136D01*
X232135Y82441D01*
Y82941D01*
X231635Y83441D01*
X230636D01*
X230136Y82941D01*
X234634Y80442D02*
Y83441D01*
X233135Y81941D01*
X235134D01*
X267276Y111071D02*
X267776Y110571D01*
X268776D01*
X269275Y111071D01*
Y113070D01*
X268776Y113570D01*
X267776D01*
X267276Y113070D01*
X264277Y113570D02*
X266276D01*
X264277Y111571D01*
Y111071D01*
X264777Y110571D01*
X265777D01*
X266276Y111071D01*
X263277D02*
X262778Y110571D01*
X261778D01*
X261278Y111071D01*
Y111571D01*
X261778Y112071D01*
X262278D01*
X261778D01*
X261278Y112571D01*
Y113070D01*
X261778Y113570D01*
X262778D01*
X263277Y113070D01*
X202449Y166904D02*
X202949Y167404D01*
Y168404D01*
X202449Y168904D01*
X200450D01*
X199950Y168404D01*
Y167404D01*
X200450Y166904D01*
X199950Y163906D02*
Y165905D01*
X201950Y163906D01*
X202449D01*
X202949Y164405D01*
Y165405D01*
X202449Y165905D01*
X199950Y160907D02*
Y162906D01*
X201950Y160907D01*
X202449D01*
X202949Y161406D01*
Y162406D01*
X202449Y162906D01*
X255752Y155003D02*
X256252Y154503D01*
X257252D01*
X257751Y155003D01*
Y157002D01*
X257252Y157502D01*
X256252D01*
X255752Y157002D01*
X252753Y157502D02*
X254752D01*
X252753Y155503D01*
Y155003D01*
X253253Y154503D01*
X254253D01*
X254752Y155003D01*
X251753Y157502D02*
X250754D01*
X251253D01*
Y154503D01*
X251753Y155003D01*
X277536Y141069D02*
X278036Y141569D01*
Y142568D01*
X277536Y143068D01*
X275537D01*
X275037Y142568D01*
Y141569D01*
X275537Y141069D01*
X275037Y138070D02*
Y140069D01*
X277036Y138070D01*
X277536D01*
X278036Y138570D01*
Y139569D01*
X277536Y140069D01*
Y137070D02*
X278036Y136570D01*
Y135571D01*
X277536Y135071D01*
X275537D01*
X275037Y135571D01*
Y136570D01*
X275537Y137070D01*
X277536D01*
X180048Y164603D02*
X180547Y165103D01*
Y166102D01*
X180048Y166602D01*
X178048D01*
X177549Y166102D01*
Y165103D01*
X178048Y164603D01*
X177549Y163603D02*
Y162603D01*
Y163103D01*
X180547D01*
X180048Y163603D01*
Y161104D02*
X180547Y160604D01*
Y159604D01*
X180048Y159105D01*
X179548D01*
X179048Y159604D01*
X178548Y159105D01*
X178048D01*
X177549Y159604D01*
Y160604D01*
X178048Y161104D01*
X178548D01*
X179048Y160604D01*
X179548Y161104D01*
X180048D01*
X179048Y160604D02*
Y159604D01*
X239018Y175387D02*
X239518Y175887D01*
Y176886D01*
X239018Y177386D01*
X237019D01*
X236519Y176886D01*
Y175887D01*
X237019Y175387D01*
X236519Y174387D02*
Y173387D01*
Y173887D01*
X239518D01*
X239018Y174387D01*
X239518Y171888D02*
Y169889D01*
X239018D01*
X237019Y171888D01*
X236519D01*
X192561Y157956D02*
X193060Y157456D01*
X194060D01*
X194560Y157956D01*
Y159955D01*
X194060Y160455D01*
X193060D01*
X192561Y159955D01*
X191561Y160455D02*
X190561D01*
X191061D01*
Y157456D01*
X191561Y157956D01*
X187562Y160455D02*
Y157456D01*
X189062Y158956D01*
X187062D01*
X250819Y163436D02*
X251319Y162936D01*
X252319D01*
X252819Y163436D01*
Y165435D01*
X252319Y165935D01*
X251319D01*
X250819Y165435D01*
X249820Y165935D02*
X248820D01*
X249320D01*
Y162936D01*
X249820Y163436D01*
X247320D02*
X246820Y162936D01*
X245821D01*
X245321Y163436D01*
Y163936D01*
X245821Y164436D01*
X246321D01*
X245821D01*
X245321Y164935D01*
Y165435D01*
X245821Y165935D01*
X246820D01*
X247320Y165435D01*
X194270Y163175D02*
X193770Y163675D01*
X192770D01*
X192271Y163175D01*
Y161175D01*
X192770Y160676D01*
X193770D01*
X194270Y161175D01*
X195270Y160676D02*
X196269D01*
X195769D01*
Y163675D01*
X195270Y163175D01*
X199768Y160676D02*
X197769D01*
X199768Y162675D01*
Y163175D01*
X199268Y163675D01*
X198268D01*
X197769Y163175D01*
X177423Y83259D02*
X177923Y82759D01*
X178922D01*
X179422Y83259D01*
Y85259D01*
X178922Y85758D01*
X177923D01*
X177423Y85259D01*
X176423Y85758D02*
X175424D01*
X175924D01*
Y82759D01*
X176423Y83259D01*
X173924Y85758D02*
X172924D01*
X173424D01*
Y82759D01*
X173924Y83259D01*
X165484Y180002D02*
X164984Y179502D01*
Y178502D01*
X165484Y178002D01*
X167483D01*
X167983Y178502D01*
Y179502D01*
X167483Y180002D01*
X167983Y181001D02*
Y182001D01*
Y181501D01*
X164984D01*
X165484Y181001D01*
Y183501D02*
X164984Y184000D01*
Y185000D01*
X165484Y185500D01*
X167483D01*
X167983Y185000D01*
Y184000D01*
X167483Y183501D01*
X165484D01*
X252306Y92301D02*
X252805Y91801D01*
X253805D01*
X254305Y92301D01*
Y94300D01*
X253805Y94800D01*
X252805D01*
X252306Y94300D01*
X251306D02*
X250806Y94800D01*
X249806D01*
X249307Y94300D01*
Y92301D01*
X249806Y91801D01*
X250806D01*
X251306Y92301D01*
Y92800D01*
X250806Y93300D01*
X249307D01*
X255008Y99853D02*
X254508Y99353D01*
Y98353D01*
X255008Y97853D01*
X257007D01*
X257507Y98353D01*
Y99353D01*
X257007Y99853D01*
X255008Y100853D02*
X254508Y101352D01*
Y102352D01*
X255008Y102852D01*
X255508D01*
X256008Y102352D01*
X256507Y102852D01*
X257007D01*
X257507Y102352D01*
Y101352D01*
X257007Y100853D01*
X256507D01*
X256008Y101352D01*
X255508Y100853D01*
X255008D01*
X256008Y101352D02*
Y102352D01*
X209783Y76012D02*
X209283Y75513D01*
Y74513D01*
X209783Y74013D01*
X211782D01*
X212282Y74513D01*
Y75513D01*
X211782Y76012D01*
X209283Y77012D02*
Y79011D01*
X209783D01*
X211782Y77012D01*
X212282D01*
X198363Y90582D02*
X197863Y91082D01*
X196863D01*
X196363Y90582D01*
Y88583D01*
X196863Y88083D01*
X197863D01*
X198363Y88583D01*
X201362Y91082D02*
X200362Y90582D01*
X199362Y89583D01*
Y88583D01*
X199862Y88083D01*
X200862D01*
X201362Y88583D01*
Y89083D01*
X200862Y89583D01*
X199362D01*
X218026Y83879D02*
X218526Y84378D01*
Y85378D01*
X218026Y85878D01*
X216027D01*
X215527Y85378D01*
Y84378D01*
X216027Y83879D01*
X218526Y80880D02*
Y82879D01*
X217026D01*
X217526Y81879D01*
Y81379D01*
X217026Y80880D01*
X216027D01*
X215527Y81379D01*
Y82379D01*
X216027Y82879D01*
X255495Y159460D02*
X255995Y158961D01*
X256994D01*
X257494Y159460D01*
Y161460D01*
X256994Y161960D01*
X255995D01*
X255495Y161460D01*
X254495Y159460D02*
X253995Y158961D01*
X252995D01*
X252496Y159460D01*
Y159960D01*
X252995Y160460D01*
X253495D01*
X252995D01*
X252496Y160960D01*
Y161460D01*
X252995Y161960D01*
X253995D01*
X254495Y161460D01*
X244864Y96069D02*
X244364Y96569D01*
X243365D01*
X242865Y96069D01*
Y94069D01*
X243365Y93570D01*
X244364D01*
X244864Y94069D01*
X247863Y93570D02*
X245864D01*
X247863Y95569D01*
Y96069D01*
X247363Y96569D01*
X246363D01*
X245864Y96069D01*
X215838Y86907D02*
X215338Y87407D01*
X214339D01*
X213839Y86907D01*
Y84907D01*
X214339Y84408D01*
X215338D01*
X215838Y84907D01*
X216838Y84408D02*
X217838D01*
X217338D01*
Y87407D01*
X216838Y86907D01*
X185347Y180681D02*
X184640Y180681D01*
X183933Y179974D01*
Y179267D01*
X185347Y177853D01*
X186053D01*
X186760Y178560D01*
X186760Y179267D01*
X187821Y179621D02*
X188528Y180327D01*
X188174Y179974D01*
X186053Y182095D01*
Y181388D01*
X189234Y181741D02*
X189941D01*
X190648Y182448D01*
X190648Y183155D01*
X189234Y184569D01*
X188528D01*
X187821Y183862D01*
Y183155D01*
X188174Y182802D01*
X188881Y182802D01*
X189941Y183862D01*
X182001Y80201D02*
X182501Y79701D01*
X183500D01*
X184000Y80201D01*
Y82200D01*
X183500Y82700D01*
X182501D01*
X182001Y82200D01*
X179501Y82700D02*
Y79701D01*
X181001Y81200D01*
X179002D01*
X30701Y91001D02*
X31700D01*
X31201D01*
Y93500D01*
X31700Y94000D01*
X32200D01*
X32700Y93500D01*
X29701Y91501D02*
X29201Y91001D01*
X28201D01*
X27702Y91501D01*
Y92001D01*
X28201Y92501D01*
X28701D01*
X28201D01*
X27702Y93000D01*
Y93500D01*
X28201Y94000D01*
X29201D01*
X29701Y93500D01*
X291000Y126500D02*
Y123501D01*
X289500D01*
X289001Y124001D01*
Y125001D01*
X289500Y125500D01*
X291000D01*
X290000D02*
X289001Y126500D01*
X286002Y123501D02*
X287001Y124001D01*
X288001Y125001D01*
Y126000D01*
X287501Y126500D01*
X286502D01*
X286002Y126000D01*
Y125500D01*
X286502Y125001D01*
X288001D01*
X296600Y105200D02*
Y108199D01*
X298099D01*
X298599Y107699D01*
Y106700D01*
X298099Y106200D01*
X296600D01*
X297600D02*
X298599Y105200D01*
X301598Y108199D02*
X299599D01*
Y106700D01*
X300599Y107199D01*
X301098D01*
X301598Y106700D01*
Y105700D01*
X301098Y105200D01*
X300099D01*
X299599Y105700D01*
X233564Y49322D02*
X235685Y51442D01*
X236745Y50382D01*
X236745Y49675D01*
X236038Y48968D01*
X235332Y48968D01*
X234271Y50029D01*
X234978Y49322D02*
X234978Y47908D01*
X237452Y48968D02*
X238159D01*
X238866Y48261D01*
X238866Y47555D01*
X238513Y47201D01*
X237806D01*
X237452Y47555D01*
X237806Y47201D01*
X237806Y46494D01*
X237452Y46141D01*
X236745Y46141D01*
X236038Y46848D01*
Y47555D01*
X307901Y146301D02*
X308401Y145801D01*
X309400D01*
X309900Y146301D01*
Y148300D01*
X309400Y148800D01*
X308401D01*
X307901Y148300D01*
X304902Y148800D02*
X306901D01*
X304902Y146801D01*
Y146301D01*
X305401Y145801D01*
X306401D01*
X306901Y146301D01*
X303902Y145801D02*
X301903D01*
Y146301D01*
X303902Y148300D01*
Y148800D01*
X333501Y163499D02*
X333001Y162999D01*
Y162000D01*
X333501Y161500D01*
X335500D01*
X336000Y162000D01*
Y162999D01*
X335500Y163499D01*
X336000Y166498D02*
Y164499D01*
X334001Y166498D01*
X333501D01*
X333001Y165999D01*
Y164999D01*
X333501Y164499D01*
Y167498D02*
X333001Y167998D01*
Y168998D01*
X333501Y169497D01*
X334001D01*
X334501Y168998D01*
X335000Y169497D01*
X335500D01*
X336000Y168998D01*
Y167998D01*
X335500Y167498D01*
X335000D01*
X334501Y167998D01*
X334001Y167498D01*
X333501D01*
X334501Y167998D02*
Y168998D01*
X319501Y172501D02*
X320001Y172001D01*
X321000D01*
X321500Y172501D01*
Y174500D01*
X321000Y175000D01*
X320001D01*
X319501Y174500D01*
X316502Y175000D02*
X318501D01*
X316502Y173001D01*
Y172501D01*
X317002Y172001D01*
X318001D01*
X318501Y172501D01*
X315502Y174500D02*
X315002Y175000D01*
X314002D01*
X313503Y174500D01*
Y172501D01*
X314002Y172001D01*
X315002D01*
X315502Y172501D01*
Y173001D01*
X315002Y173501D01*
X313503D01*
X51701Y197399D02*
X51201Y196899D01*
Y195900D01*
X51701Y195400D01*
X53700D01*
X54200Y195900D01*
Y196899D01*
X53700Y197399D01*
X54200Y199899D02*
X51201D01*
X52701Y198399D01*
Y200398D01*
X54200Y203397D02*
Y201398D01*
X52201Y203397D01*
X51701D01*
X51201Y202898D01*
Y201898D01*
X51701Y201398D01*
X78692Y197399D02*
X78192Y196899D01*
Y195900D01*
X78692Y195400D01*
X80691D01*
X81191Y195900D01*
Y196899D01*
X80691Y197399D01*
X81191Y199899D02*
X78192D01*
X79692Y198399D01*
Y200398D01*
X78692Y201398D02*
X78192Y201898D01*
Y202898D01*
X78692Y203397D01*
X79192D01*
X79692Y202898D01*
Y202398D01*
Y202898D01*
X80192Y203397D01*
X80691D01*
X81191Y202898D01*
Y201898D01*
X80691Y201398D01*
X75650Y202499D02*
X75150Y201999D01*
Y201000D01*
X75650Y200500D01*
X77649D01*
X78149Y201000D01*
Y201999D01*
X77649Y202499D01*
X78149Y204998D02*
X75150D01*
X76649Y203499D01*
Y205498D01*
X78149Y207998D02*
X75150D01*
X76649Y206498D01*
Y208497D01*
X215800Y66000D02*
Y68999D01*
X217300D01*
X217799Y68499D01*
Y67500D01*
X217300Y67000D01*
X215800D01*
X216800D02*
X217799Y66000D01*
X218799D02*
X219799D01*
X219299D01*
Y68999D01*
X218799Y68499D01*
X322000Y163500D02*
X319001D01*
Y164999D01*
X319501Y165499D01*
X320500D01*
X321000Y164999D01*
Y163500D01*
Y164500D02*
X322000Y165499D01*
Y168498D02*
Y166499D01*
X320001Y168498D01*
X319501D01*
X319001Y167999D01*
Y166999D01*
X319501Y166499D01*
X240486Y49322D02*
X242606Y51442D01*
X243667Y50382D01*
X243667Y49675D01*
X242960Y48968D01*
X242253Y48968D01*
X241193Y50029D01*
X241899Y49322D02*
X241899Y47908D01*
X243667Y46141D02*
X245787Y48261D01*
X243667Y48261D01*
X245080Y46848D01*
X318500Y160000D02*
Y157001D01*
X317001D01*
X316501Y157501D01*
Y158501D01*
X317001Y159000D01*
X318500D01*
X317500D02*
X316501Y160000D01*
X315501Y157001D02*
X313502D01*
Y157501D01*
X315501Y159500D01*
Y160000D01*
X303101Y137200D02*
X305600D01*
X306100Y137700D01*
Y138699D01*
X305600Y139199D01*
X303101D01*
X306100Y142198D02*
Y140199D01*
X304101Y142198D01*
X303601D01*
X303101Y141699D01*
Y140699D01*
X303601Y140199D01*
X43301Y225500D02*
X45800D01*
X46300Y226000D01*
Y226999D01*
X45800Y227499D01*
X43301D01*
X43801Y228499D02*
X43301Y228999D01*
Y229998D01*
X43801Y230498D01*
X44301D01*
X44800Y229998D01*
X45300Y230498D01*
X45800D01*
X46300Y229998D01*
Y228999D01*
X45800Y228499D01*
X45300D01*
X44800Y228999D01*
X44301Y228499D01*
X43801D01*
X44800Y228999D02*
Y229998D01*
X297001Y130000D02*
X300000D01*
Y131500D01*
X299500Y131999D01*
X297501D01*
X297001Y131500D01*
Y130000D01*
X300000Y132999D02*
Y133999D01*
Y133499D01*
X297001D01*
X297501Y132999D01*
X290300Y84400D02*
X288179Y86521D01*
X289240Y87581D01*
X289947Y87581D01*
X290653Y86874D01*
X290653Y86167D01*
X289593Y85107D01*
X290300Y85814D02*
X291714Y85814D01*
X290653Y88288D02*
Y88995D01*
X291360Y89702D01*
X292067Y89702D01*
X292421Y89348D01*
Y88641D01*
X293127Y88641D01*
X293481Y88288D01*
X293481Y87581D01*
X292774Y86874D01*
X292067D01*
X291714Y87227D01*
Y87934D01*
X291007Y87934D01*
X290653Y88288D01*
X291714Y87934D02*
X292421Y88641D01*
X-2001Y219001D02*
X-1501Y219500D01*
Y220500D01*
X-2001Y221000D01*
X-4000D01*
X-4500Y220500D01*
Y219500D01*
X-4000Y219001D01*
X-3001D01*
Y220000D01*
X-4500Y218001D02*
X-1501D01*
X-4500Y216002D01*
X-1501D01*
Y215002D02*
X-4500D01*
Y213502D01*
X-4000Y213003D01*
X-2001D01*
X-1501Y213502D01*
Y215002D01*
Y207000D02*
X-3500D01*
X-4500Y206000D01*
X-3500Y205001D01*
X-1501D01*
Y204001D02*
Y203001D01*
Y203501D01*
X-4500D01*
Y204001D01*
Y203001D01*
Y201502D02*
X-1501D01*
X-4500Y199502D01*
X-1501D01*
X55000Y68561D02*
Y66562D01*
X59100Y81861D02*
Y80362D01*
X59600Y79862D01*
X60100Y80362D01*
Y81361D01*
X60599Y81861D01*
X61099Y81361D01*
Y79862D01*
X59100Y77363D02*
Y78362D01*
X59600Y78862D01*
X60599D01*
X61099Y78362D01*
Y77363D01*
X60599Y76863D01*
X60100D01*
Y78862D01*
X59100Y75863D02*
Y74863D01*
Y75363D01*
X62099D01*
Y75863D01*
X59100Y81861D02*
Y80362D01*
X59600Y79862D01*
X60100Y80362D01*
Y81361D01*
X60599Y81861D01*
X61099Y81361D01*
Y79862D01*
X59100Y77363D02*
Y78362D01*
X59600Y78862D01*
X60599D01*
X61099Y78362D01*
Y77363D01*
X60599Y76863D01*
X60100D01*
Y78862D01*
X59100Y75863D02*
Y74863D01*
Y75363D01*
X62099D01*
Y75863D01*
X74539Y41100D02*
X76538D01*
X149739Y216100D02*
X151738D01*
X139239D02*
X141238D01*
X152539Y221600D02*
Y223599D01*
X153539Y224599D01*
X154538Y223599D01*
Y221600D01*
Y223099D01*
X152539D01*
X155538Y221600D02*
Y224599D01*
X157537Y221600D01*
Y224599D01*
X160536Y221600D02*
X158537D01*
X160536Y223599D01*
Y224099D01*
X160037Y224599D01*
X159037D01*
X158537Y224099D01*
X138839Y33700D02*
Y35699D01*
X139839Y36699D01*
X140838Y35699D01*
Y33700D01*
Y35199D01*
X138839D01*
X141838Y33700D02*
Y36699D01*
X143837Y33700D01*
Y36699D01*
X144837Y33700D02*
X145837D01*
X145337D01*
Y36699D01*
X144837Y36199D01*
X93839Y229000D02*
Y230999D01*
X94839Y231999D01*
X95838Y230999D01*
Y229000D01*
Y230500D01*
X93839D01*
X96838Y229000D02*
Y231999D01*
X98837Y229000D01*
Y231999D01*
X99837Y231499D02*
X100337Y231999D01*
X101337D01*
X101836Y231499D01*
Y229500D01*
X101337Y229000D01*
X100337D01*
X99837Y229500D01*
Y231499D01*
D60*
X283750Y4550D02*
X280551D01*
Y6149D01*
X281084Y6683D01*
X282151D01*
X282684Y6149D01*
Y4550D01*
X280551Y7749D02*
X283750D01*
Y9348D01*
X283217Y9882D01*
X282684D01*
X282151Y9348D01*
Y7749D01*
Y9348D01*
X281617Y9882D01*
X281084D01*
X280551Y9348D01*
Y7749D01*
X283750Y12547D02*
X280551D01*
X282151Y10948D01*
Y13081D01*
X238917Y4550D02*
X235718D01*
Y6149D01*
X236251Y6683D01*
X237317D01*
X237850Y6149D01*
Y4550D01*
X235718Y7749D02*
X238917D01*
Y9348D01*
X238384Y9882D01*
X237850D01*
X237317Y9348D01*
Y7749D01*
Y9348D01*
X236784Y9882D01*
X236251D01*
X235718Y9348D01*
Y7749D01*
X236251Y10948D02*
X235718Y11481D01*
Y12547D01*
X236251Y13081D01*
X236784D01*
X237317Y12547D01*
Y12014D01*
Y12547D01*
X237850Y13081D01*
X238384D01*
X238917Y12547D01*
Y11481D01*
X238384Y10948D01*
X194083Y4550D02*
X190884D01*
Y6149D01*
X191418Y6683D01*
X192484D01*
X193017Y6149D01*
Y4550D01*
X190884Y7749D02*
X194083D01*
Y9348D01*
X193550Y9882D01*
X193017D01*
X192484Y9348D01*
Y7749D01*
Y9348D01*
X191951Y9882D01*
X191418D01*
X190884Y9348D01*
Y7749D01*
X194083Y13081D02*
Y10948D01*
X191951Y13081D01*
X191418D01*
X190884Y12547D01*
Y11481D01*
X191418Y10948D01*
X149250Y4550D02*
X146051D01*
Y6149D01*
X146584Y6683D01*
X147651D01*
X148184Y6149D01*
Y4550D01*
X146051Y7749D02*
X149250D01*
Y9348D01*
X148717Y9882D01*
X148184D01*
X147651Y9348D01*
Y7749D01*
Y9348D01*
X147117Y9882D01*
X146584D01*
X146051Y9348D01*
Y7749D01*
X149250Y10948D02*
Y12014D01*
Y11481D01*
X146051D01*
X146584Y10948D01*
X63800Y176900D02*
Y180099D01*
X65399D01*
X65933Y179566D01*
Y178499D01*
X65399Y177966D01*
X63800D01*
X66999Y180099D02*
Y176900D01*
X68599D01*
X69132Y177433D01*
Y177966D01*
X68599Y178499D01*
X66999D01*
X68599D01*
X69132Y179033D01*
Y179566D01*
X68599Y180099D01*
X66999D01*
X72331D02*
X71264Y179566D01*
X70198Y178499D01*
Y177433D01*
X70731Y176900D01*
X71797D01*
X72331Y177433D01*
Y177966D01*
X71797Y178499D01*
X70198D01*
X56800Y154500D02*
Y151301D01*
X55200D01*
X54667Y151834D01*
Y152901D01*
X55200Y153434D01*
X56800D01*
X53601Y151301D02*
Y154500D01*
X52002D01*
X51468Y153967D01*
Y153434D01*
X52002Y152901D01*
X53601D01*
X52002D01*
X51468Y152367D01*
Y151834D01*
X52002Y151301D01*
X53601D01*
X48269D02*
X50402D01*
Y152901D01*
X49336Y152367D01*
X48803D01*
X48269Y152901D01*
Y153967D01*
X48803Y154500D01*
X49869D01*
X50402Y153967D01*
X36200Y91199D02*
Y88533D01*
X36733Y88000D01*
X37800D01*
X38333Y88533D01*
Y91199D01*
X40999Y88000D02*
Y91199D01*
X39399Y89600D01*
X41532D01*
X198500Y12000D02*
X195301D01*
Y13600D01*
X195834Y14133D01*
X196900D01*
X197434Y13600D01*
Y12000D01*
Y13066D02*
X198500Y14133D01*
Y15199D02*
Y16265D01*
Y15732D01*
X195301D01*
X195834Y15199D01*
X195301Y19997D02*
X195834Y18931D01*
X196900Y17865D01*
X197967D01*
X198500Y18398D01*
Y19464D01*
X197967Y19997D01*
X197434D01*
X196900Y19464D01*
Y17865D01*
X153500Y12000D02*
X150301D01*
Y13600D01*
X150834Y14133D01*
X151900D01*
X152434Y13600D01*
Y12000D01*
Y13066D02*
X153500Y14133D01*
Y15199D02*
Y16265D01*
Y15732D01*
X150301D01*
X150834Y15199D01*
X150301Y19997D02*
Y17865D01*
X151900D01*
X151367Y18931D01*
Y19464D01*
X151900Y19997D01*
X152967D01*
X153500Y19464D01*
Y18398D01*
X152967Y17865D01*
X23000Y68500D02*
X26199D01*
Y66900D01*
X25666Y66367D01*
X24600D01*
X24066Y66900D01*
Y68500D01*
Y67434D02*
X23000Y66367D01*
Y65301D02*
Y64235D01*
Y64768D01*
X26199D01*
X25666Y65301D01*
Y62635D02*
X26199Y62102D01*
Y61036D01*
X25666Y60503D01*
X23533D01*
X23000Y61036D01*
Y62102D01*
X23533Y62635D01*
X25666D01*
X26000Y72000D02*
X22801D01*
Y73599D01*
X23334Y74133D01*
X24400D01*
X24934Y73599D01*
Y72000D01*
Y73066D02*
X26000Y74133D01*
X25467Y75199D02*
X26000Y75732D01*
Y76798D01*
X25467Y77332D01*
X23334D01*
X22801Y76798D01*
Y75732D01*
X23334Y75199D01*
X23867D01*
X24400Y75732D01*
Y77332D01*
X-11867Y81199D02*
X-12934D01*
X-12400D01*
Y78533D01*
X-12934Y78000D01*
X-13467D01*
X-14000Y78533D01*
X-10801Y78000D02*
X-9735D01*
X-10268D01*
Y81199D01*
X-10801Y80666D01*
X-8135D02*
X-7602Y81199D01*
X-6536D01*
X-6003Y80666D01*
Y78533D01*
X-6536Y78000D01*
X-7602D01*
X-8135Y78533D01*
Y80666D01*
X46199Y84000D02*
X43000D01*
Y82401D01*
X43533Y81867D01*
X45666D01*
X46199Y82401D01*
Y84000D01*
Y78668D02*
Y80801D01*
X44600D01*
X45133Y79735D01*
Y79202D01*
X44600Y78668D01*
X43533D01*
X43000Y79202D01*
Y80268D01*
X43533Y80801D01*
X68934Y69933D02*
X68401Y69399D01*
Y68333D01*
X68934Y67800D01*
X71067D01*
X71600Y68333D01*
Y69399D01*
X71067Y69933D01*
X68401Y73132D02*
X68934Y72065D01*
X70000Y70999D01*
X71067D01*
X71600Y71532D01*
Y72598D01*
X71067Y73132D01*
X70534D01*
X70000Y72598D01*
Y70999D01*
X71600Y76331D02*
Y74198D01*
X69467Y76331D01*
X68934D01*
X68401Y75797D01*
Y74731D01*
X68934Y74198D01*
X53834Y70933D02*
X53301Y70399D01*
Y69333D01*
X53834Y68800D01*
X55967D01*
X56500Y69333D01*
Y70399D01*
X55967Y70933D01*
X53301Y74132D02*
X53834Y73065D01*
X54900Y71999D01*
X55967D01*
X56500Y72532D01*
Y73598D01*
X55967Y74132D01*
X55434D01*
X54900Y73598D01*
Y71999D01*
X56500Y75198D02*
Y76264D01*
Y75731D01*
X53301D01*
X53834Y75198D01*
X263233Y287699D02*
X262166D01*
X262700D01*
Y285033D01*
X262166Y284500D01*
X261633D01*
X261100Y285033D01*
X264299Y287166D02*
X264832Y287699D01*
X265898D01*
X266432Y287166D01*
Y286633D01*
X265898Y286100D01*
X266432Y285566D01*
Y285033D01*
X265898Y284500D01*
X264832D01*
X264299Y285033D01*
Y285566D01*
X264832Y286100D01*
X264299Y286633D01*
Y287166D01*
X264832Y286100D02*
X265898D01*
X173233Y287699D02*
X172166D01*
X172699D01*
Y285033D01*
X172166Y284500D01*
X171633D01*
X171100Y285033D01*
X174299Y284500D02*
X175365D01*
X174832D01*
Y287699D01*
X174299Y287166D01*
X176965D02*
X177498Y287699D01*
X178564D01*
X179097Y287166D01*
Y286633D01*
X178564Y286100D01*
X178031D01*
X178564D01*
X179097Y285566D01*
Y285033D01*
X178564Y284500D01*
X177498D01*
X176965Y285033D01*
X-6767Y287699D02*
X-7834D01*
X-7300D01*
Y285033D01*
X-7834Y284500D01*
X-8367D01*
X-8900Y285033D01*
X-5701Y284500D02*
X-4635D01*
X-5168D01*
Y287699D01*
X-5701Y287166D01*
X-903Y284500D02*
X-3035D01*
X-903Y286633D01*
Y287166D01*
X-1436Y287699D01*
X-2502D01*
X-3035Y287166D01*
X83233Y287699D02*
X82166D01*
X82700D01*
Y285033D01*
X82166Y284500D01*
X81633D01*
X81100Y285033D01*
X84299D02*
X84832Y284500D01*
X85899D01*
X86432Y285033D01*
Y287166D01*
X85899Y287699D01*
X84832D01*
X84299Y287166D01*
Y286633D01*
X84832Y286100D01*
X86432D01*
X48000Y177500D02*
Y174301D01*
X46400D01*
X45867Y174834D01*
Y175900D01*
X46400Y176434D01*
X48000D01*
X46934D02*
X45867Y177500D01*
X42668Y174301D02*
X44801D01*
Y175900D01*
X43735Y175367D01*
X43202D01*
X42668Y175900D01*
Y176967D01*
X43202Y177500D01*
X44268D01*
X44801Y176967D01*
X41602Y174834D02*
X41069Y174301D01*
X40003D01*
X39469Y174834D01*
Y175367D01*
X40003Y175900D01*
X39469Y176434D01*
Y176967D01*
X40003Y177500D01*
X41069D01*
X41602Y176967D01*
Y176434D01*
X41069Y175900D01*
X41602Y175367D01*
Y174834D01*
X41069Y175900D02*
X40003D01*
X147000Y56200D02*
Y59399D01*
X148600D01*
X149133Y58866D01*
Y57800D01*
X148600Y57266D01*
X147000D01*
X148066D02*
X149133Y56200D01*
X152332Y59399D02*
X150199D01*
Y57800D01*
X151265Y58333D01*
X151798D01*
X152332Y57800D01*
Y56733D01*
X151798Y56200D01*
X150732D01*
X150199Y56733D01*
X153398Y59399D02*
X155531D01*
Y58866D01*
X153398Y56733D01*
Y56200D01*
X151029Y67700D02*
Y70899D01*
X152628D01*
X153161Y70366D01*
Y69300D01*
X152628Y68766D01*
X151029D01*
X152095D02*
X153161Y67700D01*
X155827D02*
Y70899D01*
X154227Y69300D01*
X156360D01*
X159559Y70899D02*
X158493Y70366D01*
X157427Y69300D01*
Y68233D01*
X157960Y67700D01*
X159026D01*
X159559Y68233D01*
Y68766D01*
X159026Y69300D01*
X157427D01*
X146543Y67700D02*
Y70899D01*
X148142D01*
X148676Y70366D01*
Y69300D01*
X148142Y68766D01*
X146543D01*
X147609D02*
X148676Y67700D01*
X151341D02*
Y70899D01*
X149742Y69300D01*
X151874D01*
X155073Y70899D02*
X152941D01*
Y69300D01*
X154007Y69833D01*
X154540D01*
X155073Y69300D01*
Y68233D01*
X154540Y67700D01*
X153474D01*
X152941Y68233D01*
X107057Y68700D02*
Y71899D01*
X108657D01*
X109190Y71366D01*
Y70300D01*
X108657Y69766D01*
X107057D01*
X108124D02*
X109190Y68700D01*
X111856D02*
Y71899D01*
X110256Y70300D01*
X112389D01*
X115055Y68700D02*
Y71899D01*
X113455Y70300D01*
X115588D01*
X102571Y68700D02*
Y71899D01*
X104171D01*
X104704Y71366D01*
Y70300D01*
X104171Y69766D01*
X102571D01*
X103638D02*
X104704Y68700D01*
X107370D02*
Y71899D01*
X105770Y70300D01*
X107903D01*
X108969Y71366D02*
X109502Y71899D01*
X110569D01*
X111102Y71366D01*
Y70833D01*
X110569Y70300D01*
X110036D01*
X110569D01*
X111102Y69766D01*
Y69233D01*
X110569Y68700D01*
X109502D01*
X108969Y69233D01*
X102500Y58200D02*
Y61399D01*
X104100D01*
X104633Y60866D01*
Y59799D01*
X104100Y59266D01*
X102500D01*
X103566D02*
X104633Y58200D01*
X105699D02*
X106765D01*
X106232D01*
Y61399D01*
X105699Y60866D01*
X108365D02*
X108898Y61399D01*
X109964D01*
X110497Y60866D01*
Y60333D01*
X109964Y59799D01*
X110497Y59266D01*
Y58733D01*
X109964Y58200D01*
X108898D01*
X108365Y58733D01*
Y59266D01*
X108898Y59799D01*
X108365Y60333D01*
Y60866D01*
X108898Y59799D02*
X109964D01*
X151500Y56200D02*
Y59399D01*
X153100D01*
X153633Y58866D01*
Y57800D01*
X153100Y57266D01*
X151500D01*
X152566D02*
X153633Y56200D01*
X154699D02*
X155765D01*
X155232D01*
Y59399D01*
X154699Y58866D01*
X157365Y59399D02*
X159497D01*
Y58866D01*
X157365Y56733D01*
Y56200D01*
X150400Y226199D02*
Y223533D01*
X150933Y223000D01*
X151999D01*
X152533Y223533D01*
Y226199D01*
X155732D02*
X153599D01*
Y224600D01*
X154665Y225133D01*
X155199D01*
X155732Y224600D01*
Y223533D01*
X155199Y223000D01*
X154132D01*
X153599Y223533D01*
X271900Y228199D02*
Y225533D01*
X272433Y225000D01*
X273499D01*
X274033Y225533D01*
Y228199D01*
X277232D02*
X276165Y227666D01*
X275099Y226600D01*
Y225533D01*
X275632Y225000D01*
X276698D01*
X277232Y225533D01*
Y226066D01*
X276698Y226600D01*
X275099D01*
X94000Y236100D02*
Y239299D01*
X95600D01*
X96133Y238766D01*
Y237700D01*
X95600Y237166D01*
X94000D01*
X97199Y236100D02*
X98265D01*
X97732D01*
Y239299D01*
X97199Y238766D01*
X4433Y237299D02*
X3366D01*
X3900D01*
Y234633D01*
X3366Y234100D01*
X2833D01*
X2300Y234633D01*
X7632Y237299D02*
X6565Y236766D01*
X5499Y235700D01*
Y234633D01*
X6032Y234100D01*
X7098D01*
X7632Y234633D01*
Y235166D01*
X7098Y235700D01*
X5499D01*
X68800Y238799D02*
Y236133D01*
X69333Y235600D01*
X70399D01*
X70933Y236133D01*
Y238799D01*
X71999Y238266D02*
X72532Y238799D01*
X73598D01*
X74132Y238266D01*
Y237733D01*
X73598Y237199D01*
X73065D01*
X73598D01*
X74132Y236666D01*
Y236133D01*
X73598Y235600D01*
X72532D01*
X71999Y236133D01*
X59033Y205266D02*
X58499Y205799D01*
X57433D01*
X56900Y205266D01*
Y203133D01*
X57433Y202600D01*
X58499D01*
X59033Y203133D01*
X60099Y205266D02*
X60632Y205799D01*
X61699D01*
X62232Y205266D01*
Y204733D01*
X61699Y204200D01*
X61165D01*
X61699D01*
X62232Y203666D01*
Y203133D01*
X61699Y202600D01*
X60632D01*
X60099Y203133D01*
X65431Y205799D02*
X64364Y205266D01*
X63298Y204200D01*
Y203133D01*
X63831Y202600D01*
X64897D01*
X65431Y203133D01*
Y203666D01*
X64897Y204200D01*
X63298D01*
X33500Y234899D02*
Y231700D01*
X35100D01*
X35633Y232233D01*
Y234366D01*
X35100Y234899D01*
X33500D01*
X36699Y234366D02*
X37232Y234899D01*
X38298D01*
X38832Y234366D01*
Y233833D01*
X38298Y233299D01*
X37765D01*
X38298D01*
X38832Y232766D01*
Y232233D01*
X38298Y231700D01*
X37232D01*
X36699Y232233D01*
X189900Y61199D02*
Y58000D01*
X191499D01*
X192033Y58533D01*
Y60666D01*
X191499Y61199D01*
X189900D01*
X195232Y58000D02*
X193099D01*
X195232Y60133D01*
Y60666D01*
X194699Y61199D01*
X193632D01*
X193099Y60666D01*
X147333Y171266D02*
X146800Y171799D01*
X145733D01*
X145200Y171266D01*
Y169133D01*
X145733Y168600D01*
X146800D01*
X147333Y169133D01*
X148399Y171266D02*
X148932Y171799D01*
X149998D01*
X150532Y171266D01*
Y170733D01*
X149998Y170200D01*
X149465D01*
X149998D01*
X150532Y169666D01*
Y169133D01*
X149998Y168600D01*
X148932D01*
X148399Y169133D01*
X151598Y171266D02*
X152131Y171799D01*
X153197D01*
X153731Y171266D01*
Y169133D01*
X153197Y168600D01*
X152131D01*
X151598Y169133D01*
Y171266D01*
X150833Y167766D02*
X150300Y168299D01*
X149233D01*
X148700Y167766D01*
Y165633D01*
X149233Y165100D01*
X150300D01*
X150833Y165633D01*
X151899Y167766D02*
X152432Y168299D01*
X153498D01*
X154032Y167766D01*
Y167233D01*
X153498Y166700D01*
X152965D01*
X153498D01*
X154032Y166166D01*
Y165633D01*
X153498Y165100D01*
X152432D01*
X151899Y165633D01*
X155098Y165100D02*
X156164D01*
X155631D01*
Y168299D01*
X155098Y167766D01*
X110333Y184866D02*
X109800Y185399D01*
X108733D01*
X108200Y184866D01*
Y182733D01*
X108733Y182200D01*
X109800D01*
X110333Y182733D01*
X113532Y185399D02*
X112465Y184866D01*
X111399Y183800D01*
Y182733D01*
X111932Y182200D01*
X112998D01*
X113532Y182733D01*
Y183266D01*
X112998Y183800D01*
X111399D01*
X114598Y184866D02*
X115131Y185399D01*
X116197D01*
X116731Y184866D01*
Y184333D01*
X116197Y183800D01*
X115664D01*
X116197D01*
X116731Y183266D01*
Y182733D01*
X116197Y182200D01*
X115131D01*
X114598Y182733D01*
X103133Y190966D02*
X102600Y191499D01*
X101533D01*
X101000Y190966D01*
Y188833D01*
X101533Y188300D01*
X102600D01*
X103133Y188833D01*
X106332Y191499D02*
X105265Y190966D01*
X104199Y189900D01*
Y188833D01*
X104732Y188300D01*
X105798D01*
X106332Y188833D01*
Y189366D01*
X105798Y189900D01*
X104199D01*
X108997Y188300D02*
Y191499D01*
X107398Y189900D01*
X109531D01*
X63699Y190500D02*
X60500D01*
Y188900D01*
X61033Y188367D01*
X63166D01*
X63699Y188900D01*
Y190500D01*
X63166Y187301D02*
X63699Y186768D01*
Y185702D01*
X63166Y185168D01*
X62633D01*
X62099Y185702D01*
X61566Y185168D01*
X61033D01*
X60500Y185702D01*
Y186768D01*
X61033Y187301D01*
X61566D01*
X62099Y186768D01*
X62633Y187301D01*
X63166D01*
X62099Y186768D02*
Y185702D01*
X42433Y128399D02*
X41366D01*
X41899D01*
Y125733D01*
X41366Y125200D01*
X40833D01*
X40300Y125733D01*
X45099Y125200D02*
Y128399D01*
X43499Y126799D01*
X45632D01*
X73533Y194367D02*
X75666D01*
X76199Y194901D01*
Y195967D01*
X75666Y196500D01*
X73533D01*
X73000Y195967D01*
Y194901D01*
X74066Y195434D02*
X73000Y194367D01*
Y194901D02*
X73533Y194367D01*
X73000Y193301D02*
Y192235D01*
Y192768D01*
X76199D01*
X75666Y193301D01*
X83600Y179200D02*
Y182399D01*
X85199D01*
X85733Y181866D01*
Y180799D01*
X85199Y180266D01*
X83600D01*
X84666D02*
X85733Y179200D01*
X88932D02*
X86799D01*
X88932Y181333D01*
Y181866D01*
X88398Y182399D01*
X87332D01*
X86799Y181866D01*
X92131Y182399D02*
X91064Y181866D01*
X89998Y180799D01*
Y179733D01*
X90531Y179200D01*
X91597D01*
X92131Y179733D01*
Y180266D01*
X91597Y180799D01*
X89998D01*
X101200Y138600D02*
Y141799D01*
X102799D01*
X103333Y141266D01*
Y140199D01*
X102799Y139666D01*
X101200D01*
X102266D02*
X103333Y138600D01*
X106532D02*
X104399D01*
X106532Y140733D01*
Y141266D01*
X105999Y141799D01*
X104932D01*
X104399Y141266D01*
X107598Y141799D02*
X109731D01*
Y141266D01*
X107598Y139133D01*
Y138600D01*
X29500Y185700D02*
Y188899D01*
X31100D01*
X31633Y188366D01*
Y187300D01*
X31100Y186766D01*
X29500D01*
X30566D02*
X31633Y185700D01*
X34832D02*
X32699D01*
X34832Y187833D01*
Y188366D01*
X34299Y188899D01*
X33232D01*
X32699Y188366D01*
X35898D02*
X36431Y188899D01*
X37497D01*
X38031Y188366D01*
Y187833D01*
X37497Y187300D01*
X38031Y186766D01*
Y186233D01*
X37497Y185700D01*
X36431D01*
X35898Y186233D01*
Y186766D01*
X36431Y187300D01*
X35898Y187833D01*
Y188366D01*
X36431Y187300D02*
X37497D01*
X30000Y173700D02*
Y176899D01*
X31600D01*
X32133Y176366D01*
Y175300D01*
X31600Y174766D01*
X30000D01*
X31066D02*
X32133Y173700D01*
X35332D02*
X33199D01*
X35332Y175833D01*
Y176366D01*
X34798Y176899D01*
X33732D01*
X33199Y176366D01*
X36398Y174233D02*
X36931Y173700D01*
X37997D01*
X38531Y174233D01*
Y176366D01*
X37997Y176899D01*
X36931D01*
X36398Y176366D01*
Y175833D01*
X36931Y175300D01*
X38531D01*
X50900Y185600D02*
Y188799D01*
X52500D01*
X53033Y188266D01*
Y187199D01*
X52500Y186666D01*
X50900D01*
X51966D02*
X53033Y185600D01*
X54099Y188266D02*
X54632Y188799D01*
X55699D01*
X56232Y188266D01*
Y187733D01*
X55699Y187199D01*
X55165D01*
X55699D01*
X56232Y186666D01*
Y186133D01*
X55699Y185600D01*
X54632D01*
X54099Y186133D01*
X57298Y188266D02*
X57831Y188799D01*
X58897D01*
X59431Y188266D01*
Y186133D01*
X58897Y185600D01*
X57831D01*
X57298Y186133D01*
Y188266D01*
X70500Y181000D02*
X67301D01*
Y182599D01*
X67834Y183133D01*
X68901D01*
X69434Y182599D01*
Y181000D01*
Y182066D02*
X70500Y183133D01*
X67834Y184199D02*
X67301Y184732D01*
Y185799D01*
X67834Y186332D01*
X68367D01*
X68901Y185799D01*
Y185265D01*
Y185799D01*
X69434Y186332D01*
X69967D01*
X70500Y185799D01*
Y184732D01*
X69967Y184199D01*
X70500Y187398D02*
Y188464D01*
Y187931D01*
X67301D01*
X67834Y187398D01*
X107086Y58200D02*
Y61399D01*
X108685D01*
X109218Y60866D01*
Y59799D01*
X108685Y59266D01*
X107086D01*
X108152D02*
X109218Y58200D01*
X110285Y60866D02*
X110818Y61399D01*
X111884D01*
X112417Y60866D01*
Y60333D01*
X111884Y59799D01*
X111351D01*
X111884D01*
X112417Y59266D01*
Y58733D01*
X111884Y58200D01*
X110818D01*
X110285Y58733D01*
X115616Y58200D02*
X113484D01*
X115616Y60333D01*
Y60866D01*
X115083Y61399D01*
X114017D01*
X113484Y60866D01*
X104701Y137800D02*
X107367D01*
X107900Y138333D01*
Y139400D01*
X107367Y139933D01*
X104701D01*
X107900Y140999D02*
Y142065D01*
Y141532D01*
X104701D01*
X105234Y140999D01*
Y143665D02*
X104701Y144198D01*
Y145264D01*
X105234Y145797D01*
X107367D01*
X107900Y145264D01*
Y144198D01*
X107367Y143665D01*
X105234D01*
X97200Y183899D02*
Y181233D01*
X97733Y180700D01*
X98800D01*
X99333Y181233D01*
Y183899D01*
X100399Y180700D02*
X101465D01*
X100932D01*
Y183899D01*
X100399Y183366D01*
X103065Y180700D02*
X104131D01*
X103598D01*
Y183899D01*
X103065Y183366D01*
X86867Y84834D02*
X87401Y84301D01*
X88467D01*
X89000Y84834D01*
Y86967D01*
X88467Y87500D01*
X87401D01*
X86867Y86967D01*
X85801Y84834D02*
X85268Y84301D01*
X84202D01*
X83668Y84834D01*
Y85367D01*
X84202Y85900D01*
X84735D01*
X84202D01*
X83668Y86434D01*
Y86967D01*
X84202Y87500D01*
X85268D01*
X85801Y86967D01*
X82602D02*
X82069Y87500D01*
X81003D01*
X80469Y86967D01*
Y84834D01*
X81003Y84301D01*
X82069D01*
X82602Y84834D01*
Y85367D01*
X82069Y85900D01*
X80469D01*
X84400Y156400D02*
Y159599D01*
X86000D01*
X86533Y159066D01*
Y158000D01*
X86000Y157466D01*
X84400D01*
X85466D02*
X86533Y156400D01*
X89732D02*
X87599D01*
X89732Y158533D01*
Y159066D01*
X89198Y159599D01*
X88132D01*
X87599Y159066D01*
X90798Y156400D02*
X91864D01*
X91331D01*
Y159599D01*
X90798Y159066D01*
X333Y194699D02*
X-734D01*
X-200D01*
Y192033D01*
X-734Y191500D01*
X-1267D01*
X-1800Y192033D01*
X1399Y191500D02*
X2465D01*
X1932D01*
Y194699D01*
X1399Y194166D01*
X311233Y132499D02*
X310166D01*
X310700D01*
Y129833D01*
X310166Y129300D01*
X309633D01*
X309100Y129833D01*
X314432Y129300D02*
X312299D01*
X314432Y131433D01*
Y131966D01*
X313898Y132499D01*
X312832D01*
X312299Y131966D01*
X311233Y239999D02*
X310166D01*
X310700D01*
Y237333D01*
X310166Y236800D01*
X309633D01*
X309100Y237333D01*
X314432Y239999D02*
X312299D01*
Y238400D01*
X313365Y238933D01*
X313898D01*
X314432Y238400D01*
Y237333D01*
X313898Y236800D01*
X312832D01*
X312299Y237333D01*
X242000Y13000D02*
X238801D01*
Y14600D01*
X239334Y15133D01*
X240401D01*
X240934Y14600D01*
Y13000D01*
Y14066D02*
X242000Y15133D01*
Y16199D02*
Y17265D01*
Y16732D01*
X238801D01*
X239334Y16199D01*
X242000Y18865D02*
Y19931D01*
Y19398D01*
X238801D01*
X239334Y18865D01*
X286500Y12000D02*
X283301D01*
Y13600D01*
X283834Y14133D01*
X284900D01*
X285434Y13600D01*
Y12000D01*
Y13066D02*
X286500Y14133D01*
Y15199D02*
Y16265D01*
Y15732D01*
X283301D01*
X283834Y15199D01*
X286500Y19997D02*
Y17865D01*
X284367Y19997D01*
X283834D01*
X283301Y19464D01*
Y18398D01*
X283834Y17865D01*
X49500Y59700D02*
Y62899D01*
X51099D01*
X51633Y62366D01*
Y61300D01*
X51099Y60766D01*
X49500D01*
X50566D02*
X51633Y59700D01*
X52699Y62366D02*
X53232Y62899D01*
X54299D01*
X54832Y62366D01*
Y61833D01*
X54299Y61300D01*
X53765D01*
X54299D01*
X54832Y60766D01*
Y60233D01*
X54299Y59700D01*
X53232D01*
X52699Y60233D01*
X55898Y62366D02*
X56431Y62899D01*
X57497D01*
X58031Y62366D01*
Y61833D01*
X57497Y61300D01*
X56964D01*
X57497D01*
X58031Y60766D01*
Y60233D01*
X57497Y59700D01*
X56431D01*
X55898Y60233D01*
X55500Y59700D02*
Y62899D01*
X57099D01*
X57633Y62366D01*
Y61300D01*
X57099Y60766D01*
X55500D01*
X56566D02*
X57633Y59700D01*
X58699Y62366D02*
X59232Y62899D01*
X60299D01*
X60832Y62366D01*
Y61833D01*
X60299Y61300D01*
X59765D01*
X60299D01*
X60832Y60766D01*
Y60233D01*
X60299Y59700D01*
X59232D01*
X58699Y60233D01*
X63497Y59700D02*
Y62899D01*
X61898Y61300D01*
X64031D01*
X61500Y59700D02*
Y62899D01*
X63099D01*
X63633Y62366D01*
Y61300D01*
X63099Y60766D01*
X61500D01*
X62566D02*
X63633Y59700D01*
X64699Y62366D02*
X65232Y62899D01*
X66299D01*
X66832Y62366D01*
Y61833D01*
X66299Y61300D01*
X65765D01*
X66299D01*
X66832Y60766D01*
Y60233D01*
X66299Y59700D01*
X65232D01*
X64699Y60233D01*
X70031Y62899D02*
X67898D01*
Y61300D01*
X68964Y61833D01*
X69497D01*
X70031Y61300D01*
Y60233D01*
X69497Y59700D01*
X68431D01*
X67898Y60233D01*
X67500Y59700D02*
Y62899D01*
X69099D01*
X69633Y62366D01*
Y61300D01*
X69099Y60766D01*
X67500D01*
X68566D02*
X69633Y59700D01*
X70699Y62366D02*
X71232Y62899D01*
X72299D01*
X72832Y62366D01*
Y61833D01*
X72299Y61300D01*
X71765D01*
X72299D01*
X72832Y60766D01*
Y60233D01*
X72299Y59700D01*
X71232D01*
X70699Y60233D01*
X76031Y62899D02*
X74964Y62366D01*
X73898Y61300D01*
Y60233D01*
X74431Y59700D01*
X75497D01*
X76031Y60233D01*
Y60766D01*
X75497Y61300D01*
X73898D01*
X73500Y59700D02*
Y62899D01*
X75099D01*
X75633Y62366D01*
Y61300D01*
X75099Y60766D01*
X73500D01*
X74566D02*
X75633Y59700D01*
X76699Y62366D02*
X77232Y62899D01*
X78298D01*
X78832Y62366D01*
Y61833D01*
X78298Y61300D01*
X77765D01*
X78298D01*
X78832Y60766D01*
Y60233D01*
X78298Y59700D01*
X77232D01*
X76699Y60233D01*
X79898Y62899D02*
X82031D01*
Y62366D01*
X79898Y60233D01*
Y59700D01*
X3533Y50566D02*
X2999Y51099D01*
X1933D01*
X1400Y50566D01*
Y50033D01*
X1933Y49499D01*
X2999D01*
X3533Y48966D01*
Y48433D01*
X2999Y47900D01*
X1933D01*
X1400Y48433D01*
X4599Y51099D02*
Y47900D01*
X5665Y48966D01*
X6732Y47900D01*
Y51099D01*
X7798Y47900D02*
X8864D01*
X8331D01*
Y51099D01*
X7798Y50566D01*
X113743Y13299D02*
Y10100D01*
X115342D01*
X115875Y10633D01*
Y12766D01*
X115342Y13299D01*
X113743D01*
X119074Y12766D02*
X118541Y13299D01*
X117475D01*
X116942Y12766D01*
Y10633D01*
X117475Y10100D01*
X118541D01*
X119074Y10633D01*
X120141Y12766D02*
X120674Y13299D01*
X121740D01*
X122273Y12766D01*
Y12233D01*
X121740Y11699D01*
X122273Y11166D01*
Y10633D01*
X121740Y10100D01*
X120674D01*
X120141Y10633D01*
Y11166D01*
X120674Y11699D01*
X120141Y12233D01*
Y12766D01*
X120674Y11699D02*
X121740D01*
X107557Y13299D02*
Y10100D01*
X109157D01*
X109690Y10633D01*
Y12766D01*
X109157Y13299D01*
X107557D01*
X112889Y12766D02*
X112356Y13299D01*
X111289D01*
X110756Y12766D01*
Y10633D01*
X111289Y10100D01*
X112356D01*
X112889Y10633D01*
X113955D02*
X114488Y10100D01*
X115554D01*
X116088Y10633D01*
Y12766D01*
X115554Y13299D01*
X114488D01*
X113955Y12766D01*
Y12233D01*
X114488Y11699D01*
X116088D01*
X98000Y21799D02*
Y18600D01*
X99599D01*
X100133Y19133D01*
Y21266D01*
X99599Y21799D01*
X98000D01*
X103332Y21266D02*
X102798Y21799D01*
X101732D01*
X101199Y21266D01*
Y19133D01*
X101732Y18600D01*
X102798D01*
X103332Y19133D01*
X104398Y18600D02*
X105464D01*
X104931D01*
Y21799D01*
X104398Y21266D01*
X107064D02*
X107597Y21799D01*
X108663D01*
X109196Y21266D01*
Y19133D01*
X108663Y18600D01*
X107597D01*
X107064Y19133D01*
Y21266D01*
X101371Y13299D02*
Y10100D01*
X102971D01*
X103504Y10633D01*
Y12766D01*
X102971Y13299D01*
X101371D01*
X106703Y12766D02*
X106170Y13299D01*
X105104D01*
X104570Y12766D01*
Y10633D01*
X105104Y10100D01*
X106170D01*
X106703Y10633D01*
X107769Y10100D02*
X108836D01*
X108302D01*
Y13299D01*
X107769Y12766D01*
X110435Y10100D02*
X111502D01*
X110968D01*
Y13299D01*
X110435Y12766D01*
X126114Y13299D02*
Y10100D01*
X127714D01*
X128247Y10633D01*
Y12766D01*
X127714Y13299D01*
X126114D01*
X131446Y12766D02*
X130913Y13299D01*
X129846D01*
X129313Y12766D01*
Y10633D01*
X129846Y10100D01*
X130913D01*
X131446Y10633D01*
X132512Y10100D02*
X133579D01*
X133045D01*
Y13299D01*
X132512Y12766D01*
X137311Y10100D02*
X135178D01*
X137311Y12233D01*
Y12766D01*
X136777Y13299D01*
X135711D01*
X135178Y12766D01*
X132300Y13299D02*
Y10100D01*
X133899D01*
X134433Y10633D01*
Y12766D01*
X133899Y13299D01*
X132300D01*
X137632Y12766D02*
X137098Y13299D01*
X136032D01*
X135499Y12766D01*
Y10633D01*
X136032Y10100D01*
X137098D01*
X137632Y10633D01*
X138698Y10100D02*
X139764D01*
X139231D01*
Y13299D01*
X138698Y12766D01*
X141364D02*
X141897Y13299D01*
X142963D01*
X143496Y12766D01*
Y12233D01*
X142963Y11699D01*
X142430D01*
X142963D01*
X143496Y11166D01*
Y10633D01*
X142963Y10100D01*
X141897D01*
X141364Y10633D01*
X119929Y13299D02*
Y10100D01*
X121528D01*
X122061Y10633D01*
Y12766D01*
X121528Y13299D01*
X119929D01*
X125260Y12766D02*
X124727Y13299D01*
X123661D01*
X123127Y12766D01*
Y10633D01*
X123661Y10100D01*
X124727D01*
X125260Y10633D01*
X126327Y10100D02*
X127393D01*
X126860D01*
Y13299D01*
X126327Y12766D01*
X130592Y10100D02*
Y13299D01*
X128992Y11699D01*
X131125D01*
X95186Y13299D02*
Y10100D01*
X96785D01*
X97318Y10633D01*
Y12766D01*
X96785Y13299D01*
X95186D01*
X100517Y12766D02*
X99984Y13299D01*
X98918D01*
X98385Y12766D01*
Y10633D01*
X98918Y10100D01*
X99984D01*
X100517Y10633D01*
X101584Y10100D02*
X102650D01*
X102117D01*
Y13299D01*
X101584Y12766D01*
X106382Y13299D02*
X104250D01*
Y11699D01*
X105316Y12233D01*
X105849D01*
X106382Y11699D01*
Y10633D01*
X105849Y10100D01*
X104783D01*
X104250Y10633D01*
X23500Y197199D02*
Y194000D01*
X25100D01*
X25633Y194533D01*
Y196666D01*
X25100Y197199D01*
X23500D01*
X28299Y194000D02*
Y197199D01*
X26699Y195599D01*
X28832D01*
X45917Y82382D02*
Y83448D01*
Y82915D01*
X42718D01*
X43251Y82382D01*
D61*
X138900Y35799D02*
Y33800D01*
X139900D01*
X140233Y34133D01*
Y35466D01*
X139900Y35799D01*
X138900D01*
X142232Y35466D02*
X141899Y35799D01*
X141233D01*
X140899Y35466D01*
Y34133D01*
X141233Y33800D01*
X141899D01*
X142232Y34133D01*
X142899Y35799D02*
X144232D01*
Y35466D01*
X142899Y34133D01*
Y33800D01*
X144000Y47699D02*
Y45700D01*
X145000D01*
X145333Y46033D01*
Y47366D01*
X145000Y47699D01*
X144000D01*
X147332Y47366D02*
X146999Y47699D01*
X146333D01*
X145999Y47366D01*
Y46033D01*
X146333Y45700D01*
X146999D01*
X147332Y46033D01*
X149332Y47699D02*
X148665Y47366D01*
X147999Y46700D01*
Y46033D01*
X148332Y45700D01*
X148998D01*
X149332Y46033D01*
Y46366D01*
X148998Y46700D01*
X147999D01*
X138400Y60299D02*
Y58300D01*
X139400D01*
X139733Y58633D01*
Y59966D01*
X139400Y60299D01*
X138400D01*
X141732Y59966D02*
X141399Y60299D01*
X140733D01*
X140399Y59966D01*
Y58633D01*
X140733Y58300D01*
X141399D01*
X141732Y58633D01*
X143732Y60299D02*
X142399D01*
Y59300D01*
X143065Y59633D01*
X143398D01*
X143732Y59300D01*
Y58633D01*
X143398Y58300D01*
X142732D01*
X142399Y58633D01*
X125400Y64899D02*
Y62900D01*
X126400D01*
X126733Y63233D01*
Y64566D01*
X126400Y64899D01*
X125400D01*
X128732Y64566D02*
X128399Y64899D01*
X127733D01*
X127399Y64566D01*
Y63233D01*
X127733Y62900D01*
X128399D01*
X128732Y63233D01*
X130398Y62900D02*
Y64899D01*
X129399Y63900D01*
X130732D01*
X111814Y59885D02*
Y57886D01*
X112814D01*
X113147Y58219D01*
Y59552D01*
X112814Y59885D01*
X111814D01*
X115147Y59552D02*
X114813Y59885D01*
X114147D01*
X113814Y59552D01*
Y58219D01*
X114147Y57886D01*
X114813D01*
X115147Y58219D01*
X115813Y59552D02*
X116146Y59885D01*
X116813D01*
X117146Y59552D01*
Y59219D01*
X116813Y58886D01*
X116479D01*
X116813D01*
X117146Y58552D01*
Y58219D01*
X116813Y57886D01*
X116146D01*
X115813Y58219D01*
X107400Y47799D02*
Y45800D01*
X108400D01*
X108733Y46133D01*
Y47466D01*
X108400Y47799D01*
X107400D01*
X110732Y47466D02*
X110399Y47799D01*
X109733D01*
X109399Y47466D01*
Y46133D01*
X109733Y45800D01*
X110399D01*
X110732Y46133D01*
X112732Y45800D02*
X111399D01*
X112732Y47133D01*
Y47466D01*
X112398Y47799D01*
X111732D01*
X111399Y47466D01*
X112400Y36299D02*
Y34300D01*
X113400D01*
X113733Y34633D01*
Y35966D01*
X113400Y36299D01*
X112400D01*
X115732Y35966D02*
X115399Y36299D01*
X114733D01*
X114399Y35966D01*
Y34633D01*
X114733Y34300D01*
X115399D01*
X115732Y34633D01*
X116399Y34300D02*
X117065D01*
X116732D01*
Y36299D01*
X116399Y35966D01*
X125900Y30299D02*
Y28300D01*
X126900D01*
X127233Y28633D01*
Y29966D01*
X126900Y30299D01*
X125900D01*
X129232Y29966D02*
X128899Y30299D01*
X128233D01*
X127899Y29966D01*
Y28633D01*
X128233Y28300D01*
X128899D01*
X129232Y28633D01*
X129899Y29966D02*
X130232Y30299D01*
X130898D01*
X131232Y29966D01*
Y28633D01*
X130898Y28300D01*
X130232D01*
X129899Y28633D01*
Y29966D01*
D62*
X176000Y41500D02*
X173501D01*
Y42750D01*
X173917Y43166D01*
X174750D01*
X175167Y42750D01*
Y41500D01*
Y42333D02*
X176000Y43166D01*
X173917Y45665D02*
X173501Y45249D01*
Y44416D01*
X173917Y43999D01*
X174334D01*
X174750Y44416D01*
Y45249D01*
X175167Y45665D01*
X175584D01*
X176000Y45249D01*
Y44416D01*
X175584Y43999D01*
X173501Y46498D02*
Y48164D01*
Y47331D01*
X176000D01*
X184750Y40500D02*
Y42166D01*
X183917Y41333D02*
X185583D01*
X183917Y42999D02*
X183501Y43416D01*
Y44249D01*
X183917Y44665D01*
X184334D01*
X184750Y44249D01*
Y43832D01*
Y44249D01*
X185167Y44665D01*
X185583D01*
X186000Y44249D01*
Y43416D01*
X185583Y42999D01*
X186000Y45498D02*
X185583D01*
Y45915D01*
X186000D01*
Y45498D01*
X183917Y47581D02*
X183501Y47998D01*
Y48831D01*
X183917Y49247D01*
X184334D01*
X184750Y48831D01*
Y48414D01*
Y48831D01*
X185167Y49247D01*
X185583D01*
X186000Y48831D01*
Y47998D01*
X185583Y47581D01*
X184334Y50080D02*
X186000Y50913D01*
X184334Y51746D01*
X194250Y41000D02*
Y42666D01*
X193417Y41833D02*
X195083D01*
X193001Y45165D02*
Y43499D01*
X194250D01*
X193834Y44332D01*
Y44749D01*
X194250Y45165D01*
X195083D01*
X195500Y44749D01*
Y43916D01*
X195083Y43499D01*
X193834Y45998D02*
X195500Y46831D01*
X193834Y47664D01*
X203417Y42666D02*
X203001Y42250D01*
Y41416D01*
X203417Y41000D01*
X205083D01*
X205500Y41416D01*
Y42250D01*
X205083Y42666D01*
X204250D01*
Y41833D01*
X205500Y43499D02*
X203001D01*
X205500Y45165D01*
X203001D01*
Y45998D02*
X205500D01*
Y47248D01*
X205083Y47664D01*
X203417D01*
X203001Y47248D01*
Y45998D01*
X213417Y42666D02*
X213001Y42250D01*
Y41416D01*
X213417Y41000D01*
X215084D01*
X215500Y41416D01*
Y42250D01*
X215084Y42666D01*
X214250D01*
Y41833D01*
X215500Y43499D02*
X213001D01*
X215500Y45165D01*
X213001D01*
Y45998D02*
X215500D01*
Y47248D01*
X215084Y47664D01*
X213417D01*
X213001Y47248D01*
Y45998D01*
X223001Y41000D02*
X224667D01*
X225500Y41833D01*
X224667Y42666D01*
X223001D01*
Y43499D02*
Y44332D01*
Y43916D01*
X225500D01*
Y43499D01*
Y44332D01*
Y45582D02*
X223001D01*
X225500Y47248D01*
X223001D01*
X246000Y41000D02*
X244334D01*
X243501Y41833D01*
X244334Y42666D01*
X246000D01*
X244750D01*
Y41000D01*
X243917Y43499D02*
X243501Y43916D01*
Y44749D01*
X243917Y45165D01*
X245584D01*
X246000Y44749D01*
Y43916D01*
X245584Y43499D01*
X243917D01*
X255500Y41000D02*
X253834D01*
X253001Y41833D01*
X253834Y42666D01*
X255500D01*
X254250D01*
Y41000D01*
X255500Y43499D02*
Y44332D01*
Y43916D01*
X253001D01*
X253417Y43499D01*
X265500Y41000D02*
X263834D01*
X263001Y41833D01*
X263834Y42666D01*
X265500D01*
X264250D01*
Y41000D01*
X265500Y45165D02*
Y43499D01*
X263834Y45165D01*
X263417D01*
X263001Y44749D01*
Y43916D01*
X263417Y43499D01*
X275500Y41000D02*
X273834D01*
X273001Y41833D01*
X273834Y42666D01*
X275500D01*
X274250D01*
Y41000D01*
X273417Y43499D02*
X273001Y43916D01*
Y44749D01*
X273417Y45165D01*
X273834D01*
X274250Y44749D01*
Y44332D01*
Y44749D01*
X274667Y45165D01*
X275083D01*
X275500Y44749D01*
Y43916D01*
X275083Y43499D01*
X285500Y41000D02*
X283834D01*
X283001Y41833D01*
X283834Y42666D01*
X285500D01*
X284250D01*
Y41000D01*
X285500Y44749D02*
X283001D01*
X284250Y43499D01*
Y45165D01*
X295500Y41000D02*
X293834D01*
X293001Y41833D01*
X293834Y42666D01*
X295500D01*
X294250D01*
Y41000D01*
X293001Y45165D02*
Y43499D01*
X294250D01*
X293834Y44332D01*
Y44749D01*
X294250Y45165D01*
X295083D01*
X295500Y44749D01*
Y43916D01*
X295083Y43499D01*
X293001Y211000D02*
X295500D01*
Y212250D01*
X295083Y212666D01*
X293417D01*
X293001Y212250D01*
Y211000D01*
X293417Y213499D02*
X293001Y213916D01*
Y214749D01*
X293417Y215165D01*
X295083D01*
X295500Y214749D01*
Y213916D01*
X295083Y213499D01*
X293417D01*
X295500Y215998D02*
X293834Y217665D01*
X295500Y218498D02*
X293001D01*
Y219747D01*
X293417Y220164D01*
X294250D01*
X294667Y219747D01*
Y218498D01*
Y219331D02*
X295500Y220164D01*
X293001Y220997D02*
X295500Y222663D01*
X293001D02*
X295500Y220997D01*
X283001Y212000D02*
X285500D01*
Y213250D01*
X285084Y213666D01*
X283417D01*
X283001Y213250D01*
Y212000D01*
X285500Y214499D02*
Y215332D01*
Y214916D01*
X283001D01*
X283417Y214499D01*
X285500Y216582D02*
X283834Y218248D01*
X283001Y219081D02*
Y220747D01*
Y219914D01*
X285500D01*
X283001Y221580D02*
X285500Y223246D01*
X283001D02*
X285500Y221580D01*
X273001Y219000D02*
X275500D01*
Y220250D01*
X275083Y220666D01*
X273417D01*
X273001Y220250D01*
Y219000D01*
X275500Y223165D02*
Y221499D01*
X273834Y223165D01*
X273417D01*
X273001Y222749D01*
Y221916D01*
X273417Y221499D01*
X263001Y219000D02*
X265500D01*
Y220250D01*
X265084Y220666D01*
X263417D01*
X263001Y220250D01*
Y219000D01*
X263417Y221499D02*
X263001Y221916D01*
Y222749D01*
X263417Y223165D01*
X263834D01*
X264250Y222749D01*
Y222332D01*
Y222749D01*
X264667Y223165D01*
X265084D01*
X265500Y222749D01*
Y221916D01*
X265084Y221499D01*
X253001Y219000D02*
X255500D01*
Y220250D01*
X255083Y220666D01*
X253417D01*
X253001Y220250D01*
Y219000D01*
X255500Y222749D02*
X253001D01*
X254250Y221499D01*
Y223165D01*
X243001Y219000D02*
X245500D01*
Y220250D01*
X245083Y220666D01*
X243417D01*
X243001Y220250D01*
Y219000D01*
Y223165D02*
Y221499D01*
X244250D01*
X243834Y222332D01*
Y222749D01*
X244250Y223165D01*
X245083D01*
X245500Y222749D01*
Y221916D01*
X245083Y221499D01*
X233001Y219000D02*
X235500D01*
Y220250D01*
X235084Y220666D01*
X233417D01*
X233001Y220250D01*
Y219000D01*
Y223165D02*
X233417Y222332D01*
X234250Y221499D01*
X235084D01*
X235500Y221916D01*
Y222749D01*
X235084Y223165D01*
X234667D01*
X234250Y222749D01*
Y221499D01*
X223001Y219000D02*
X225500D01*
Y220250D01*
X225083Y220666D01*
X223417D01*
X223001Y220250D01*
Y219000D01*
Y221499D02*
Y223165D01*
X223417D01*
X225083Y221499D01*
X225500D01*
X208001Y219000D02*
X210500D01*
Y220250D01*
X210084Y220666D01*
X208417D01*
X208001Y220250D01*
Y219000D01*
X208417Y221499D02*
X208001Y221916D01*
Y222749D01*
X208417Y223165D01*
X208834D01*
X209250Y222749D01*
X209667Y223165D01*
X210084D01*
X210500Y222749D01*
Y221916D01*
X210084Y221499D01*
X209667D01*
X209250Y221916D01*
X208834Y221499D01*
X208417D01*
X209250Y221916D02*
Y222749D01*
X198001Y219000D02*
X200500D01*
Y220250D01*
X200083Y220666D01*
X198417D01*
X198001Y220250D01*
Y219000D01*
X200083Y221499D02*
X200500Y221916D01*
Y222749D01*
X200083Y223165D01*
X198417D01*
X198001Y222749D01*
Y221916D01*
X198417Y221499D01*
X198834D01*
X199250Y221916D01*
Y223165D01*
X188001Y217000D02*
X190500D01*
Y218250D01*
X190084Y218666D01*
X188417D01*
X188001Y218250D01*
Y217000D01*
X190500Y219499D02*
Y220332D01*
Y219916D01*
X188001D01*
X188417Y219499D01*
Y221582D02*
X188001Y221998D01*
Y222831D01*
X188417Y223248D01*
X190084D01*
X190500Y222831D01*
Y221998D01*
X190084Y221582D01*
X188417D01*
X178001Y218000D02*
X180500D01*
Y219250D01*
X180084Y219666D01*
X178417D01*
X178001Y219250D01*
Y218000D01*
X180500Y220499D02*
Y221332D01*
Y220916D01*
X178001D01*
X178417Y220499D01*
X180500Y222582D02*
Y223415D01*
Y222998D01*
X178001D01*
X178417Y222582D01*
X168001Y217000D02*
X170500D01*
Y218250D01*
X170083Y218666D01*
X168417D01*
X168001Y218250D01*
Y217000D01*
X170500Y219499D02*
Y220332D01*
Y219916D01*
X168001D01*
X168417Y219499D01*
X170500Y223248D02*
Y221582D01*
X168834Y223248D01*
X168417D01*
X168001Y222831D01*
Y221998D01*
X168417Y221582D01*
X158001Y214000D02*
X160500D01*
Y215250D01*
X160083Y215666D01*
X158417D01*
X158001Y215250D01*
Y214000D01*
X160500Y216499D02*
Y217332D01*
Y216916D01*
X158001D01*
X158417Y216499D01*
Y218582D02*
X158001Y218998D01*
Y219831D01*
X158417Y220248D01*
X158834D01*
X159250Y219831D01*
Y219415D01*
Y219831D01*
X159667Y220248D01*
X160083D01*
X160500Y219831D01*
Y218998D01*
X160083Y218582D01*
X148917Y217666D02*
X148501Y217250D01*
Y216417D01*
X148917Y216000D01*
X150584D01*
X151000Y216417D01*
Y217250D01*
X150584Y217666D01*
X149750D01*
Y216833D01*
X151000Y218499D02*
X148501D01*
X151000Y220165D01*
X148501D01*
Y220998D02*
X151000D01*
Y222248D01*
X150584Y222664D01*
X148917D01*
X148501Y222248D01*
Y220998D01*
X141000Y213000D02*
X139334D01*
X138501Y213833D01*
X139334Y214666D01*
X141000D01*
X139750D01*
Y213000D01*
X141000Y215499D02*
X138501D01*
Y216749D01*
X138917Y217165D01*
X139750D01*
X140167Y216749D01*
Y215499D01*
Y216332D02*
X141000Y217165D01*
X138501Y219665D02*
Y217998D01*
X141000D01*
Y219665D01*
X139750Y217998D02*
Y218831D01*
X138501Y222164D02*
Y220498D01*
X139750D01*
Y221331D01*
Y220498D01*
X141000D01*
X117417Y216166D02*
X117001Y215750D01*
Y214916D01*
X117417Y214500D01*
X117834D01*
X118250Y214916D01*
Y215750D01*
X118667Y216166D01*
X119083D01*
X119500Y215750D01*
Y214916D01*
X119083Y214500D01*
X117417Y218665D02*
X117001Y218249D01*
Y217416D01*
X117417Y216999D01*
X119083D01*
X119500Y217416D01*
Y218249D01*
X119083Y218665D01*
X117001Y219498D02*
X119500D01*
Y221164D01*
X127417Y216166D02*
X127001Y215750D01*
Y214916D01*
X127417Y214500D01*
X127834D01*
X128250Y214916D01*
Y215750D01*
X128667Y216166D01*
X129084D01*
X129500Y215750D01*
Y214916D01*
X129084Y214500D01*
X127001Y216999D02*
X129500D01*
Y218249D01*
X129084Y218665D01*
X127417D01*
X127001Y218249D01*
Y216999D01*
X129500Y219498D02*
X127834D01*
X127001Y220331D01*
X127834Y221164D01*
X129500D01*
X128250D01*
Y219498D01*
X163501Y41500D02*
Y42333D01*
Y41916D01*
X166000D01*
Y41500D01*
Y42333D01*
X163501Y44832D02*
Y43999D01*
X163917Y43583D01*
X165584D01*
X166000Y43999D01*
Y44832D01*
X165584Y45249D01*
X163917D01*
X163501Y44832D01*
X166000Y46082D02*
X163501D01*
Y47332D01*
X163917Y47748D01*
X164750D01*
X165167Y47332D01*
Y46082D01*
Y46915D02*
X166000Y47748D01*
X163501Y50247D02*
Y48581D01*
X166000D01*
Y50247D01*
X164750Y48581D02*
Y49414D01*
X163501Y52746D02*
Y51080D01*
X164750D01*
Y51913D01*
Y51080D01*
X166000D01*
X156000Y41500D02*
X153501D01*
X156000Y43166D01*
X153501D01*
X156000Y43999D02*
X154334Y45665D01*
X156000Y46498D02*
X154334D01*
X153501Y47331D01*
X154334Y48164D01*
X156000D01*
X154750D01*
Y46498D01*
M02*
