%FSLAX25Y25*%
%MOIN*%
G70*
G01*
G75*
G04 Layer_Color=8421504*
%ADD10R,0.05512X0.01575*%
%ADD11R,0.09843X0.05610*%
%ADD12R,0.02756X0.05610*%
%ADD13R,0.03347X0.04724*%
%ADD14R,0.03347X0.05000*%
%ADD15R,0.03150X0.03347*%
%ADD16C,0.05000*%
%ADD17R,0.03347X0.03150*%
%ADD18R,0.08500X0.05500*%
G04:AMPARAMS|DCode=19|XSize=33.47mil|YSize=31.5mil|CornerRadius=0mil|HoleSize=0mil|Usage=FLASHONLY|Rotation=225.000|XOffset=0mil|YOffset=0mil|HoleType=Round|Shape=Rectangle|*
%AMROTATEDRECTD19*
4,1,4,0.00070,0.02297,0.02297,0.00070,-0.00070,-0.02297,-0.02297,-0.00070,0.00070,0.02297,0.0*
%
%ADD19ROTATEDRECTD19*%

G04:AMPARAMS|DCode=20|XSize=33.47mil|YSize=31.5mil|CornerRadius=0mil|HoleSize=0mil|Usage=FLASHONLY|Rotation=315.000|XOffset=0mil|YOffset=0mil|HoleType=Round|Shape=Rectangle|*
%AMROTATEDRECTD20*
4,1,4,-0.02297,0.00070,-0.00070,0.02297,0.02297,-0.00070,0.00070,-0.02297,-0.02297,0.00070,0.0*
%
%ADD20ROTATEDRECTD20*%

%ADD21R,0.03543X0.08268*%
%ADD22R,0.12992X0.08268*%
%ADD23R,0.01378X0.03937*%
G04:AMPARAMS|DCode=24|XSize=25.59mil|YSize=33.47mil|CornerRadius=6.4mil|HoleSize=0mil|Usage=FLASHONLY|Rotation=180.000|XOffset=0mil|YOffset=0mil|HoleType=Round|Shape=RoundedRectangle|*
%AMROUNDEDRECTD24*
21,1,0.02559,0.02067,0,0,180.0*
21,1,0.01280,0.03347,0,0,180.0*
1,1,0.01280,-0.00640,0.01034*
1,1,0.01280,0.00640,0.01034*
1,1,0.01280,0.00640,-0.01034*
1,1,0.01280,-0.00640,-0.01034*
%
%ADD24ROUNDEDRECTD24*%
%ADD25R,0.06000X0.08500*%
%ADD26R,0.09449X0.07874*%
G04:AMPARAMS|DCode=27|XSize=9.84mil|YSize=59.06mil|CornerRadius=0mil|HoleSize=0mil|Usage=FLASHONLY|Rotation=315.000|XOffset=0mil|YOffset=0mil|HoleType=Round|Shape=Rectangle|*
%AMROTATEDRECTD27*
4,1,4,-0.02436,-0.01740,0.01740,0.02436,0.02436,0.01740,-0.01740,-0.02436,-0.02436,-0.01740,0.0*
%
%ADD27ROTATEDRECTD27*%

G04:AMPARAMS|DCode=28|XSize=9.84mil|YSize=59.06mil|CornerRadius=0mil|HoleSize=0mil|Usage=FLASHONLY|Rotation=45.000|XOffset=0mil|YOffset=0mil|HoleType=Round|Shape=Rectangle|*
%AMROTATEDRECTD28*
4,1,4,0.01740,-0.02436,-0.02436,0.01740,-0.01740,0.02436,0.02436,-0.01740,0.01740,-0.02436,0.0*
%
%ADD28ROTATEDRECTD28*%

%ADD29R,0.02362X0.04724*%
%ADD30R,0.02900X0.09500*%
%ADD31R,0.02362X0.08071*%
%ADD32R,0.11024X0.03937*%
%ADD33R,0.02362X0.07087*%
%ADD34R,0.08661X0.08661*%
%ADD35O,0.03740X0.01181*%
%ADD36O,0.01181X0.03740*%
%ADD37R,0.15500X0.12500*%
%ADD38C,0.02000*%
%ADD39C,0.01200*%
%ADD40C,0.00600*%
%ADD41C,0.01400*%
%ADD42C,0.00700*%
%ADD43C,0.00800*%
%ADD44R,0.05000X0.02500*%
%ADD45C,0.06299*%
%ADD46C,0.05700*%
%ADD47R,0.05700X0.05700*%
%ADD48R,0.05700X0.05700*%
%ADD49C,0.05300*%
%ADD50C,0.05500*%
%ADD51C,0.08661*%
%ADD52R,0.05100X0.05100*%
%ADD53C,0.05100*%
%ADD54C,0.13100*%
%ADD55C,0.02500*%
%ADD56C,0.02600*%
%ADD57C,0.02598*%
%ADD58C,0.01000*%
%ADD59C,0.00984*%
%ADD60C,0.02362*%
%ADD61C,0.00787*%
%ADD62C,0.01500*%
%ADD63C,0.00591*%
%ADD64C,0.00400*%
%ADD65C,0.00500*%
D10*
X19829Y73418D02*
D03*
Y70859D02*
D03*
Y63182D02*
D03*
Y65741D02*
D03*
Y68300D02*
D03*
Y174800D02*
D03*
Y172241D02*
D03*
Y169682D02*
D03*
Y177359D02*
D03*
Y179918D02*
D03*
D11*
X7542Y64511D02*
D03*
Y72089D02*
D03*
Y178589D02*
D03*
Y171011D02*
D03*
D12*
X15416Y81292D02*
D03*
Y55308D02*
D03*
Y161808D02*
D03*
Y187792D02*
D03*
D13*
X212401Y49300D02*
D03*
X94299Y167300D02*
D03*
X40999Y82000D02*
D03*
X225199Y56800D02*
D03*
X21799Y196100D02*
D03*
D14*
X224999Y49300D02*
D03*
X81701Y167300D02*
D03*
X28401Y82000D02*
D03*
X212601Y56800D02*
D03*
X9201Y196100D02*
D03*
D15*
X111156Y157200D02*
D03*
X105644D02*
D03*
X34156Y74400D02*
D03*
X28644D02*
D03*
X34156Y68400D02*
D03*
X28644D02*
D03*
X54756Y64600D02*
D03*
X49244D02*
D03*
X52056Y182800D02*
D03*
X46544D02*
D03*
X131647Y35400D02*
D03*
X137553D02*
D03*
X116953Y35500D02*
D03*
X111047D02*
D03*
X74044Y200100D02*
D03*
X79556D02*
D03*
X63256Y200500D02*
D03*
X57744D02*
D03*
X45644D02*
D03*
X51156D02*
D03*
X46547Y188600D02*
D03*
X52453D02*
D03*
X131756Y81400D02*
D03*
X126244D02*
D03*
X92056Y200100D02*
D03*
X86544D02*
D03*
X115447Y81400D02*
D03*
X121353D02*
D03*
X170597Y63000D02*
D03*
X176109D02*
D03*
D16*
X294000Y82300D02*
D03*
Y76500D02*
D03*
X301000D02*
D03*
Y82300D02*
D03*
D17*
X291700Y50844D02*
D03*
Y56356D02*
D03*
X287100Y50844D02*
D03*
Y56356D02*
D03*
X201500Y15544D02*
D03*
Y21056D02*
D03*
X156500Y15544D02*
D03*
Y21056D02*
D03*
X41800Y68044D02*
D03*
Y73556D02*
D03*
X124000Y43147D02*
D03*
Y49053D02*
D03*
Y28453D02*
D03*
Y22547D02*
D03*
X322500Y42144D02*
D03*
Y47656D02*
D03*
X304900Y143544D02*
D03*
Y149056D02*
D03*
X324700Y165244D02*
D03*
Y170756D02*
D03*
X304900Y159156D02*
D03*
Y153644D02*
D03*
X305100Y138156D02*
D03*
Y132644D02*
D03*
X319600Y165244D02*
D03*
Y170756D02*
D03*
X314500Y170756D02*
D03*
Y165244D02*
D03*
X322500Y53447D02*
D03*
X322500Y59353D02*
D03*
X39100Y52944D02*
D03*
Y58456D02*
D03*
X57800Y182944D02*
D03*
Y188456D02*
D03*
X95000Y89944D02*
D03*
Y95456D02*
D03*
X245000Y15544D02*
D03*
Y21056D02*
D03*
X289500Y15544D02*
D03*
Y21056D02*
D03*
X110029Y15053D02*
D03*
Y9147D02*
D03*
X115457Y15053D02*
D03*
Y9147D02*
D03*
X120886Y15053D02*
D03*
Y9147D02*
D03*
X131743Y15053D02*
D03*
Y9147D02*
D03*
X142600Y15053D02*
D03*
Y9147D02*
D03*
X41100Y188556D02*
D03*
Y183044D02*
D03*
X83800Y154056D02*
D03*
Y148544D02*
D03*
X84400Y179656D02*
D03*
Y174144D02*
D03*
X26600Y166956D02*
D03*
Y161444D02*
D03*
X31700Y167056D02*
D03*
Y161544D02*
D03*
X26700Y185356D02*
D03*
Y179844D02*
D03*
X102800Y181056D02*
D03*
Y175544D02*
D03*
X102900Y163144D02*
D03*
Y168656D02*
D03*
X146500Y163744D02*
D03*
Y169256D02*
D03*
X268600Y70344D02*
D03*
Y75856D02*
D03*
X237600Y50844D02*
D03*
Y56356D02*
D03*
X277100Y50844D02*
D03*
Y56356D02*
D03*
X281600Y50844D02*
D03*
Y56356D02*
D03*
X271600Y50844D02*
D03*
Y56356D02*
D03*
X45100Y52944D02*
D03*
Y58456D02*
D03*
X51100Y52944D02*
D03*
Y58456D02*
D03*
X81100D02*
D03*
Y52944D02*
D03*
X75100Y58456D02*
D03*
Y52944D02*
D03*
X69100Y58456D02*
D03*
Y52944D02*
D03*
X63100Y58456D02*
D03*
Y52944D02*
D03*
X57100Y58456D02*
D03*
Y52944D02*
D03*
X104600Y55344D02*
D03*
Y60856D02*
D03*
X110029Y55344D02*
D03*
Y60856D02*
D03*
X115457Y55344D02*
D03*
Y60856D02*
D03*
X120886Y55344D02*
D03*
Y60856D02*
D03*
X126314Y55344D02*
D03*
Y60856D02*
D03*
X131743Y55344D02*
D03*
Y60856D02*
D03*
X137171Y55344D02*
D03*
Y60856D02*
D03*
X142600Y55344D02*
D03*
Y60856D02*
D03*
X104600Y15053D02*
D03*
Y9147D02*
D03*
X137171Y15053D02*
D03*
Y9147D02*
D03*
X126314Y15053D02*
D03*
Y9147D02*
D03*
X242100Y56356D02*
D03*
Y50844D02*
D03*
X257600D02*
D03*
Y56356D02*
D03*
X247600Y50844D02*
D03*
Y56356D02*
D03*
X252100D02*
D03*
Y50844D02*
D03*
X262100Y56356D02*
D03*
Y50844D02*
D03*
X267100Y50844D02*
D03*
Y56356D02*
D03*
D18*
X75200Y175400D02*
D03*
X41200D02*
D03*
X75200Y157600D02*
D03*
X41200D02*
D03*
X156700Y9500D02*
D03*
X190700D02*
D03*
X156700Y27300D02*
D03*
X190700D02*
D03*
X201533Y9500D02*
D03*
X235533D02*
D03*
X201533Y27300D02*
D03*
X235533D02*
D03*
X246367Y9500D02*
D03*
X280367D02*
D03*
X246367Y27300D02*
D03*
X280367D02*
D03*
X291200Y9500D02*
D03*
X325200D02*
D03*
X291200Y27300D02*
D03*
X325200D02*
D03*
X74900Y149000D02*
D03*
X40900D02*
D03*
X74900Y131200D02*
D03*
X40900D02*
D03*
D19*
X128983Y30517D02*
D03*
X133159Y26341D02*
D03*
X119017Y40483D02*
D03*
X114841Y44659D02*
D03*
X248949Y73051D02*
D03*
X245051Y76949D02*
D03*
X277949Y102551D02*
D03*
X274051Y106449D02*
D03*
X196451Y177849D02*
D03*
X200349Y173951D02*
D03*
X176551Y156949D02*
D03*
X180449Y153051D02*
D03*
X186549Y159351D02*
D03*
X182651Y163249D02*
D03*
X186051Y166949D02*
D03*
X189949Y163051D02*
D03*
X175574Y170611D02*
D03*
X179472Y166714D02*
D03*
X272949Y82551D02*
D03*
X269051Y86449D02*
D03*
X265949Y89551D02*
D03*
X262051Y93449D02*
D03*
X262449Y86051D02*
D03*
X258551Y89949D02*
D03*
X195149Y167851D02*
D03*
X191251Y171749D02*
D03*
X285049Y107351D02*
D03*
X281151Y111249D02*
D03*
X241149Y63851D02*
D03*
X237251Y67749D02*
D03*
X240757Y71396D02*
D03*
X244655Y67499D02*
D03*
X283449Y90351D02*
D03*
X279551Y94249D02*
D03*
X252051Y69949D02*
D03*
X255949Y66051D02*
D03*
D20*
X128983Y40483D02*
D03*
X133159Y44659D02*
D03*
X119017Y30517D02*
D03*
X114841Y26341D02*
D03*
X206551Y73051D02*
D03*
X210449Y76949D02*
D03*
X185551Y92551D02*
D03*
X189449Y96449D02*
D03*
X273949Y162449D02*
D03*
X270051Y158551D02*
D03*
X286949Y148949D02*
D03*
X283051Y145051D02*
D03*
X249449Y186449D02*
D03*
X245551Y182551D02*
D03*
X266249Y171149D02*
D03*
X262351Y167251D02*
D03*
X192949Y92949D02*
D03*
X189051Y89051D02*
D03*
X209949Y63449D02*
D03*
X206051Y59551D02*
D03*
X188949Y82249D02*
D03*
X185051Y78351D02*
D03*
X213051Y66551D02*
D03*
X216949Y70449D02*
D03*
X269449Y167749D02*
D03*
X265551Y163851D02*
D03*
X202051Y77051D02*
D03*
X205949Y80949D02*
D03*
X196449Y89549D02*
D03*
X192551Y85651D02*
D03*
X168551Y111051D02*
D03*
X172449Y114949D02*
D03*
D21*
X44745Y209479D02*
D03*
X53800D02*
D03*
X62855D02*
D03*
X72945Y209480D02*
D03*
X82000D02*
D03*
X91055D02*
D03*
D22*
X53800Y231921D02*
D03*
X82000Y231920D02*
D03*
D23*
X176516Y219914D02*
D03*
X173957D02*
D03*
X171398D02*
D03*
X168839D02*
D03*
X166279D02*
D03*
X163721D02*
D03*
X161161D02*
D03*
X158602D02*
D03*
X156043D02*
D03*
X153484D02*
D03*
X176516Y196686D02*
D03*
X173957D02*
D03*
X171398D02*
D03*
X168839D02*
D03*
X166279D02*
D03*
X163721D02*
D03*
X161161D02*
D03*
X158602D02*
D03*
X156043D02*
D03*
X153484D02*
D03*
X241516Y219914D02*
D03*
X238957D02*
D03*
X236398D02*
D03*
X233839D02*
D03*
X231279D02*
D03*
X228720D02*
D03*
X226161D02*
D03*
X223602D02*
D03*
X221043D02*
D03*
X218484D02*
D03*
X241516Y196686D02*
D03*
X238957D02*
D03*
X236398D02*
D03*
X233839D02*
D03*
X231279D02*
D03*
X228720D02*
D03*
X226161D02*
D03*
X223602D02*
D03*
X221043D02*
D03*
X218484D02*
D03*
D24*
X280796Y76002D02*
D03*
X274300D02*
D03*
Y69900D02*
D03*
X280796D02*
D03*
D25*
X10000Y9800D02*
D03*
X20000D02*
D03*
X30000D02*
D03*
X40000D02*
D03*
X50000D02*
D03*
X60000D02*
D03*
X70000D02*
D03*
X80000D02*
D03*
X10000Y42800D02*
D03*
X20000D02*
D03*
X30000D02*
D03*
X40000D02*
D03*
X50000D02*
D03*
X60000D02*
D03*
X70000D02*
D03*
X80000D02*
D03*
D26*
X112600Y164794D02*
D03*
X112600Y179754D02*
D03*
D27*
X135219Y163330D02*
D03*
X136611Y161939D02*
D03*
X138003Y160547D02*
D03*
X139395Y159155D02*
D03*
X140787Y157763D02*
D03*
X142179Y156371D02*
D03*
X143571Y154979D02*
D03*
X144963Y153587D02*
D03*
X146355Y152195D02*
D03*
X147747Y150803D02*
D03*
X149138Y149411D02*
D03*
X150530Y148019D02*
D03*
X127981Y125470D02*
D03*
X126589Y126862D02*
D03*
X125197Y128253D02*
D03*
X123805Y129645D02*
D03*
X122413Y131037D02*
D03*
X121021Y132429D02*
D03*
X119629Y133821D02*
D03*
X118237Y135213D02*
D03*
X116845Y136605D02*
D03*
X115454Y137997D02*
D03*
X114061Y139389D02*
D03*
X112670Y140781D02*
D03*
X232928Y184147D02*
D03*
X234320Y182755D02*
D03*
X235713Y181363D02*
D03*
X237104Y179971D02*
D03*
X238496Y178579D02*
D03*
X239888Y177187D02*
D03*
X241280Y175795D02*
D03*
X242672Y174403D02*
D03*
X244064Y173011D02*
D03*
X245456Y171619D02*
D03*
X246848Y170227D02*
D03*
X248240Y168835D02*
D03*
X249632Y167443D02*
D03*
X251024Y166051D02*
D03*
X252416Y164659D02*
D03*
X253808Y163268D02*
D03*
X255200Y161875D02*
D03*
X256592Y160484D02*
D03*
X257983Y159092D02*
D03*
X259376Y157700D02*
D03*
X260767Y156308D02*
D03*
X262159Y154916D02*
D03*
X263551Y153524D02*
D03*
X264943Y152132D02*
D03*
X266335Y150740D02*
D03*
X267727Y149348D02*
D03*
X269119Y147956D02*
D03*
X270511Y146564D02*
D03*
X271903Y145172D02*
D03*
X273295Y143780D02*
D03*
X274687Y142388D02*
D03*
X276079Y140996D02*
D03*
X277471Y139604D02*
D03*
X278863Y138213D02*
D03*
X280255Y136820D02*
D03*
X281646Y135429D02*
D03*
X222071Y75854D02*
D03*
X220679Y77245D02*
D03*
X219287Y78637D02*
D03*
X217896Y80029D02*
D03*
X216504Y81421D02*
D03*
X215112Y82813D02*
D03*
X213720Y84205D02*
D03*
X212328Y85597D02*
D03*
X210936Y86989D02*
D03*
X209544Y88381D02*
D03*
X208152Y89773D02*
D03*
X206760Y91165D02*
D03*
X205368Y92557D02*
D03*
X203976Y93949D02*
D03*
X202584Y95341D02*
D03*
X201192Y96733D02*
D03*
X199800Y98124D02*
D03*
X198408Y99516D02*
D03*
X197017Y100909D02*
D03*
X195625Y102301D02*
D03*
X194232Y103692D02*
D03*
X192841Y105084D02*
D03*
X191449Y106476D02*
D03*
X190057Y107868D02*
D03*
X188665Y109260D02*
D03*
X187273Y110652D02*
D03*
X185881Y112044D02*
D03*
X184489Y113436D02*
D03*
X183097Y114828D02*
D03*
X181705Y116220D02*
D03*
X180313Y117612D02*
D03*
X178921Y119004D02*
D03*
X177529Y120396D02*
D03*
X176137Y121788D02*
D03*
X174745Y123179D02*
D03*
X173353Y124572D02*
D03*
D28*
X150530Y140781D02*
D03*
X149138Y139389D02*
D03*
X147747Y137997D02*
D03*
X146355Y136605D02*
D03*
X144963Y135213D02*
D03*
X143571Y133821D02*
D03*
X142179Y132429D02*
D03*
X140787Y131037D02*
D03*
X139395Y129645D02*
D03*
X138003Y128253D02*
D03*
X136611Y126862D02*
D03*
X135219Y125470D02*
D03*
X112670Y148019D02*
D03*
X114061Y149411D02*
D03*
X115454Y150803D02*
D03*
X116845Y152195D02*
D03*
X118237Y153587D02*
D03*
X119629Y154979D02*
D03*
X121021Y156371D02*
D03*
X122413Y157763D02*
D03*
X123805Y159155D02*
D03*
X125197Y160547D02*
D03*
X126589Y161939D02*
D03*
X127981Y163330D02*
D03*
X173353Y135429D02*
D03*
X174745Y136820D02*
D03*
X176137Y138213D02*
D03*
X177529Y139604D02*
D03*
X178921Y140997D02*
D03*
X180313Y142388D02*
D03*
X181705Y143780D02*
D03*
X183097Y145172D02*
D03*
X184489Y146564D02*
D03*
X185881Y147956D02*
D03*
X187273Y149348D02*
D03*
X188665Y150740D02*
D03*
X190057Y152132D02*
D03*
X191449Y153524D02*
D03*
X192841Y154916D02*
D03*
X194232Y156308D02*
D03*
X195625Y157700D02*
D03*
X197017Y159092D02*
D03*
X198408Y160484D02*
D03*
X199800Y161875D02*
D03*
X201192Y163268D02*
D03*
X202584Y164660D02*
D03*
X203976Y166051D02*
D03*
X205368Y167443D02*
D03*
X206760Y168835D02*
D03*
X208152Y170227D02*
D03*
X209544Y171619D02*
D03*
X210936Y173011D02*
D03*
X212328Y174403D02*
D03*
X213720Y175795D02*
D03*
X215112Y177187D02*
D03*
X216504Y178579D02*
D03*
X217896Y179971D02*
D03*
X219288Y181363D02*
D03*
X220679Y182755D02*
D03*
X222071Y184147D02*
D03*
X281646Y124572D02*
D03*
X280255Y123179D02*
D03*
X278863Y121788D02*
D03*
X277471Y120396D02*
D03*
X276079Y119004D02*
D03*
X274687Y117612D02*
D03*
X273295Y116220D02*
D03*
X271903Y114828D02*
D03*
X270511Y113436D02*
D03*
X269119Y112044D02*
D03*
X267727Y110652D02*
D03*
X266335Y109260D02*
D03*
X264943Y107868D02*
D03*
X263551Y106476D02*
D03*
X262159Y105084D02*
D03*
X260767Y103692D02*
D03*
X259376Y102301D02*
D03*
X257984Y100909D02*
D03*
X256592Y99516D02*
D03*
X255200Y98124D02*
D03*
X253808Y96733D02*
D03*
X252416Y95341D02*
D03*
X251024Y93949D02*
D03*
X249632Y92557D02*
D03*
X248240Y91165D02*
D03*
X246848Y89773D02*
D03*
X245456Y88381D02*
D03*
X244064Y86989D02*
D03*
X242672Y85597D02*
D03*
X241280Y84205D02*
D03*
X239888Y82813D02*
D03*
X238496Y81421D02*
D03*
X237104Y80029D02*
D03*
X235713Y78637D02*
D03*
X234320Y77245D02*
D03*
X232928Y75853D02*
D03*
D29*
X63860Y183457D02*
D03*
X71340D02*
D03*
X67600Y190543D02*
D03*
D30*
X61700Y117800D02*
D03*
Y101800D02*
D03*
X56700Y117800D02*
D03*
Y101800D02*
D03*
X51700Y117800D02*
D03*
Y101800D02*
D03*
X46700Y117800D02*
D03*
Y101800D02*
D03*
X41700Y117800D02*
D03*
Y101800D02*
D03*
D31*
X320000Y156832D02*
D03*
X315000D02*
D03*
Y135769D02*
D03*
X310000Y156832D02*
D03*
X325000Y135769D02*
D03*
X320000D02*
D03*
X310000D02*
D03*
X325000Y156832D02*
D03*
D32*
X26000Y99300D02*
D03*
X9071D02*
D03*
X26000Y107174D02*
D03*
X9071D02*
D03*
X26000Y115048D02*
D03*
X9071D02*
D03*
X26000Y122922D02*
D03*
X9071D02*
D03*
X26000Y130796D02*
D03*
X9071D02*
D03*
X26000Y138670D02*
D03*
X9071D02*
D03*
X26000Y146544D02*
D03*
X9071D02*
D03*
D33*
X72000Y91733D02*
D03*
X77000D02*
D03*
X82000D02*
D03*
X87000D02*
D03*
X72000Y120867D02*
D03*
X77000D02*
D03*
X82000D02*
D03*
X87000D02*
D03*
D34*
X54700Y77300D02*
D03*
D35*
X61885Y81139D02*
D03*
Y78579D02*
D03*
Y76020D02*
D03*
Y73461D02*
D03*
X47515D02*
D03*
Y76020D02*
D03*
Y78579D02*
D03*
Y81139D02*
D03*
D36*
X58539Y70115D02*
D03*
X55980D02*
D03*
X53421D02*
D03*
X50861D02*
D03*
Y84485D02*
D03*
X53421D02*
D03*
X55980D02*
D03*
X58539D02*
D03*
D37*
X135900Y187572D02*
D03*
M02*
