%FSLAX25Y25*%
%MOIN*%
G70*
G01*
G75*
G04 Layer_Physical_Order=1*
G04 Layer_Color=255*
%ADD10R,0.03347X0.03150*%
G04:AMPARAMS|DCode=11|XSize=25.59mil|YSize=33.47mil|CornerRadius=6.4mil|HoleSize=0mil|Usage=FLASHONLY|Rotation=180.000|XOffset=0mil|YOffset=0mil|HoleType=Round|Shape=RoundedRectangle|*
%AMROUNDEDRECTD11*
21,1,0.02559,0.02067,0,0,180.0*
21,1,0.01280,0.03347,0,0,180.0*
1,1,0.01280,-0.00640,0.01034*
1,1,0.01280,0.00640,0.01034*
1,1,0.01280,0.00640,-0.01034*
1,1,0.01280,-0.00640,-0.01034*
%
%ADD11ROUNDEDRECTD11*%
%ADD12R,0.03150X0.03347*%
%ADD13R,0.02362X0.04724*%
%ADD14R,0.04331X0.05906*%
G04:AMPARAMS|DCode=15|XSize=33.47mil|YSize=31.5mil|CornerRadius=0mil|HoleSize=0mil|Usage=FLASHONLY|Rotation=225.000|XOffset=0mil|YOffset=0mil|HoleType=Round|Shape=Rectangle|*
%AMROTATEDRECTD15*
4,1,4,0.00070,0.02297,0.02297,0.00070,-0.00070,-0.02297,-0.02297,-0.00070,0.00070,0.02297,0.0*
%
%ADD15ROTATEDRECTD15*%

%ADD16R,0.03819X0.03543*%
%ADD17R,0.03819X0.02559*%
%ADD18R,0.08500X0.05500*%
%ADD19R,0.08661X0.08661*%
%ADD20O,0.03740X0.01181*%
%ADD21O,0.01181X0.03740*%
G04:AMPARAMS|DCode=22|XSize=33.47mil|YSize=31.5mil|CornerRadius=0mil|HoleSize=0mil|Usage=FLASHONLY|Rotation=315.000|XOffset=0mil|YOffset=0mil|HoleType=Round|Shape=Rectangle|*
%AMROTATEDRECTD22*
4,1,4,-0.02297,0.00070,-0.00070,0.02297,0.02297,-0.00070,0.00070,-0.02297,-0.02297,0.00070,0.0*
%
%ADD22ROTATEDRECTD22*%

%ADD23R,0.03543X0.08268*%
%ADD24R,0.12992X0.08268*%
%ADD25R,0.04724X0.03347*%
%ADD26R,0.05000X0.03347*%
%ADD27R,0.03347X0.04724*%
%ADD28R,0.03347X0.05000*%
%ADD29R,0.02900X0.11000*%
G04:AMPARAMS|DCode=30|XSize=78.74mil|YSize=94.49mil|CornerRadius=0mil|HoleSize=0mil|Usage=FLASHONLY|Rotation=315.000|XOffset=0mil|YOffset=0mil|HoleType=Round|Shape=Rectangle|*
%AMROTATEDRECTD30*
4,1,4,-0.06125,-0.00557,0.00557,0.06125,0.06125,0.00557,-0.00557,-0.06125,-0.06125,-0.00557,0.0*
%
%ADD30ROTATEDRECTD30*%

%ADD31R,0.06000X0.08500*%
%ADD32R,0.02362X0.08071*%
G04:AMPARAMS|DCode=33|XSize=9.84mil|YSize=59.06mil|CornerRadius=0mil|HoleSize=0mil|Usage=FLASHONLY|Rotation=45.000|XOffset=0mil|YOffset=0mil|HoleType=Round|Shape=Rectangle|*
%AMROTATEDRECTD33*
4,1,4,0.01740,-0.02436,-0.02436,0.01740,-0.01740,0.02436,0.02436,-0.01740,0.01740,-0.02436,0.0*
%
%ADD33ROTATEDRECTD33*%

G04:AMPARAMS|DCode=34|XSize=9.84mil|YSize=59.06mil|CornerRadius=0mil|HoleSize=0mil|Usage=FLASHONLY|Rotation=135.000|XOffset=0mil|YOffset=0mil|HoleType=Round|Shape=Rectangle|*
%AMROTATEDRECTD34*
4,1,4,0.02436,0.01740,-0.01740,-0.02436,-0.02436,-0.01740,0.01740,0.02436,0.02436,0.01740,0.0*
%
%ADD34ROTATEDRECTD34*%

%ADD35R,0.02362X0.07087*%
%ADD36R,0.11024X0.03937*%
%ADD37R,0.01378X0.03937*%
%ADD38R,0.05512X0.01575*%
%ADD39R,0.09843X0.05610*%
%ADD40R,0.02756X0.05610*%
%ADD41C,0.01400*%
%ADD42C,0.01200*%
%ADD43R,0.06500X0.06500*%
%ADD44C,0.06500*%
%ADD45C,0.08661*%
%ADD46R,0.06500X0.06500*%
%ADD47R,0.05906X0.05906*%
%ADD48C,0.05906*%
%ADD49C,0.06299*%
%ADD50C,0.05709*%
%ADD51C,0.02598*%
%ADD52C,0.02500*%
D10*
X168000Y56244D02*
D03*
Y61756D02*
D03*
X64000Y180744D02*
D03*
Y186256D02*
D03*
X241900Y59856D02*
D03*
Y54344D02*
D03*
X294000Y134953D02*
D03*
Y129047D02*
D03*
X289000Y129244D02*
D03*
Y134756D02*
D03*
X237100Y54344D02*
D03*
Y59856D02*
D03*
X29000Y61244D02*
D03*
Y66756D02*
D03*
X65600Y69544D02*
D03*
Y75056D02*
D03*
X59500Y69544D02*
D03*
Y75056D02*
D03*
X29000Y77256D02*
D03*
Y71744D02*
D03*
X127900Y54447D02*
D03*
Y60353D02*
D03*
Y39753D02*
D03*
Y33847D02*
D03*
X31000Y175244D02*
D03*
Y180756D02*
D03*
X31500Y168756D02*
D03*
Y163244D02*
D03*
X85900Y145944D02*
D03*
Y151456D02*
D03*
X124243Y13753D02*
D03*
Y7847D02*
D03*
X118057Y13753D02*
D03*
Y7847D02*
D03*
X99500Y13753D02*
D03*
Y7847D02*
D03*
X111871Y13753D02*
D03*
Y7847D02*
D03*
X136614Y13753D02*
D03*
Y7847D02*
D03*
X142800Y13753D02*
D03*
Y7847D02*
D03*
X130429Y13753D02*
D03*
Y7847D02*
D03*
X105686Y13753D02*
D03*
Y7847D02*
D03*
X156500Y13244D02*
D03*
Y18756D02*
D03*
X289500Y13244D02*
D03*
Y18756D02*
D03*
X245000Y13244D02*
D03*
Y18756D02*
D03*
X201500Y13244D02*
D03*
Y18756D02*
D03*
X75000Y54756D02*
D03*
Y49244D02*
D03*
X69000Y54756D02*
D03*
Y49244D02*
D03*
X63000Y54756D02*
D03*
Y49244D02*
D03*
X57000Y54756D02*
D03*
Y49244D02*
D03*
X51000Y54756D02*
D03*
Y49244D02*
D03*
X45000D02*
D03*
Y54756D02*
D03*
X39000Y49244D02*
D03*
Y54756D02*
D03*
X33000Y49244D02*
D03*
Y54756D02*
D03*
X85100Y168744D02*
D03*
Y174256D02*
D03*
X325000Y168256D02*
D03*
Y162744D02*
D03*
X330000Y168256D02*
D03*
Y162744D02*
D03*
X217000Y63256D02*
D03*
Y57744D02*
D03*
X304500Y157256D02*
D03*
Y151744D02*
D03*
X105686Y19544D02*
D03*
Y25056D02*
D03*
X130429Y19544D02*
D03*
Y25056D02*
D03*
X142800Y19544D02*
D03*
Y25056D02*
D03*
X136614Y19544D02*
D03*
Y25056D02*
D03*
X113000Y19244D02*
D03*
Y24756D02*
D03*
X99500Y19544D02*
D03*
Y25056D02*
D03*
X119000Y19744D02*
D03*
Y25256D02*
D03*
X125500Y19744D02*
D03*
Y25256D02*
D03*
X108500Y47744D02*
D03*
Y53256D02*
D03*
X153000Y45744D02*
D03*
Y51256D02*
D03*
X104000Y47744D02*
D03*
X104000Y53256D02*
D03*
X104000Y58244D02*
D03*
X104000Y63756D02*
D03*
X108500Y58244D02*
D03*
Y63756D02*
D03*
X148000Y57244D02*
D03*
Y62756D02*
D03*
X152500Y57244D02*
D03*
Y62756D02*
D03*
X148500Y45744D02*
D03*
X148500Y51256D02*
D03*
D11*
X179496Y57602D02*
D03*
X173000D02*
D03*
Y51500D02*
D03*
X179496D02*
D03*
D12*
X178756Y62500D02*
D03*
X173244D02*
D03*
X46756Y180500D02*
D03*
X41244D02*
D03*
X135547Y46700D02*
D03*
X141453D02*
D03*
X120853Y46800D02*
D03*
X114947D02*
D03*
X115056Y177100D02*
D03*
X109544D02*
D03*
X102344Y183200D02*
D03*
X107856D02*
D03*
X57756Y180500D02*
D03*
X52244D02*
D03*
X91256Y197500D02*
D03*
X85744D02*
D03*
X45744D02*
D03*
X51256D02*
D03*
X82244Y81500D02*
D03*
X87756D02*
D03*
X79256Y197500D02*
D03*
X73744D02*
D03*
X63756D02*
D03*
X58244D02*
D03*
X314244Y163000D02*
D03*
X319756D02*
D03*
X314244Y168500D02*
D03*
X319756D02*
D03*
D13*
X69760Y181457D02*
D03*
X77240D02*
D03*
X73500Y188543D02*
D03*
D14*
X56449Y188067D02*
D03*
X47394D02*
D03*
D15*
X287249Y90451D02*
D03*
X283351Y94349D02*
D03*
X297049Y100751D02*
D03*
X293151Y104649D02*
D03*
X132883Y41817D02*
D03*
X137059Y37641D02*
D03*
X122917Y51783D02*
D03*
X118741Y55959D02*
D03*
X193449Y170051D02*
D03*
X189551Y173949D02*
D03*
X259449Y88051D02*
D03*
X255551Y91949D02*
D03*
X262949Y91551D02*
D03*
X259051Y95449D02*
D03*
X269949Y84551D02*
D03*
X266051Y88449D02*
D03*
X174251Y173749D02*
D03*
X178149Y169851D02*
D03*
X184051Y169949D02*
D03*
X187949Y166051D02*
D03*
X184949Y163051D02*
D03*
X181051Y166949D02*
D03*
X173551Y158949D02*
D03*
X177449Y155051D02*
D03*
X194551Y179449D02*
D03*
X198449Y175551D02*
D03*
X274949Y104551D02*
D03*
X271051Y108449D02*
D03*
X245949Y75051D02*
D03*
X242051Y78949D02*
D03*
X249051Y71949D02*
D03*
X252949Y68051D02*
D03*
D16*
X37819Y88000D02*
D03*
D17*
X50417D02*
D03*
D18*
X291200Y7200D02*
D03*
X325200D02*
D03*
X291200Y25000D02*
D03*
X325200D02*
D03*
X246367Y7200D02*
D03*
X280367D02*
D03*
X246367Y25000D02*
D03*
X280367D02*
D03*
X201533Y7200D02*
D03*
X235533D02*
D03*
X201533Y25000D02*
D03*
X235533D02*
D03*
X156700Y7200D02*
D03*
X190700D02*
D03*
X156700Y25000D02*
D03*
X190700D02*
D03*
X77500Y146900D02*
D03*
X43500D02*
D03*
X77500Y129100D02*
D03*
X43500D02*
D03*
X77000Y172400D02*
D03*
X43000D02*
D03*
X77000Y154600D02*
D03*
X43000D02*
D03*
D19*
X45000Y73000D02*
D03*
X16300Y222490D02*
D03*
D20*
X52185Y76839D02*
D03*
Y74279D02*
D03*
Y71720D02*
D03*
Y69161D02*
D03*
X37815D02*
D03*
Y71720D02*
D03*
Y74279D02*
D03*
Y76839D02*
D03*
D21*
X48839Y65815D02*
D03*
X46279D02*
D03*
X43720D02*
D03*
X41161D02*
D03*
Y80185D02*
D03*
X43720D02*
D03*
X46279D02*
D03*
X48839D02*
D03*
D22*
X132883Y51783D02*
D03*
X137059Y55959D02*
D03*
X122917Y41817D02*
D03*
X118741Y37641D02*
D03*
X154849Y159249D02*
D03*
X150951Y155351D02*
D03*
X151313Y162784D02*
D03*
X147416Y158887D02*
D03*
X107349Y132749D02*
D03*
X103451Y128851D02*
D03*
X210051Y68551D02*
D03*
X213949Y72449D02*
D03*
X193449Y91949D02*
D03*
X189551Y88051D02*
D03*
X199051Y79051D02*
D03*
X202949Y82949D02*
D03*
X266449Y168949D02*
D03*
X262551Y165051D02*
D03*
X186449Y84949D02*
D03*
X182551Y81051D02*
D03*
X206949Y65449D02*
D03*
X203051Y61551D02*
D03*
X189949Y94949D02*
D03*
X186051Y91051D02*
D03*
X263449Y171949D02*
D03*
X259551Y168051D02*
D03*
X246449Y188449D02*
D03*
X242551Y184551D02*
D03*
X283949Y150949D02*
D03*
X280051Y147051D02*
D03*
X270949Y164449D02*
D03*
X267051Y160551D02*
D03*
X182551Y94551D02*
D03*
X186449Y98449D02*
D03*
X203551Y75051D02*
D03*
X207449Y78949D02*
D03*
X165551Y113051D02*
D03*
X169449Y116949D02*
D03*
D23*
X72945Y205780D02*
D03*
X82000D02*
D03*
X91055D02*
D03*
X45445Y205280D02*
D03*
X54500D02*
D03*
X63555D02*
D03*
D24*
X82000Y228221D02*
D03*
X54500Y227720D02*
D03*
D25*
X36000Y214201D02*
D03*
D26*
Y226799D02*
D03*
D27*
X203799Y52000D02*
D03*
X20299Y195500D02*
D03*
D28*
X191201Y52000D02*
D03*
X7701Y195500D02*
D03*
D29*
X62000Y116500D02*
D03*
Y100500D02*
D03*
X57000Y116500D02*
D03*
Y100500D02*
D03*
X52000Y116500D02*
D03*
Y100500D02*
D03*
X47000Y116500D02*
D03*
Y100500D02*
D03*
X42000Y116500D02*
D03*
Y100500D02*
D03*
D30*
X103078Y171222D02*
D03*
X113657Y160643D02*
D03*
D31*
X10000Y7500D02*
D03*
X20000D02*
D03*
X30000D02*
D03*
X40000D02*
D03*
X50000D02*
D03*
X60000D02*
D03*
X70000D02*
D03*
X80000D02*
D03*
X10000Y40500D02*
D03*
X20000D02*
D03*
X30000D02*
D03*
X40000D02*
D03*
X50000D02*
D03*
X60000D02*
D03*
X70000D02*
D03*
X80000D02*
D03*
D32*
X320000Y154532D02*
D03*
X315000D02*
D03*
Y133469D02*
D03*
X310000Y154532D02*
D03*
X325000Y133469D02*
D03*
X320000D02*
D03*
X310000D02*
D03*
X325000Y154532D02*
D03*
D33*
X170353Y137429D02*
D03*
X171745Y138821D02*
D03*
X173137Y140213D02*
D03*
X174529Y141604D02*
D03*
X175921Y142997D02*
D03*
X177313Y144388D02*
D03*
X178705Y145780D02*
D03*
X180097Y147172D02*
D03*
X181489Y148564D02*
D03*
X182881Y149956D02*
D03*
X184273Y151348D02*
D03*
X185665Y152740D02*
D03*
X187057Y154132D02*
D03*
X188449Y155524D02*
D03*
X189840Y156916D02*
D03*
X191233Y158308D02*
D03*
X192625Y159700D02*
D03*
X194017Y161092D02*
D03*
X195408Y162484D02*
D03*
X196800Y163875D02*
D03*
X198192Y165268D02*
D03*
X199584Y166659D02*
D03*
X200976Y168051D02*
D03*
X202368Y169443D02*
D03*
X203760Y170835D02*
D03*
X205152Y172227D02*
D03*
X206544Y173619D02*
D03*
X207936Y175011D02*
D03*
X209328Y176403D02*
D03*
X210720Y177795D02*
D03*
X212112Y179187D02*
D03*
X213504Y180579D02*
D03*
X214896Y181971D02*
D03*
X216288Y183363D02*
D03*
X217680Y184755D02*
D03*
X219071Y186147D02*
D03*
X278646Y126572D02*
D03*
X277255Y125180D02*
D03*
X275863Y123788D02*
D03*
X274471Y122396D02*
D03*
X273079Y121004D02*
D03*
X271687Y119612D02*
D03*
X270295Y118220D02*
D03*
X268903Y116828D02*
D03*
X267511Y115436D02*
D03*
X266119Y114044D02*
D03*
X264727Y112652D02*
D03*
X263335Y111260D02*
D03*
X261943Y109868D02*
D03*
X260551Y108476D02*
D03*
X259159Y107084D02*
D03*
X257767Y105692D02*
D03*
X256376Y104300D02*
D03*
X254984Y102909D02*
D03*
X253591Y101516D02*
D03*
X252200Y100125D02*
D03*
X250808Y98733D02*
D03*
X249416Y97341D02*
D03*
X248024Y95949D02*
D03*
X246632Y94557D02*
D03*
X245240Y93165D02*
D03*
X243848Y91773D02*
D03*
X242456Y90381D02*
D03*
X241064Y88989D02*
D03*
X239672Y87597D02*
D03*
X238280Y86205D02*
D03*
X236888Y84813D02*
D03*
X235496Y83421D02*
D03*
X234104Y82029D02*
D03*
X232713Y80637D02*
D03*
X231321Y79246D02*
D03*
X229928Y77853D02*
D03*
X150530Y138481D02*
D03*
X149138Y137089D02*
D03*
X147747Y135697D02*
D03*
X146355Y134305D02*
D03*
X144963Y132913D02*
D03*
X143571Y131521D02*
D03*
X142179Y130129D02*
D03*
X140787Y128737D02*
D03*
X139395Y127345D02*
D03*
X138003Y125953D02*
D03*
X136611Y124562D02*
D03*
X135219Y123170D02*
D03*
X112670Y145719D02*
D03*
X114061Y147111D02*
D03*
X115454Y148503D02*
D03*
X116845Y149895D02*
D03*
X118237Y151287D02*
D03*
X119629Y152679D02*
D03*
X121021Y154071D02*
D03*
X122413Y155463D02*
D03*
X123805Y156855D02*
D03*
X125197Y158247D02*
D03*
X126589Y159639D02*
D03*
X127981Y161030D02*
D03*
D34*
X229928Y186147D02*
D03*
X231321Y184755D02*
D03*
X232713Y183363D02*
D03*
X234104Y181971D02*
D03*
X235496Y180579D02*
D03*
X236888Y179187D02*
D03*
X238280Y177795D02*
D03*
X239672Y176403D02*
D03*
X241064Y175011D02*
D03*
X242456Y173619D02*
D03*
X243848Y172227D02*
D03*
X245240Y170835D02*
D03*
X246632Y169443D02*
D03*
X248024Y168051D02*
D03*
X249416Y166659D02*
D03*
X250808Y165268D02*
D03*
X252200Y163875D02*
D03*
X253591Y162484D02*
D03*
X254983Y161092D02*
D03*
X256376Y159700D02*
D03*
X257767Y158308D02*
D03*
X259159Y156916D02*
D03*
X260551Y155524D02*
D03*
X261943Y154132D02*
D03*
X263335Y152740D02*
D03*
X264727Y151348D02*
D03*
X266119Y149956D02*
D03*
X267511Y148564D02*
D03*
X268903Y147172D02*
D03*
X270295Y145780D02*
D03*
X271687Y144388D02*
D03*
X273079Y142996D02*
D03*
X274471Y141604D02*
D03*
X275863Y140213D02*
D03*
X277255Y138821D02*
D03*
X278646Y137429D02*
D03*
X219071Y77853D02*
D03*
X217680Y79246D02*
D03*
X216287Y80637D02*
D03*
X214896Y82029D02*
D03*
X213504Y83421D02*
D03*
X212112Y84813D02*
D03*
X210720Y86205D02*
D03*
X209328Y87597D02*
D03*
X207936Y88989D02*
D03*
X206544Y90381D02*
D03*
X205152Y91773D02*
D03*
X203760Y93165D02*
D03*
X202368Y94557D02*
D03*
X200976Y95949D02*
D03*
X199584Y97341D02*
D03*
X198192Y98733D02*
D03*
X196800Y100125D02*
D03*
X195408Y101516D02*
D03*
X194017Y102909D02*
D03*
X192625Y104300D02*
D03*
X191233Y105692D02*
D03*
X189840Y107084D02*
D03*
X188449Y108476D02*
D03*
X187057Y109868D02*
D03*
X185665Y111260D02*
D03*
X184273Y112652D02*
D03*
X182881Y114044D02*
D03*
X181489Y115436D02*
D03*
X180097Y116828D02*
D03*
X178705Y118220D02*
D03*
X177313Y119612D02*
D03*
X175921Y121004D02*
D03*
X174529Y122396D02*
D03*
X173137Y123788D02*
D03*
X171745Y125180D02*
D03*
X170353Y126572D02*
D03*
X135219Y161030D02*
D03*
X136611Y159639D02*
D03*
X138003Y158247D02*
D03*
X139395Y156855D02*
D03*
X140787Y155463D02*
D03*
X142179Y154071D02*
D03*
X143571Y152679D02*
D03*
X144963Y151287D02*
D03*
X146355Y149895D02*
D03*
X147747Y148503D02*
D03*
X149138Y147111D02*
D03*
X150530Y145719D02*
D03*
X127981Y123170D02*
D03*
X126589Y124562D02*
D03*
X125197Y125953D02*
D03*
X123805Y127345D02*
D03*
X122413Y128737D02*
D03*
X121021Y130129D02*
D03*
X119629Y131521D02*
D03*
X118237Y132913D02*
D03*
X116845Y134305D02*
D03*
X115454Y135697D02*
D03*
X114061Y137089D02*
D03*
X112670Y138481D02*
D03*
D35*
X72000Y89433D02*
D03*
X77000D02*
D03*
X82000D02*
D03*
X87000D02*
D03*
X72000Y118567D02*
D03*
X77000D02*
D03*
X82000D02*
D03*
X87000D02*
D03*
D36*
X26000Y96500D02*
D03*
X9071D02*
D03*
X26000Y104374D02*
D03*
X9071D02*
D03*
X26000Y112248D02*
D03*
X9071D02*
D03*
X26000Y120122D02*
D03*
X9071D02*
D03*
X26000Y127996D02*
D03*
X9071D02*
D03*
X26000Y135870D02*
D03*
X9071D02*
D03*
X26000Y143744D02*
D03*
X9071D02*
D03*
D37*
X298016Y219614D02*
D03*
X295457D02*
D03*
X292898D02*
D03*
X290339D02*
D03*
X287779D02*
D03*
X285221D02*
D03*
X282661D02*
D03*
X280102D02*
D03*
X277543D02*
D03*
X274984D02*
D03*
X298016Y196386D02*
D03*
X295457D02*
D03*
X292898D02*
D03*
X290339D02*
D03*
X287779D02*
D03*
X285221D02*
D03*
X282661D02*
D03*
X280102D02*
D03*
X277543D02*
D03*
X274984D02*
D03*
X176516Y217614D02*
D03*
X173957D02*
D03*
X171398D02*
D03*
X168839D02*
D03*
X166279D02*
D03*
X163721D02*
D03*
X161161D02*
D03*
X158602D02*
D03*
X156043D02*
D03*
X153484D02*
D03*
X176516Y194386D02*
D03*
X173957D02*
D03*
X171398D02*
D03*
X168839D02*
D03*
X166279D02*
D03*
X163721D02*
D03*
X161161D02*
D03*
X158602D02*
D03*
X156043D02*
D03*
X153484D02*
D03*
D38*
X19929Y177618D02*
D03*
Y175059D02*
D03*
Y167382D02*
D03*
Y169941D02*
D03*
Y172500D02*
D03*
X20429Y71118D02*
D03*
Y68559D02*
D03*
Y60882D02*
D03*
Y63441D02*
D03*
Y66000D02*
D03*
D39*
X7642Y168711D02*
D03*
Y176289D02*
D03*
X8142Y62211D02*
D03*
Y69789D02*
D03*
D40*
X15516Y185492D02*
D03*
Y159508D02*
D03*
X16016Y78992D02*
D03*
Y53008D02*
D03*
D41*
X188449Y164147D02*
Y165551D01*
X189595Y162729D02*
X192625Y159700D01*
X189595Y162729D02*
Y163000D01*
X189500Y163095D02*
Y163500D01*
X188449Y164147D02*
X189500Y163095D01*
X189949Y94949D02*
X192000Y97000D01*
Y98108D01*
X195408Y101516D01*
X202949Y82949D02*
Y83949D01*
X204500Y85500D01*
X207936Y88936D01*
Y88989D01*
X255551Y91949D02*
Y92949D01*
X254000Y94500D02*
X255551Y92949D01*
X254000Y94500D02*
Y95291D01*
X250808Y98483D02*
X254000Y95291D01*
X250808Y98483D02*
Y98733D01*
X260500Y163000D02*
X262551Y165051D01*
X260000Y163000D02*
X260500D01*
X259676D02*
X260000D01*
X256376Y159700D02*
X259676Y163000D01*
D42*
X184949Y163051D02*
X187000Y161000D01*
X190842Y158308D02*
X191233D01*
X187000Y161000D02*
X188149D01*
X190842Y158308D01*
X193449Y167051D02*
X193500Y167000D01*
X193449Y167051D02*
Y170051D01*
X193500Y167000D02*
X193676D01*
X196800Y163875D01*
X198449Y172949D02*
Y175551D01*
X198000Y172500D02*
X198449Y172949D01*
X198000Y172500D02*
X198732Y171768D01*
Y170295D02*
Y171768D01*
Y170295D02*
X200976Y168051D01*
X177449Y155051D02*
X177449D01*
X179500Y153000D01*
X179837D01*
X182881Y149956D01*
X169449Y116949D02*
X171500Y119000D01*
Y119366D01*
X174529Y122396D01*
X186449Y98449D02*
X188449D01*
X189500Y99500D01*
X190217D01*
X193626Y102909D01*
X194017D01*
X193449Y91949D02*
Y93949D01*
X194500Y95000D01*
Y97824D01*
X196800Y100125D01*
X207449Y78949D02*
Y79949D01*
X209000Y81500D01*
X212112Y84612D01*
Y84813D01*
X213949Y72449D02*
Y72449D01*
X216000Y74500D01*
X219071Y77571D01*
Y77853D01*
X240000Y81000D02*
X242051Y78949D01*
X240000Y81000D02*
Y81500D01*
X236888Y84612D02*
Y84813D01*
Y84612D02*
X240000Y81500D01*
X252200Y100125D02*
X255324Y97000D01*
X256000D01*
X257500D01*
X259051Y95449D01*
X271051Y108449D02*
Y109449D01*
X269500Y111000D02*
X271051Y109449D01*
X266119Y114044D02*
X266456D01*
X269500Y111000D01*
X278000Y145000D02*
X280051Y147051D01*
X278000Y145000D02*
X278000D01*
X277866D02*
X278000D01*
X274471Y141604D02*
X277866Y145000D01*
X266551Y160551D02*
X267051D01*
X264500Y158500D02*
X266551Y160551D01*
X263527Y158500D02*
X264500D01*
X260551Y155524D02*
X263527Y158500D01*
X259551Y167051D02*
Y168051D01*
X258000Y165500D02*
X259551Y167051D01*
X257227Y164727D02*
X258000Y165500D01*
X257227Y163336D02*
Y164727D01*
X254983Y161092D02*
X257227Y163336D01*
X242051Y184551D02*
X242551D01*
X240000Y182500D02*
X242051Y184551D01*
X240000Y182299D02*
Y182500D01*
X236888Y179187D02*
X240000Y182299D01*
X259051Y95449D02*
X259452Y95048D01*
X269949Y84551D02*
X272000Y82500D01*
X272000D01*
X274949Y104551D02*
X277000Y102500D01*
X242051Y78949D02*
X242452Y78548D01*
X245949Y75051D02*
X248000Y77103D01*
Y77500D01*
X252949Y68051D02*
Y70949D01*
X253000Y71500D02*
X253500D01*
X252949Y70949D02*
X253500Y71500D01*
X213548Y72048D02*
X213949Y72449D01*
X209657Y68945D02*
X210051Y68551D01*
X207555Y68945D02*
X209657D01*
X206900Y69300D02*
Y69600D01*
X207555Y68945D01*
X200900Y63703D02*
X203051Y61551D01*
X200900Y63703D02*
Y63800D01*
X203451Y75051D02*
X203551D01*
X201300Y72900D02*
X203451Y75051D01*
X197000Y77000D02*
X199051Y79051D01*
X196800Y77000D02*
X197000D01*
X183900Y88900D02*
X186051Y91051D01*
X183800Y88900D02*
X183900D01*
X189551Y88051D02*
Y90451D01*
X189800Y90700D01*
X190000Y90900D01*
X180400Y92400D02*
X182551Y94551D01*
Y81051D02*
Y84349D01*
X182300Y84600D02*
X182800D01*
X182300D02*
X182551Y84349D01*
X165551Y113051D02*
Y116249D01*
X165300Y116500D02*
X165500D01*
X165300D02*
X165551Y116249D01*
X173551Y155851D02*
Y158949D01*
X173300Y155600D02*
X173551Y155851D01*
X184548Y163452D02*
X184949Y163051D01*
X181051Y166949D02*
X181646Y167543D01*
Y171746D02*
X181900Y172000D01*
X183951Y169949D01*
X184051D01*
X181646Y167543D02*
Y171746D01*
X174251Y170651D02*
Y173749D01*
X174000Y170400D02*
X174200D01*
X174000D02*
X174251Y170651D01*
X189451Y173949D02*
X189551D01*
X187400Y176000D02*
X189451Y173949D01*
X192400Y181600D02*
X194551Y179449D01*
X192300Y181600D02*
X192400D01*
X246449Y188449D02*
X248600Y190600D01*
X263449Y171949D02*
X265700Y174200D01*
Y174300D01*
X266449Y168949D02*
Y169649D01*
X268400Y171600D01*
X270949Y164449D02*
Y164749D01*
X272900Y166700D01*
X283949Y150949D02*
X286100Y153100D01*
Y153300D01*
X186449Y84949D02*
X186843Y84554D01*
X188646D01*
X189300Y83900D02*
Y84554D01*
X188646D02*
X189300Y83900D01*
X266051Y88449D02*
X266445Y88843D01*
Y90645D01*
Y91300D02*
X267100D01*
X266445Y90645D02*
X267100Y91300D01*
X259449Y91049D02*
X259700Y91300D01*
X258800Y88700D02*
X259449Y88051D01*
Y91049D01*
X266651Y84551D02*
X269949D01*
X266400Y84300D02*
Y84700D01*
Y84300D02*
X266651Y84551D01*
X177555Y169257D02*
X178149Y169851D01*
X177555Y166382D02*
Y169257D01*
X206949Y65449D02*
X207343Y65055D01*
X209245D01*
X209900Y64400D02*
Y65055D01*
X209245D02*
X209900Y64400D01*
X248657Y71555D02*
X249051Y71949D01*
X246855Y71555D02*
X248657D01*
X246200Y70900D02*
Y71555D01*
Y70900D02*
X246855Y71555D01*
D43*
X275300Y240800D02*
D03*
X185300D02*
D03*
X5300D02*
D03*
X95300D02*
D03*
D44*
X285300D02*
D03*
X295300D02*
D03*
X305300D02*
D03*
X315300D02*
D03*
X325300D02*
D03*
X275300Y250800D02*
D03*
X285300D02*
D03*
X295300D02*
D03*
X305300D02*
D03*
X315300D02*
D03*
X325300D02*
D03*
X195300Y240800D02*
D03*
X205300D02*
D03*
X215300D02*
D03*
X225300D02*
D03*
X235300D02*
D03*
X185300Y250800D02*
D03*
X195300D02*
D03*
X205300D02*
D03*
X215300D02*
D03*
X225300D02*
D03*
X235300D02*
D03*
X15300Y240800D02*
D03*
X25300D02*
D03*
X35300D02*
D03*
X45300D02*
D03*
X55300D02*
D03*
X5300Y250800D02*
D03*
X15300D02*
D03*
X25300D02*
D03*
X35300D02*
D03*
X45300D02*
D03*
X55300D02*
D03*
X105300Y240800D02*
D03*
X115300D02*
D03*
X125300D02*
D03*
X135300D02*
D03*
X145300D02*
D03*
X95300Y250800D02*
D03*
X105300D02*
D03*
X115300D02*
D03*
X125300D02*
D03*
X135300D02*
D03*
X145300D02*
D03*
X322000Y70500D02*
D03*
Y80500D02*
D03*
Y90500D02*
D03*
Y100500D02*
D03*
Y110500D02*
D03*
Y120500D02*
D03*
X312000Y70500D02*
D03*
Y80500D02*
D03*
Y90500D02*
D03*
Y100500D02*
D03*
Y110500D02*
D03*
Y218000D02*
D03*
Y208000D02*
D03*
Y198000D02*
D03*
Y188000D02*
D03*
Y178000D02*
D03*
X322000Y228000D02*
D03*
Y218000D02*
D03*
Y208000D02*
D03*
Y198000D02*
D03*
Y188000D02*
D03*
Y178000D02*
D03*
D45*
X16300Y208710D02*
D03*
D46*
X312000Y120500D02*
D03*
Y228000D02*
D03*
D47*
X174500Y37000D02*
D03*
X244500D02*
D03*
X294500Y227000D02*
D03*
X208500D02*
D03*
X164500Y37000D02*
D03*
X154500D02*
D03*
D48*
X184500D02*
D03*
X194500D02*
D03*
X204500D02*
D03*
X214500D02*
D03*
X224500D02*
D03*
X254500D02*
D03*
X264500D02*
D03*
X274500D02*
D03*
X284500D02*
D03*
X294500D02*
D03*
X284500Y227000D02*
D03*
X274500D02*
D03*
X264500D02*
D03*
X254500D02*
D03*
X244500D02*
D03*
X234500D02*
D03*
X224500D02*
D03*
X198500D02*
D03*
X188500D02*
D03*
X178500D02*
D03*
X168500D02*
D03*
X158500D02*
D03*
X148500D02*
D03*
X138500D02*
D03*
X128500D02*
D03*
X118500D02*
D03*
D49*
X8429Y161772D02*
D03*
Y183228D02*
D03*
X8929Y55272D02*
D03*
Y76728D02*
D03*
D50*
X20358Y182047D02*
D03*
Y162953D02*
D03*
X20858Y75547D02*
D03*
Y56453D02*
D03*
D51*
X42638Y70638D02*
D03*
Y75362D02*
D03*
X47362Y70638D02*
D03*
Y75362D02*
D03*
D52*
X187000Y161000D02*
D03*
X189500Y163500D02*
D03*
X193500Y167000D02*
D03*
X198000Y172500D02*
D03*
X179500Y153000D02*
D03*
X171500Y119000D02*
D03*
X189500Y99500D02*
D03*
X192000Y97000D02*
D03*
X194500Y95000D02*
D03*
X204500Y85500D02*
D03*
X209000Y81500D02*
D03*
X216000Y74500D02*
D03*
X240000Y81500D02*
D03*
X254000Y94500D02*
D03*
X256000Y97000D02*
D03*
X269500Y111000D02*
D03*
X278000Y145000D02*
D03*
X264500Y158500D02*
D03*
X260000Y163000D02*
D03*
X258000Y165500D02*
D03*
X240000Y182500D02*
D03*
X272000Y82500D02*
D03*
X277000Y102500D02*
D03*
X248000Y77500D02*
D03*
X253500Y71500D02*
D03*
X206900Y69600D02*
D03*
X200900Y63800D02*
D03*
X201300Y72900D02*
D03*
X196800Y77000D02*
D03*
X183800Y88900D02*
D03*
X189800Y90700D02*
D03*
X180400Y92400D02*
D03*
X182300Y84600D02*
D03*
X165300Y116500D02*
D03*
X173300Y155600D02*
D03*
X181900Y172000D02*
D03*
X174000Y170400D02*
D03*
X187400Y176000D02*
D03*
X192300Y181600D02*
D03*
X248600Y190600D02*
D03*
X265700Y174300D02*
D03*
X268400Y171600D02*
D03*
X272900Y166700D02*
D03*
X286100Y153300D02*
D03*
X189300Y83900D02*
D03*
X267100Y91300D02*
D03*
X259700D02*
D03*
X266400Y84300D02*
D03*
X176900Y166400D02*
D03*
X209900Y64400D02*
D03*
X246200Y70900D02*
D03*
M02*
