M48
;Layer_Color=9474304
;FILE_FORMAT=2:5
INCH,LZ
;TYPE=PLATED
T1F00S00C0.01299
T2F00S00C0.01500
T3F00S00C0.03543
T4F00S00C0.03937
T5F00S00C0.04134
T6F00S00C0.04200
T7F00S00C0.04724
;TYPE=NON_PLATED
T8F00S00C0.03800
T9F00S00C0.12600
%
T01
X0042638Y0070638
Y0075362
X0047362
Y0070638
T02
X02009Y00638
X02013Y00729
X01968Y0077
X01893Y00839
X01898Y00907
X01838Y00889
X01823Y00846
X01804Y00924
X0192Y0097
X01945Y0095
X02045Y00855
X0209Y00815
X0216Y00745
X02069Y00696
X02099Y00644
X02462Y00709
X02535Y00715
X0248Y00775
X024Y00815
X0254Y00945
X0256Y0097
X02597Y00913
X02671
X02664Y00843
X0272Y00825
X0277Y01025
X02695Y0111
X0278Y0145
X02861Y01533
X02729Y01667
X02684Y01716
X02657Y01743
X0258Y01655
X026Y0163
X02645Y01585
X02486Y01906
X024Y01825
X01923Y01816
X01874Y0176
X01819Y0172
X0174Y01704
X01769Y01664
X01733Y01556
X01795Y0153
X0187Y0161
X01895Y01635
X01935Y0167
X0198Y01725
X01715Y0119
X01653Y01165
X01895Y00995
T03
X01545Y0037
X01645
X01745
X01845
X01945
X02045
X02145
X02245
X02445
X02545
X02645
X02745
X02845
X02945
Y0227
X02845
X02745
X02645
X02545
X02445
X02345
X02245
X02085
X01985
X01885
X01785
X01685
X01585
X01485
X01385
X01285
X01185
T04
X0017535Y0100437
Y0139807
T05
X0020858Y0056453
Y0075547
X0020358Y0162953
Y0182047
T06
X0312Y00705
X0322
Y00805
Y00905
X0312
Y00805
Y01005
X0322
Y01105
Y01205
X0312
Y01105
Y0178
Y0188
Y0198
Y0208
Y0218
Y0228
X0322
Y0218
Y0208
Y0198
Y0188
Y0178
X03253Y02408
X03153
Y02508
X03253
X03053
Y02408
X02953
X02853
X02753
Y02508
X02853
X02953
X02353
Y02408
X02253
X02153
X02053
X01953
X01853
Y02508
X01953
X02053
X02153
X02253
X01453
Y02408
X01353
X01253
X01153
X01053
X00953
Y02508
X01053
X01153
X01253
X01353
X00553
Y02408
X00453
X00353
X00253
X00153
X00053
Y02508
X00153
X00253
X00353
X00453
T07
X0008929Y0055272
Y0076728
X0008429Y0161772
Y0183228
X00163Y020871
Y022249
T08
X00445Y01085
X00595
T09
X00995Y0037
X03045Y0057
Y0167
X01045Y0227
M30
