%FSLAX25Y25*%
%MOIN*%
G70*
G01*
G75*
G04 Layer_Physical_Order=1*
G04 Layer_Color=255*
%ADD10R,0.05512X0.01575*%
%ADD11R,0.09843X0.05610*%
%ADD12R,0.02756X0.05610*%
%ADD13R,0.03347X0.04724*%
%ADD14R,0.03347X0.05000*%
%ADD15R,0.03150X0.03347*%
%ADD16C,0.05000*%
%ADD17R,0.03347X0.03150*%
%ADD18R,0.08500X0.05500*%
G04:AMPARAMS|DCode=19|XSize=33.47mil|YSize=31.5mil|CornerRadius=0mil|HoleSize=0mil|Usage=FLASHONLY|Rotation=225.000|XOffset=0mil|YOffset=0mil|HoleType=Round|Shape=Rectangle|*
%AMROTATEDRECTD19*
4,1,4,0.00070,0.02297,0.02297,0.00070,-0.00070,-0.02297,-0.02297,-0.00070,0.00070,0.02297,0.0*
%
%ADD19ROTATEDRECTD19*%

G04:AMPARAMS|DCode=20|XSize=33.47mil|YSize=31.5mil|CornerRadius=0mil|HoleSize=0mil|Usage=FLASHONLY|Rotation=315.000|XOffset=0mil|YOffset=0mil|HoleType=Round|Shape=Rectangle|*
%AMROTATEDRECTD20*
4,1,4,-0.02297,0.00070,-0.00070,0.02297,0.02297,-0.00070,0.00070,-0.02297,-0.02297,0.00070,0.0*
%
%ADD20ROTATEDRECTD20*%

%ADD21R,0.03543X0.08268*%
%ADD22R,0.12992X0.08268*%
%ADD23R,0.01378X0.03937*%
G04:AMPARAMS|DCode=24|XSize=25.59mil|YSize=33.47mil|CornerRadius=6.4mil|HoleSize=0mil|Usage=FLASHONLY|Rotation=180.000|XOffset=0mil|YOffset=0mil|HoleType=Round|Shape=RoundedRectangle|*
%AMROUNDEDRECTD24*
21,1,0.02559,0.02067,0,0,180.0*
21,1,0.01280,0.03347,0,0,180.0*
1,1,0.01280,-0.00640,0.01034*
1,1,0.01280,0.00640,0.01034*
1,1,0.01280,0.00640,-0.01034*
1,1,0.01280,-0.00640,-0.01034*
%
%ADD24ROUNDEDRECTD24*%
%ADD25R,0.06000X0.08500*%
%ADD26R,0.09449X0.07874*%
G04:AMPARAMS|DCode=27|XSize=9.84mil|YSize=59.06mil|CornerRadius=0mil|HoleSize=0mil|Usage=FLASHONLY|Rotation=315.000|XOffset=0mil|YOffset=0mil|HoleType=Round|Shape=Rectangle|*
%AMROTATEDRECTD27*
4,1,4,-0.02436,-0.01740,0.01740,0.02436,0.02436,0.01740,-0.01740,-0.02436,-0.02436,-0.01740,0.0*
%
%ADD27ROTATEDRECTD27*%

G04:AMPARAMS|DCode=28|XSize=9.84mil|YSize=59.06mil|CornerRadius=0mil|HoleSize=0mil|Usage=FLASHONLY|Rotation=45.000|XOffset=0mil|YOffset=0mil|HoleType=Round|Shape=Rectangle|*
%AMROTATEDRECTD28*
4,1,4,0.01740,-0.02436,-0.02436,0.01740,-0.01740,0.02436,0.02436,-0.01740,0.01740,-0.02436,0.0*
%
%ADD28ROTATEDRECTD28*%

%ADD29R,0.02362X0.04724*%
%ADD30R,0.02900X0.09500*%
%ADD31R,0.02362X0.08071*%
%ADD32R,0.11024X0.03937*%
%ADD33R,0.02362X0.07087*%
%ADD34R,0.08661X0.08661*%
%ADD35O,0.03740X0.01181*%
%ADD36O,0.01181X0.03740*%
%ADD37R,0.15500X0.12500*%
%ADD38C,0.02000*%
%ADD39C,0.01200*%
%ADD40C,0.00600*%
%ADD41C,0.01400*%
%ADD42C,0.00700*%
%ADD43C,0.00800*%
%ADD44R,0.05000X0.02500*%
%ADD45C,0.06299*%
%ADD46C,0.05700*%
%ADD47R,0.05700X0.05700*%
%ADD48R,0.05700X0.05700*%
%ADD49C,0.05300*%
%ADD50C,0.05500*%
%ADD51C,0.08661*%
%ADD52R,0.05100X0.05100*%
%ADD53C,0.05100*%
%ADD54C,0.13100*%
%ADD55C,0.02500*%
%ADD56C,0.02600*%
%ADD57C,0.02598*%
D10*
X19829Y73418D02*
D03*
Y70859D02*
D03*
Y63182D02*
D03*
Y65741D02*
D03*
Y68300D02*
D03*
Y174800D02*
D03*
Y172241D02*
D03*
Y169682D02*
D03*
Y177359D02*
D03*
Y179918D02*
D03*
D11*
X7542Y64511D02*
D03*
Y72089D02*
D03*
Y178589D02*
D03*
Y171011D02*
D03*
D12*
X15416Y81292D02*
D03*
Y55308D02*
D03*
Y161808D02*
D03*
Y187792D02*
D03*
D13*
X212401Y49300D02*
D03*
X94299Y167300D02*
D03*
X40999Y82000D02*
D03*
X225199Y56800D02*
D03*
X21799Y196100D02*
D03*
D14*
X224999Y49300D02*
D03*
X81701Y167300D02*
D03*
X28401Y82000D02*
D03*
X212601Y56800D02*
D03*
X9201Y196100D02*
D03*
D15*
X111156Y157200D02*
D03*
X105644D02*
D03*
X34156Y74400D02*
D03*
X28644D02*
D03*
X34156Y68400D02*
D03*
X28644D02*
D03*
X54756Y64600D02*
D03*
X49244D02*
D03*
X52056Y182800D02*
D03*
X46544D02*
D03*
X131647Y35400D02*
D03*
X137553D02*
D03*
X116953Y35500D02*
D03*
X111047D02*
D03*
X74044Y200100D02*
D03*
X79556D02*
D03*
X63256Y200500D02*
D03*
X57744D02*
D03*
X45644D02*
D03*
X51156D02*
D03*
X46547Y188600D02*
D03*
X52453D02*
D03*
X131756Y81400D02*
D03*
X126244D02*
D03*
X92056Y200100D02*
D03*
X86544D02*
D03*
X115447Y81400D02*
D03*
X121353D02*
D03*
X170597Y63000D02*
D03*
X176109D02*
D03*
D16*
X294000Y82300D02*
D03*
Y76500D02*
D03*
X301000D02*
D03*
Y82300D02*
D03*
X20458Y78597D02*
D03*
Y58003D02*
D03*
Y164503D02*
D03*
Y185097D02*
D03*
X17535Y142607D02*
D03*
D17*
X291700Y50844D02*
D03*
Y56356D02*
D03*
X287100Y50844D02*
D03*
Y56356D02*
D03*
X201500Y15544D02*
D03*
Y21056D02*
D03*
X156500Y15544D02*
D03*
Y21056D02*
D03*
X41800Y68044D02*
D03*
Y73556D02*
D03*
X124000Y43147D02*
D03*
Y49053D02*
D03*
Y28453D02*
D03*
Y22547D02*
D03*
X322500Y42144D02*
D03*
Y47656D02*
D03*
X304900Y143544D02*
D03*
Y149056D02*
D03*
X324700Y165244D02*
D03*
Y170756D02*
D03*
X304900Y159156D02*
D03*
Y153644D02*
D03*
X305100Y138156D02*
D03*
Y132644D02*
D03*
X319600Y165244D02*
D03*
Y170756D02*
D03*
X314500Y170756D02*
D03*
Y165244D02*
D03*
X322500Y53447D02*
D03*
X322500Y59353D02*
D03*
X39100Y52944D02*
D03*
Y58456D02*
D03*
X57800Y182944D02*
D03*
Y188456D02*
D03*
X95000Y89944D02*
D03*
Y95456D02*
D03*
X245000Y15544D02*
D03*
Y21056D02*
D03*
X289500Y15544D02*
D03*
Y21056D02*
D03*
X110029Y15053D02*
D03*
Y9147D02*
D03*
X115457Y15053D02*
D03*
Y9147D02*
D03*
X120886Y15053D02*
D03*
Y9147D02*
D03*
X131743Y15053D02*
D03*
Y9147D02*
D03*
X142600Y15053D02*
D03*
Y9147D02*
D03*
X41100Y188556D02*
D03*
Y183044D02*
D03*
X83800Y154056D02*
D03*
Y148544D02*
D03*
X84400Y179656D02*
D03*
Y174144D02*
D03*
X26600Y166956D02*
D03*
Y161444D02*
D03*
X31700Y167056D02*
D03*
Y161544D02*
D03*
X26700Y185356D02*
D03*
Y179844D02*
D03*
X102800Y181056D02*
D03*
Y175544D02*
D03*
X102900Y163144D02*
D03*
Y168656D02*
D03*
X146500Y163744D02*
D03*
Y169256D02*
D03*
X268600Y70344D02*
D03*
Y75856D02*
D03*
X237600Y50844D02*
D03*
Y56356D02*
D03*
X277100Y50844D02*
D03*
Y56356D02*
D03*
X281600Y50844D02*
D03*
Y56356D02*
D03*
X271600Y50844D02*
D03*
Y56356D02*
D03*
X45100Y52944D02*
D03*
Y58456D02*
D03*
X51100Y52944D02*
D03*
Y58456D02*
D03*
X81100D02*
D03*
Y52944D02*
D03*
X75100Y58456D02*
D03*
Y52944D02*
D03*
X69100Y58456D02*
D03*
Y52944D02*
D03*
X63100Y58456D02*
D03*
Y52944D02*
D03*
X57100Y58456D02*
D03*
Y52944D02*
D03*
X104600Y55344D02*
D03*
Y60856D02*
D03*
X110029Y55344D02*
D03*
Y60856D02*
D03*
X115457Y55344D02*
D03*
Y60856D02*
D03*
X120886Y55344D02*
D03*
Y60856D02*
D03*
X126314Y55344D02*
D03*
Y60856D02*
D03*
X131743Y55344D02*
D03*
Y60856D02*
D03*
X137171Y55344D02*
D03*
Y60856D02*
D03*
X142600Y55344D02*
D03*
Y60856D02*
D03*
X104600Y15053D02*
D03*
Y9147D02*
D03*
X137171Y15053D02*
D03*
Y9147D02*
D03*
X126314Y15053D02*
D03*
Y9147D02*
D03*
X242100Y56356D02*
D03*
Y50844D02*
D03*
X257600D02*
D03*
Y56356D02*
D03*
X247600Y50844D02*
D03*
Y56356D02*
D03*
X252100D02*
D03*
Y50844D02*
D03*
X262100Y56356D02*
D03*
Y50844D02*
D03*
X267100Y50844D02*
D03*
Y56356D02*
D03*
D18*
X75200Y175400D02*
D03*
X41200D02*
D03*
X75200Y157600D02*
D03*
X41200D02*
D03*
X156700Y9500D02*
D03*
X190700D02*
D03*
X156700Y27300D02*
D03*
X190700D02*
D03*
X201533Y9500D02*
D03*
X235533D02*
D03*
X201533Y27300D02*
D03*
X235533D02*
D03*
X246367Y9500D02*
D03*
X280367D02*
D03*
X246367Y27300D02*
D03*
X280367D02*
D03*
X291200Y9500D02*
D03*
X325200D02*
D03*
X291200Y27300D02*
D03*
X325200D02*
D03*
X74900Y149000D02*
D03*
X40900D02*
D03*
X74900Y131200D02*
D03*
X40900D02*
D03*
D19*
X128983Y30517D02*
D03*
X133159Y26341D02*
D03*
X119017Y40483D02*
D03*
X114841Y44659D02*
D03*
X248949Y73051D02*
D03*
X245051Y76949D02*
D03*
X277949Y102551D02*
D03*
X274051Y106449D02*
D03*
X196451Y177849D02*
D03*
X200349Y173951D02*
D03*
X176551Y156949D02*
D03*
X180449Y153051D02*
D03*
X186549Y159351D02*
D03*
X182651Y163249D02*
D03*
X186051Y166949D02*
D03*
X189949Y163051D02*
D03*
X175574Y170611D02*
D03*
X179472Y166714D02*
D03*
X272949Y82551D02*
D03*
X269051Y86449D02*
D03*
X265949Y89551D02*
D03*
X262051Y93449D02*
D03*
X262449Y86051D02*
D03*
X258551Y89949D02*
D03*
X195149Y167851D02*
D03*
X191251Y171749D02*
D03*
X285049Y107351D02*
D03*
X281151Y111249D02*
D03*
X241149Y63851D02*
D03*
X237251Y67749D02*
D03*
X240757Y71396D02*
D03*
X244655Y67499D02*
D03*
X283449Y90351D02*
D03*
X279551Y94249D02*
D03*
X252051Y69949D02*
D03*
X255949Y66051D02*
D03*
D20*
X128983Y40483D02*
D03*
X133159Y44659D02*
D03*
X119017Y30517D02*
D03*
X114841Y26341D02*
D03*
X206551Y73051D02*
D03*
X210449Y76949D02*
D03*
X185551Y92551D02*
D03*
X189449Y96449D02*
D03*
X273949Y162449D02*
D03*
X270051Y158551D02*
D03*
X286949Y148949D02*
D03*
X283051Y145051D02*
D03*
X249449Y186449D02*
D03*
X245551Y182551D02*
D03*
X266249Y171149D02*
D03*
X262351Y167251D02*
D03*
X192949Y92949D02*
D03*
X189051Y89051D02*
D03*
X209949Y63449D02*
D03*
X206051Y59551D02*
D03*
X188949Y82249D02*
D03*
X185051Y78351D02*
D03*
X213051Y66551D02*
D03*
X216949Y70449D02*
D03*
X269449Y167749D02*
D03*
X265551Y163851D02*
D03*
X202051Y77051D02*
D03*
X205949Y80949D02*
D03*
X196449Y89549D02*
D03*
X192551Y85651D02*
D03*
X168551Y111051D02*
D03*
X172449Y114949D02*
D03*
D21*
X44745Y209479D02*
D03*
X53800D02*
D03*
X62855D02*
D03*
X72945Y209480D02*
D03*
X82000D02*
D03*
X91055D02*
D03*
D22*
X53800Y231921D02*
D03*
X82000Y231920D02*
D03*
D23*
X176516Y219914D02*
D03*
X173957D02*
D03*
X171398D02*
D03*
X168839D02*
D03*
X166279D02*
D03*
X163721D02*
D03*
X161161D02*
D03*
X158602D02*
D03*
X156043D02*
D03*
X153484D02*
D03*
X176516Y196686D02*
D03*
X173957D02*
D03*
X171398D02*
D03*
X168839D02*
D03*
X166279D02*
D03*
X163721D02*
D03*
X161161D02*
D03*
X158602D02*
D03*
X156043D02*
D03*
X153484D02*
D03*
X241516Y219914D02*
D03*
X238957D02*
D03*
X236398D02*
D03*
X233839D02*
D03*
X231279D02*
D03*
X228720D02*
D03*
X226161D02*
D03*
X223602D02*
D03*
X221043D02*
D03*
X218484D02*
D03*
X241516Y196686D02*
D03*
X238957D02*
D03*
X236398D02*
D03*
X233839D02*
D03*
X231279D02*
D03*
X228720D02*
D03*
X226161D02*
D03*
X223602D02*
D03*
X221043D02*
D03*
X218484D02*
D03*
D24*
X280796Y76002D02*
D03*
X274300D02*
D03*
Y69900D02*
D03*
X280796D02*
D03*
D25*
X10000Y9800D02*
D03*
X20000D02*
D03*
X30000D02*
D03*
X40000D02*
D03*
X50000D02*
D03*
X60000D02*
D03*
X70000D02*
D03*
X80000D02*
D03*
X10000Y42800D02*
D03*
X20000D02*
D03*
X30000D02*
D03*
X40000D02*
D03*
X50000D02*
D03*
X60000D02*
D03*
X70000D02*
D03*
X80000D02*
D03*
D26*
X112600Y164794D02*
D03*
X112600Y179754D02*
D03*
D27*
X135219Y163330D02*
D03*
X136611Y161939D02*
D03*
X138003Y160547D02*
D03*
X139395Y159155D02*
D03*
X140787Y157763D02*
D03*
X142179Y156371D02*
D03*
X143571Y154979D02*
D03*
X144963Y153587D02*
D03*
X146355Y152195D02*
D03*
X147747Y150803D02*
D03*
X149138Y149411D02*
D03*
X150530Y148019D02*
D03*
X127981Y125470D02*
D03*
X126589Y126862D02*
D03*
X125197Y128253D02*
D03*
X123805Y129645D02*
D03*
X122413Y131037D02*
D03*
X121021Y132429D02*
D03*
X119629Y133821D02*
D03*
X118237Y135213D02*
D03*
X116845Y136605D02*
D03*
X115454Y137997D02*
D03*
X114061Y139389D02*
D03*
X112670Y140781D02*
D03*
X232928Y184147D02*
D03*
X234320Y182755D02*
D03*
X235713Y181363D02*
D03*
X237104Y179971D02*
D03*
X238496Y178579D02*
D03*
X239888Y177187D02*
D03*
X241280Y175795D02*
D03*
X242672Y174403D02*
D03*
X244064Y173011D02*
D03*
X245456Y171619D02*
D03*
X246848Y170227D02*
D03*
X248240Y168835D02*
D03*
X249632Y167443D02*
D03*
X251024Y166051D02*
D03*
X252416Y164659D02*
D03*
X253808Y163268D02*
D03*
X255200Y161875D02*
D03*
X256592Y160484D02*
D03*
X257983Y159092D02*
D03*
X259376Y157700D02*
D03*
X260767Y156308D02*
D03*
X262159Y154916D02*
D03*
X263551Y153524D02*
D03*
X264943Y152132D02*
D03*
X266335Y150740D02*
D03*
X267727Y149348D02*
D03*
X269119Y147956D02*
D03*
X270511Y146564D02*
D03*
X271903Y145172D02*
D03*
X273295Y143780D02*
D03*
X274687Y142388D02*
D03*
X276079Y140996D02*
D03*
X277471Y139604D02*
D03*
X278863Y138213D02*
D03*
X280255Y136820D02*
D03*
X281646Y135429D02*
D03*
X222071Y75854D02*
D03*
X220679Y77245D02*
D03*
X219287Y78637D02*
D03*
X217896Y80029D02*
D03*
X216504Y81421D02*
D03*
X215112Y82813D02*
D03*
X213720Y84205D02*
D03*
X212328Y85597D02*
D03*
X210936Y86989D02*
D03*
X209544Y88381D02*
D03*
X208152Y89773D02*
D03*
X206760Y91165D02*
D03*
X205368Y92557D02*
D03*
X203976Y93949D02*
D03*
X202584Y95341D02*
D03*
X201192Y96733D02*
D03*
X199800Y98124D02*
D03*
X198408Y99516D02*
D03*
X197017Y100909D02*
D03*
X195625Y102301D02*
D03*
X194232Y103692D02*
D03*
X192841Y105084D02*
D03*
X191449Y106476D02*
D03*
X190057Y107868D02*
D03*
X188665Y109260D02*
D03*
X187273Y110652D02*
D03*
X185881Y112044D02*
D03*
X184489Y113436D02*
D03*
X183097Y114828D02*
D03*
X181705Y116220D02*
D03*
X180313Y117612D02*
D03*
X178921Y119004D02*
D03*
X177529Y120396D02*
D03*
X176137Y121788D02*
D03*
X174745Y123179D02*
D03*
X173353Y124572D02*
D03*
D28*
X150530Y140781D02*
D03*
X149138Y139389D02*
D03*
X147747Y137997D02*
D03*
X146355Y136605D02*
D03*
X144963Y135213D02*
D03*
X143571Y133821D02*
D03*
X142179Y132429D02*
D03*
X140787Y131037D02*
D03*
X139395Y129645D02*
D03*
X138003Y128253D02*
D03*
X136611Y126862D02*
D03*
X135219Y125470D02*
D03*
X112670Y148019D02*
D03*
X114061Y149411D02*
D03*
X115454Y150803D02*
D03*
X116845Y152195D02*
D03*
X118237Y153587D02*
D03*
X119629Y154979D02*
D03*
X121021Y156371D02*
D03*
X122413Y157763D02*
D03*
X123805Y159155D02*
D03*
X125197Y160547D02*
D03*
X126589Y161939D02*
D03*
X127981Y163330D02*
D03*
X173353Y135429D02*
D03*
X174745Y136820D02*
D03*
X176137Y138213D02*
D03*
X177529Y139604D02*
D03*
X178921Y140997D02*
D03*
X180313Y142388D02*
D03*
X181705Y143780D02*
D03*
X183097Y145172D02*
D03*
X184489Y146564D02*
D03*
X185881Y147956D02*
D03*
X187273Y149348D02*
D03*
X188665Y150740D02*
D03*
X190057Y152132D02*
D03*
X191449Y153524D02*
D03*
X192841Y154916D02*
D03*
X194232Y156308D02*
D03*
X195625Y157700D02*
D03*
X197017Y159092D02*
D03*
X198408Y160484D02*
D03*
X199800Y161875D02*
D03*
X201192Y163268D02*
D03*
X202584Y164660D02*
D03*
X203976Y166051D02*
D03*
X205368Y167443D02*
D03*
X206760Y168835D02*
D03*
X208152Y170227D02*
D03*
X209544Y171619D02*
D03*
X210936Y173011D02*
D03*
X212328Y174403D02*
D03*
X213720Y175795D02*
D03*
X215112Y177187D02*
D03*
X216504Y178579D02*
D03*
X217896Y179971D02*
D03*
X219288Y181363D02*
D03*
X220679Y182755D02*
D03*
X222071Y184147D02*
D03*
X281646Y124572D02*
D03*
X280255Y123179D02*
D03*
X278863Y121788D02*
D03*
X277471Y120396D02*
D03*
X276079Y119004D02*
D03*
X274687Y117612D02*
D03*
X273295Y116220D02*
D03*
X271903Y114828D02*
D03*
X270511Y113436D02*
D03*
X269119Y112044D02*
D03*
X267727Y110652D02*
D03*
X266335Y109260D02*
D03*
X264943Y107868D02*
D03*
X263551Y106476D02*
D03*
X262159Y105084D02*
D03*
X260767Y103692D02*
D03*
X259376Y102301D02*
D03*
X257984Y100909D02*
D03*
X256592Y99516D02*
D03*
X255200Y98124D02*
D03*
X253808Y96733D02*
D03*
X252416Y95341D02*
D03*
X251024Y93949D02*
D03*
X249632Y92557D02*
D03*
X248240Y91165D02*
D03*
X246848Y89773D02*
D03*
X245456Y88381D02*
D03*
X244064Y86989D02*
D03*
X242672Y85597D02*
D03*
X241280Y84205D02*
D03*
X239888Y82813D02*
D03*
X238496Y81421D02*
D03*
X237104Y80029D02*
D03*
X235713Y78637D02*
D03*
X234320Y77245D02*
D03*
X232928Y75853D02*
D03*
D29*
X63860Y183457D02*
D03*
X71340D02*
D03*
X67600Y190543D02*
D03*
D30*
X61700Y117800D02*
D03*
Y101800D02*
D03*
X56700Y117800D02*
D03*
Y101800D02*
D03*
X51700Y117800D02*
D03*
Y101800D02*
D03*
X46700Y117800D02*
D03*
Y101800D02*
D03*
X41700Y117800D02*
D03*
Y101800D02*
D03*
D31*
X320000Y156832D02*
D03*
X315000D02*
D03*
Y135769D02*
D03*
X310000Y156832D02*
D03*
X325000Y135769D02*
D03*
X320000D02*
D03*
X310000D02*
D03*
X325000Y156832D02*
D03*
D32*
X26000Y99300D02*
D03*
X9071D02*
D03*
X26000Y107174D02*
D03*
X9071D02*
D03*
X26000Y115048D02*
D03*
X9071D02*
D03*
X26000Y122922D02*
D03*
X9071D02*
D03*
X26000Y130796D02*
D03*
X9071D02*
D03*
X26000Y138670D02*
D03*
X9071D02*
D03*
X26000Y146544D02*
D03*
X9071D02*
D03*
D33*
X72000Y91733D02*
D03*
X77000D02*
D03*
X82000D02*
D03*
X87000D02*
D03*
X72000Y120867D02*
D03*
X77000D02*
D03*
X82000D02*
D03*
X87000D02*
D03*
D34*
X54700Y77300D02*
D03*
X22000Y225190D02*
D03*
D35*
X61885Y81139D02*
D03*
Y78579D02*
D03*
Y76020D02*
D03*
Y73461D02*
D03*
X47515D02*
D03*
Y76020D02*
D03*
Y78579D02*
D03*
Y81139D02*
D03*
D36*
X58539Y70115D02*
D03*
X55980D02*
D03*
X53421D02*
D03*
X50861D02*
D03*
Y84485D02*
D03*
X53421D02*
D03*
X55980D02*
D03*
X58539D02*
D03*
D37*
X135900Y187572D02*
D03*
D38*
X188949Y82249D02*
X191126Y80072D01*
Y79919D02*
Y80072D01*
X177337Y164750D02*
X177508D01*
X179472Y166714D01*
X185051Y78351D02*
X187300Y76103D01*
Y75900D02*
Y76103D01*
X196800Y85000D02*
X196900Y84900D01*
X193202Y85000D02*
X196800D01*
X192551Y85651D02*
X193202Y85000D01*
X173000Y168200D02*
X173163D01*
X175574Y170611D01*
Y170465D02*
Y170611D01*
X7542Y171011D02*
Y178589D01*
Y164859D02*
Y171011D01*
Y164859D02*
X8329Y164072D01*
X7542Y64511D02*
Y72089D01*
X8329Y72877D02*
Y79028D01*
X7542Y72089D02*
X8329Y72877D01*
X7542Y58359D02*
X8329Y57572D01*
X7542Y58359D02*
Y64511D01*
X65300Y243100D02*
Y253100D01*
Y222500D02*
Y243100D01*
X60800Y218000D02*
X65300Y222500D01*
X224999Y49300D02*
X225181Y49482D01*
X212401Y49300D02*
X212583Y49482D01*
X99000Y167800D02*
Y198100D01*
Y151800D02*
Y167800D01*
X98500Y167300D02*
X99000Y167800D01*
X94299Y167300D02*
X98500D01*
X34673Y185800D02*
Y193043D01*
X34973Y145760D02*
Y185500D01*
X34673Y185800D02*
X34973Y185500D01*
X23300Y149244D02*
Y150300D01*
Y149244D02*
X26000Y146544D01*
X33400Y94000D02*
Y144187D01*
X34973Y145760D01*
X319800Y135969D02*
Y141600D01*
Y135969D02*
X320000Y135769D01*
X325000Y141100D02*
X325200Y141300D01*
X325000Y135769D02*
Y141100D01*
X99700Y63500D02*
Y151100D01*
X99400Y54600D02*
Y63200D01*
X99700Y63500D01*
X99000Y151800D02*
X99700Y151100D01*
X63356Y200500D02*
Y209379D01*
X63256Y200500D02*
X63656Y200100D01*
X66800D01*
X209000Y49100D02*
X209200Y49300D01*
X212401D01*
X34673Y193043D02*
X35181Y193550D01*
X36100Y193900D02*
X39000Y196800D01*
X35530Y193900D02*
X36100D01*
X35181Y193550D02*
X35530Y193900D01*
X24349Y193550D02*
X35181D01*
X33400Y94000D02*
X40681Y86719D01*
Y80900D02*
Y86719D01*
X224500Y48801D02*
X224999Y49300D01*
X224500Y39300D02*
Y48801D01*
X57000Y64600D02*
X58100Y65700D01*
X41800Y65100D02*
Y68044D01*
X54756Y64600D02*
X57000D01*
X81900Y225800D02*
X82000Y225900D01*
Y231920D01*
X44745Y215645D02*
X44800Y215700D01*
X44745Y209879D02*
Y215645D01*
X45644Y200500D02*
X53800Y208656D01*
X57844Y200256D02*
Y200500D01*
X51156D02*
X51256Y200400D01*
X54500D01*
X54600Y200500D01*
X57744D01*
X91055Y209480D02*
X92056Y208479D01*
Y200100D02*
Y208479D01*
X86444Y200000D02*
X86544Y200100D01*
X82700Y200000D02*
X86444D01*
X82600Y200100D02*
X82700Y200000D01*
X79556Y200100D02*
X82600D01*
X72945Y209480D02*
X74044Y208380D01*
Y200100D02*
Y208380D01*
X62855Y209879D02*
X63356Y209379D01*
X81900Y215600D02*
X82000Y215500D01*
Y209480D02*
Y215500D01*
X72900Y215400D02*
X72945Y215355D01*
Y209480D02*
Y215355D01*
X53800Y215800D02*
Y232320D01*
Y208656D02*
Y215800D01*
X62855Y209879D02*
Y215945D01*
X60800Y218000D02*
X62855Y215945D01*
X26000Y138670D02*
Y146544D01*
Y130796D02*
Y138670D01*
Y122922D02*
Y130796D01*
X39000Y131900D02*
Y136200D01*
Y131900D02*
X39600Y131300D01*
X72100Y129800D02*
X73600Y131300D01*
X72100Y126200D02*
Y129800D01*
X72000Y126100D02*
X72100Y126200D01*
X72000Y120867D02*
Y126100D01*
X77000Y120867D02*
Y126200D01*
X82000Y91733D02*
X87000D01*
X95000Y98500D02*
X95100Y98600D01*
X95000Y95456D02*
Y98500D01*
X87000Y91733D02*
X88633Y90100D01*
X91200D01*
X91356Y89944D01*
X95000D01*
X21799Y196100D02*
X24349Y193550D01*
X26000Y99300D02*
Y107174D01*
Y115048D01*
Y122922D01*
X51700Y117800D02*
X56700D01*
Y124700D01*
X56100Y125300D02*
X56700Y124700D01*
X39600Y119900D02*
X41700Y117800D01*
X39600Y119900D02*
Y131300D01*
X268600Y67600D02*
Y70344D01*
X268500Y67500D02*
X268600Y67600D01*
X277900Y69900D02*
X280796D01*
X22000Y208899D02*
Y211410D01*
X9201Y196100D02*
X22000Y208899D01*
X38900Y219900D02*
X39000Y219800D01*
Y196800D02*
Y219800D01*
X212583Y49482D02*
Y57300D01*
X225181Y49482D02*
Y57300D01*
X92056Y177956D02*
Y200100D01*
X92000Y177900D02*
X92056Y177956D01*
X124335Y187572D02*
X135900D01*
X124004Y187240D02*
X124335Y187572D01*
X176109Y63000D02*
X184458D01*
X194500Y52958D01*
X195400Y49100D02*
X209000D01*
X194500Y50000D02*
X195400Y49100D01*
X194500Y39300D02*
Y50000D01*
Y52958D01*
X15416Y187792D02*
X18111Y185097D01*
X20458D01*
X15416Y81292D02*
X18111Y78597D01*
X20458D01*
X15416Y55308D02*
X17763D01*
X20458Y58003D01*
X8329Y164072D02*
Y185528D01*
D39*
X179742Y166444D02*
X180149Y166851D01*
X249200Y68900D02*
X249346Y69046D01*
X249200Y68900D02*
X249855Y69555D01*
X209900Y67600D02*
X210555Y66945D01*
X203900Y61703D02*
Y61800D01*
X272500Y109000D02*
X274051Y107449D01*
X140787Y157787D02*
X144200Y161200D01*
X251000Y75103D02*
Y75500D01*
X258324Y95000D02*
X259000D01*
X255200Y98124D02*
X258324Y95000D01*
X204300Y70900D02*
X204700Y70500D01*
X242500Y78300D02*
Y79000D01*
X243000Y79500D01*
X182837Y151000D02*
X185881Y147956D01*
X114500Y157500D02*
X118237Y153763D01*
X280866Y143000D02*
X281000D01*
X266528Y156500D02*
X267500D01*
X263551Y153524D02*
X266528Y156500D01*
X271400Y170400D02*
X272000Y169800D01*
X260227Y163527D02*
X261000Y164300D01*
X249449Y186449D02*
X251600Y188600D01*
X239888Y177187D02*
X243000Y180298D01*
X200349Y171151D02*
X201000Y170500D01*
X200349Y171151D02*
Y173951D01*
X195800Y167402D02*
X196449Y168051D01*
X195800Y165700D02*
Y167402D01*
Y165700D02*
X196500Y165000D01*
X191346Y159000D02*
X194038Y156308D01*
X188700Y158200D02*
X191346Y159000D01*
X194038Y156308D02*
X194232D01*
X192884Y154916D02*
X196100Y151700D01*
X192841Y154916D02*
X192884D01*
X186649Y160251D02*
X188700Y158200D01*
X196500Y165000D02*
X196676D01*
X199800Y161875D01*
X201000Y170500D02*
X201732Y169768D01*
Y168295D02*
Y169768D01*
Y168295D02*
X203976Y166051D01*
X180449Y153051D02*
X180449D01*
X182500Y151000D01*
X182837D01*
X174500Y117000D02*
Y117366D01*
X177529Y120396D01*
X216949Y70449D02*
Y70449D01*
X219000Y72500D01*
X222071Y75571D01*
Y75853D01*
X243000Y79000D02*
X245051Y76949D01*
X243000Y79000D02*
Y79500D01*
X239888Y82612D02*
Y82813D01*
Y82612D02*
X243000Y79500D01*
X259000Y95000D02*
X260500D01*
X262051Y93449D01*
X274051Y106449D02*
Y107449D01*
X281000Y143000D02*
X283051Y145051D01*
X281000Y143000D02*
X281000D01*
X269551Y158551D02*
X270051D01*
X267500Y156500D02*
X269551Y158551D01*
X262551Y165851D02*
Y166851D01*
X261000Y164300D02*
X262551Y165851D01*
X260227Y162136D02*
Y163527D01*
X257983Y159092D02*
X260227Y161336D01*
X245051Y182551D02*
X245551D01*
X243000Y180500D02*
X245051Y182551D01*
X243000Y180298D02*
Y180500D01*
X262051Y93449D02*
X262452Y93048D01*
X272949Y82551D02*
X275000Y80500D01*
X275000D01*
X277949Y102551D02*
X280000Y100500D01*
X245051Y76949D02*
X245452Y76548D01*
X248949Y73051D02*
X251000Y75103D01*
X255949Y66051D02*
Y68949D01*
X256000Y69500D02*
X256500D01*
X255949Y68949D02*
X256500Y69500D01*
X216548Y70048D02*
X216949Y70449D01*
X212657Y66945D02*
X213051Y66551D01*
X210555Y66945D02*
X212657D01*
X209900Y67300D02*
Y67600D01*
X203900Y61703D02*
X206051Y59551D01*
X206451Y73051D02*
X206551D01*
X204300Y70900D02*
X206451Y73051D01*
X200000Y75000D02*
X202051Y77051D01*
X199800Y75000D02*
X200000D01*
X186900Y86900D02*
X189051Y89051D01*
X183400Y90400D02*
X185551Y92551D01*
X168551Y111051D02*
Y114249D01*
X168300Y114500D02*
X168500D01*
X176551Y153851D02*
Y156949D01*
X176300Y153600D02*
X176551Y153851D01*
X183051Y163949D02*
X183645Y164543D01*
Y168746D02*
X183900Y169000D01*
X185951Y166949D01*
X186051D01*
X183645Y164543D02*
Y168746D01*
X192451Y171949D02*
X192551D01*
X190400Y174000D02*
X192451Y171949D01*
X266449Y170749D02*
X268700Y173000D01*
Y173100D01*
X269449Y167749D02*
Y168449D01*
X271400Y170400D01*
X273949Y162449D02*
Y162749D01*
X275900Y164700D01*
X269051Y86449D02*
X269445Y86843D01*
Y88645D01*
Y89300D02*
X270100D01*
X269445Y88645D02*
X270100Y89300D01*
X269651Y82551D02*
X272949D01*
X269400Y82300D02*
Y82700D01*
Y82300D02*
X269651Y82551D01*
X209949Y63449D02*
X210343Y63055D01*
X212245D01*
X212900Y62400D02*
Y63055D01*
X251657Y69555D02*
X252051Y69949D01*
X249855Y69555D02*
X251657D01*
X249200Y68900D02*
Y69555D01*
X10000Y37100D02*
Y42800D01*
X9600Y36700D02*
X10000Y37100D01*
X20000Y36900D02*
Y42800D01*
X19800Y36700D02*
X20000Y36900D01*
X30000Y37200D02*
Y42800D01*
X29700Y36900D02*
X30000Y37200D01*
X40000Y37100D02*
Y42800D01*
X39600Y36700D02*
X40000Y37100D01*
X50000Y36900D02*
Y42800D01*
Y36900D02*
X50200Y36700D01*
X60000Y36900D02*
Y42800D01*
X70000Y36600D02*
Y42800D01*
X80000Y36800D02*
Y42800D01*
X79900Y36700D02*
X80000Y36800D01*
X272500Y109000D02*
X273000D01*
X219600Y175400D02*
X219683D01*
X216504Y178579D02*
X219683Y175400D01*
X274153Y75856D02*
X274300Y76002D01*
X268600Y75856D02*
X271600D01*
X274153D01*
X274744Y64700D02*
Y69456D01*
X274300Y69900D02*
X274744Y69456D01*
X259000Y95000D02*
X259800Y95800D01*
X212245Y63055D02*
X212900Y62400D01*
X212200Y79900D02*
X212350Y80050D01*
X212550D01*
X212200Y78700D02*
Y79900D01*
X210449Y76949D02*
X212200Y78700D01*
X194773Y98664D02*
X197017Y100909D01*
X191265Y98664D02*
X194773D01*
X189449Y96449D02*
Y96849D01*
X191265Y98664D01*
X61700Y117800D02*
Y124600D01*
X62000Y124900D01*
X289100Y151100D02*
Y151300D01*
X286949Y148949D02*
X289100Y151100D01*
X288700Y151300D02*
X289100D01*
X172449Y114949D02*
X174500Y117000D01*
X174000Y116500D02*
X174500Y117000D01*
X249346Y69046D02*
X249787D01*
X168300Y114500D02*
X168551Y114249D01*
X168300Y114500D02*
X168600Y114200D01*
Y113800D02*
Y114200D01*
X274744Y64700D02*
X280256D01*
X194488Y180512D02*
X195400Y179600D01*
X194488Y180512D02*
Y182000D01*
X262700Y86303D02*
Y89300D01*
X262449Y86051D02*
X262700Y86303D01*
X197500Y95765D02*
X197550Y95715D01*
X197500Y95765D02*
Y95824D01*
X199800Y98124D01*
X196449Y89949D02*
X197550Y91050D01*
Y95715D01*
D40*
X221500Y111259D02*
X227650Y117409D01*
X222700Y110762D02*
X228850Y116912D01*
X223900Y110265D02*
X230050Y116415D01*
X225100Y109768D02*
X231250Y115918D01*
X226300Y109271D02*
X232450Y115421D01*
X227500Y108774D02*
X233650Y114924D01*
X221500Y94769D02*
Y111259D01*
X212328Y85597D02*
X221500Y94769D01*
X222700Y93185D02*
Y110762D01*
X213720Y84205D02*
X222700Y93185D01*
X223900Y88809D02*
Y110265D01*
X216512Y81421D02*
X223900Y88809D01*
X225100Y87844D02*
Y109768D01*
Y87844D02*
X225150Y87793D01*
Y87382D02*
Y87793D01*
X226300Y88341D02*
Y109271D01*
Y88341D02*
X226350Y88291D01*
Y85700D02*
Y88291D01*
X227500Y88838D02*
Y108774D01*
Y88838D02*
X227550Y88788D01*
Y84116D02*
Y88788D01*
X228700Y108277D02*
X234850Y114427D01*
X228700Y89335D02*
Y108277D01*
Y89335D02*
X228750Y89285D01*
X230103Y94543D02*
X237550Y101990D01*
X230103Y88941D02*
Y94543D01*
X231303Y92703D02*
X232600Y94000D01*
X231303Y88443D02*
Y92703D01*
X229950Y88788D02*
X230103Y88941D01*
X231150Y88291D02*
X231303Y88443D01*
X281698Y127907D02*
X295650Y141859D01*
X293200Y155435D02*
X293650Y155885D01*
X292000Y155932D02*
X292450Y156382D01*
X290800Y156429D02*
X291250Y156879D01*
X290250Y148611D02*
Y149809D01*
X293200Y153235D02*
Y155435D01*
X292000Y152738D02*
Y155932D01*
X290800Y152241D02*
Y156429D01*
X290250Y149809D02*
X290850Y150409D01*
X292050Y145832D02*
Y152688D01*
X281646Y135429D02*
X292050Y145832D01*
X293250Y144550D02*
Y153185D01*
X280207Y131507D02*
X293250Y144550D01*
X294450Y142356D02*
Y154988D01*
X281202Y129107D02*
X294450Y142356D01*
X295650Y141859D02*
Y154491D01*
X293200Y153235D02*
X293250Y153185D01*
X292000Y152738D02*
X292050Y152688D01*
X290800Y152241D02*
X290850Y152191D01*
Y150409D02*
Y152191D01*
X283494Y141855D02*
X290250Y148611D01*
X292050Y183041D02*
Y205485D01*
X290159Y181150D02*
X292050Y183041D01*
X290118Y181150D02*
X290159D01*
X293250Y182544D02*
Y209150D01*
X290656Y179950D02*
X293250Y182544D01*
X290615Y179950D02*
X290656D01*
X295400Y182997D02*
Y199900D01*
X291153Y178750D02*
X295400Y182997D01*
X291112Y178750D02*
X291153D01*
X300650Y186550D02*
Y200691D01*
X291650Y177550D02*
X300650Y186550D01*
X291610Y177550D02*
X291650D01*
X289150Y176788D02*
X291112Y178750D01*
X287950Y177285D02*
X290615Y179950D01*
X286750Y177782D02*
X290118Y181150D01*
X290850Y183579D02*
Y204988D01*
X285550Y178279D02*
X290850Y183579D01*
X289150Y174012D02*
Y176788D01*
X287950Y173515D02*
Y177285D01*
X286750Y173018D02*
Y177782D01*
X285550Y172521D02*
Y178279D01*
X19829Y68300D02*
X19929D01*
X16700Y75106D02*
X18358D01*
X18400Y75147D02*
X20700D01*
X18358Y75106D02*
X18400Y75147D01*
X99450Y238850D02*
Y246723D01*
X94200Y233600D02*
X99450Y238850D01*
X94200Y220441D02*
Y233600D01*
X100650Y237350D02*
Y248450D01*
X96400Y233100D02*
X100650Y237350D01*
X96400Y225400D02*
Y233100D01*
Y225400D02*
X100050Y221750D01*
X94200Y220441D02*
X97650Y216990D01*
X92300Y240100D02*
X95300Y243100D01*
X92300Y219300D02*
Y240100D01*
Y219300D02*
X95500Y216100D01*
X100050Y212910D02*
Y221750D01*
X304850Y181050D02*
Y213990D01*
X296050Y172250D02*
X304850Y181050D01*
X296050Y154891D02*
Y172250D01*
X303650Y181550D02*
Y212150D01*
X294850Y172750D02*
X303650Y181550D01*
X294850Y155388D02*
Y172750D01*
X301850Y181709D02*
Y202950D01*
X293650Y173509D02*
X301850Y181709D01*
X293650Y155885D02*
Y173509D01*
X292450Y156382D02*
Y175350D01*
X280647Y170636D02*
Y204012D01*
X281950Y203809D02*
X283550Y205410D01*
X283150Y203312D02*
X284750Y204912D01*
X284350Y197409D02*
X289650Y202709D01*
X284350Y172024D02*
Y197409D01*
X283150Y171527D02*
Y203312D01*
X281950Y171030D02*
Y203809D01*
X280647Y170636D02*
X281100Y170183D01*
X291250Y156879D02*
Y173609D01*
X281100Y165961D02*
Y170183D01*
X281950Y171030D02*
X282850Y170130D01*
Y166014D02*
Y170130D01*
X283150Y171527D02*
X284050Y170627D01*
Y165517D02*
Y170627D01*
X284350Y172024D02*
X285250Y171124D01*
Y164087D02*
Y171124D01*
X285550Y172521D02*
X286450Y171621D01*
Y163141D02*
Y171621D01*
X286750Y173018D02*
X287650Y172118D01*
Y160919D02*
Y172118D01*
X287950Y173515D02*
X288850Y172615D01*
Y159335D02*
Y172615D01*
X289150Y174012D02*
X290050Y173112D01*
Y157751D02*
Y173112D01*
X290350Y176291D02*
X291610Y177550D01*
X290350Y174509D02*
Y176291D01*
Y174509D02*
X291250Y173609D01*
X292450Y175350D02*
X292500Y175400D01*
X269119Y147956D02*
X285250Y164087D01*
X267881Y149348D02*
X284050Y165517D01*
X270991Y154155D02*
X282850Y166014D01*
X311927Y167719D02*
X314500Y170292D01*
X311927Y166183D02*
Y167719D01*
X270511Y147202D02*
X286450Y163141D01*
X307106Y67600D02*
X313900Y60806D01*
X297897Y67600D02*
X307106D01*
X294797Y70700D02*
X297897Y67600D01*
X307603Y68800D02*
X315100Y61303D01*
X298394Y68800D02*
X307603D01*
X295294Y71900D02*
X298394Y68800D01*
X54700Y77300D02*
X58539Y73461D01*
X61885D01*
X54400Y130300D02*
Y167100D01*
X131756Y81400D02*
X131856Y81300D01*
X136200D01*
X136700Y81800D01*
X155650Y97312D02*
X156600Y98262D01*
X158750Y100650D02*
X158800Y100600D01*
X158400Y106700D02*
X158500D01*
X154450Y97809D02*
X155350Y98709D01*
X142550Y99891D02*
X146750Y95691D01*
X141350Y98050D02*
X145300Y94100D01*
X118237Y135237D02*
X120900Y137900D01*
X118237Y135213D02*
Y135237D01*
X120900Y137900D02*
Y140000D01*
X132000Y121200D02*
Y125500D01*
X198750Y107591D02*
X200009Y108850D01*
X198750Y107009D02*
Y107591D01*
X200900Y106700D02*
X201500Y106100D01*
X197991Y106250D02*
X198750Y107009D01*
X196790Y106250D02*
X197991D01*
X194232Y103692D02*
X196790Y106250D01*
X195738Y102301D02*
X200538Y107100D01*
X201500D01*
Y106100D02*
Y107100D01*
X227650Y117409D02*
Y121588D01*
X228850Y116912D02*
Y122085D01*
X230050Y116415D02*
Y122582D01*
X231250Y115918D02*
Y123079D01*
X232450Y115421D02*
Y123576D01*
X233650Y114924D02*
Y124073D01*
X234850Y114427D02*
Y124570D01*
X236050Y112550D02*
Y137609D01*
X235400Y111900D02*
X236050Y112550D01*
X238450Y118450D02*
X239400Y117500D01*
X238450Y118450D02*
Y173176D01*
X259000Y116500D02*
Y145100D01*
X265500Y121759D02*
X265850Y122109D01*
X259000Y116500D02*
X259600Y115900D01*
X265500Y112879D02*
X267727Y110652D01*
X131317Y126183D02*
X132000Y125500D01*
X133500Y135800D02*
X133750Y135550D01*
Y129722D02*
Y135550D01*
Y129722D02*
X136611Y126862D01*
X131100Y129900D02*
X131600Y130400D01*
X267700Y119000D02*
X267731D01*
X271903Y114828D01*
X316300Y36200D02*
Y61800D01*
X315100Y35703D02*
Y61303D01*
X313900Y36203D02*
Y60806D01*
X291200Y27300D02*
X325200D01*
X246367D02*
X280367D01*
X201533D02*
X235533D01*
X156700D02*
X190700D01*
X310347Y30950D02*
X310898Y31501D01*
X286577Y30950D02*
X310347D01*
X309847Y32150D02*
X313900Y36203D01*
X309350Y33350D02*
X312700Y36700D01*
X313699Y34302D02*
X315100Y35703D01*
X313699Y34299D02*
Y34302D01*
X310898Y31501D02*
X310901D01*
X313699Y34299D01*
X282927Y27300D02*
X286577Y30950D01*
X280367Y27300D02*
X282927D01*
X316300Y36200D02*
X325200Y27300D01*
X280796Y76002D02*
Y81804D01*
X271150Y91450D02*
X280796Y81804D01*
X271696Y93850D02*
X272144D01*
X272194Y95050D02*
X272641D01*
X272691Y96250D02*
X273138D01*
X269026Y92650D02*
X271647D01*
X266328Y102613D02*
X272691Y96250D01*
X262159Y105084D02*
X272194Y95050D01*
X264647Y100900D02*
X271696Y93850D01*
X267689Y91450D02*
X271150D01*
X258231Y100909D02*
X267689Y91450D01*
X257984Y100909D02*
X258231D01*
X301000Y82300D02*
Y93000D01*
X295000Y99000D02*
X301000Y93000D01*
X287300Y99000D02*
X295000D01*
X281151Y105149D02*
X287300Y99000D01*
X281151Y105149D02*
Y111249D01*
X294000Y82300D02*
Y93600D01*
X293300Y94300D02*
X294000Y93600D01*
X278150Y97445D02*
X283166D01*
X282900Y94400D02*
Y94600D01*
X282749Y94249D02*
X282900Y94400D01*
X279551Y94249D02*
X282749D01*
X266335Y109260D02*
X278150Y97445D01*
X264943Y107868D02*
X278563Y94249D01*
X266328Y102613D02*
Y103700D01*
X263551Y106476D02*
X266328Y103700D01*
X278563Y94249D02*
X279551D01*
X272455Y111492D02*
X274508D01*
X270511Y113436D02*
X272455Y111492D01*
X259376Y102301D02*
X269026Y92650D01*
X263560Y100900D02*
X264647D01*
X260767Y103692D02*
X263560Y100900D01*
X257600Y56356D02*
X262100D01*
X247600D02*
X252100D01*
X237600D02*
X242100D01*
X301973Y125627D02*
X303400Y124200D01*
Y124100D02*
Y124200D01*
X179466Y127900D02*
X180200D01*
X174745Y123179D02*
X179466Y127900D01*
X190309Y152132D02*
X195250Y147191D01*
X195150Y125309D02*
X196300Y124159D01*
X247500Y56456D02*
X247600Y56356D01*
X144600Y94100D02*
X145300D01*
X148100Y124000D02*
X148300D01*
X140787Y130916D02*
Y131037D01*
X148100Y124000D02*
X148299Y124199D01*
X228750Y80032D02*
X232928Y75853D01*
X228750Y80032D02*
Y89285D01*
X220679Y77245D02*
X227550Y84116D01*
X231150Y86510D02*
X231400Y86260D01*
X217896Y80127D02*
X225150Y87382D01*
X219287Y78637D02*
X226350Y85700D01*
X231150Y86510D02*
Y88291D01*
X217896Y80029D02*
Y80127D01*
X233768Y177858D02*
X238450Y173176D01*
X232650Y126770D02*
X234850Y124570D01*
X233850Y141591D02*
X236450Y144191D01*
X225350Y118450D02*
Y122191D01*
Y118450D02*
X225500Y118300D01*
X232650Y142088D02*
X234300Y143738D01*
Y150300D01*
X232377Y177553D02*
X236450Y173479D01*
Y144191D02*
Y173479D01*
X142900Y162941D02*
Y164600D01*
X135219Y163860D02*
X138709Y167350D01*
X232928Y75853D02*
X237251Y71531D01*
Y67749D02*
Y71531D01*
X235713Y78637D02*
X240757Y73592D01*
Y71396D02*
Y73592D01*
X119800Y173800D02*
X120900Y172700D01*
X112600Y177100D02*
X118600Y171100D01*
X112600Y177100D02*
Y179754D01*
X41200Y175400D02*
X47000D01*
X47100Y175300D01*
X47600Y172759D02*
X49250Y174409D01*
X47600Y172200D02*
Y172759D01*
X46391Y179050D02*
X49250Y176191D01*
Y174409D02*
Y176191D01*
X41100Y183044D02*
X45094Y179050D01*
X80800Y179700D02*
X80844Y179656D01*
X84400D01*
X76456Y174144D02*
X81100D01*
X84400D01*
X75200Y175400D02*
X76456Y174144D01*
X83800Y157200D02*
X83900Y157300D01*
X83800Y154056D02*
Y157200D01*
X29944Y185356D02*
X30100Y185200D01*
X26700Y185356D02*
X29944D01*
X113100Y130438D02*
Y132860D01*
Y130438D02*
X113250Y130288D01*
Y127512D02*
Y130288D01*
X113100Y127362D02*
X113250Y127512D01*
X113100Y110300D02*
Y127362D01*
X111900Y129941D02*
Y134444D01*
Y129941D02*
X112050Y129791D01*
Y128009D02*
Y129791D01*
X111900Y127859D02*
X112050Y128009D01*
X111900Y102000D02*
Y127859D01*
X109900Y128900D02*
Y135228D01*
X114061Y139389D01*
X111900Y134444D02*
X115454Y137997D01*
X113100Y132860D02*
X116845Y136605D01*
X121950Y92350D02*
Y122222D01*
X119800Y113900D02*
X120750D01*
X121800Y92200D02*
X121950Y92350D01*
Y122222D02*
X126589Y126862D01*
X120750Y114850D02*
Y122991D01*
X125197Y127438D01*
X119800Y113900D02*
X120750Y114850D01*
X125197Y127438D02*
Y128253D01*
X64050Y116550D02*
X66700Y113900D01*
X52453Y188600D02*
X53423D01*
X55754Y190931D01*
X67213D01*
X67600Y190543D01*
X71340Y187240D02*
X71400Y187300D01*
X71340Y183457D02*
Y187240D01*
X63347Y182944D02*
X63860Y183457D01*
X57800Y182944D02*
X63347D01*
X60856Y188456D02*
X61100Y188700D01*
X57800Y188456D02*
X60856D01*
X52056Y179844D02*
X52200Y179700D01*
X52056Y179844D02*
Y182800D01*
X46544D02*
X46547Y182803D01*
Y188600D01*
X49880Y191173D02*
X52453Y188600D01*
X44600Y191173D02*
X49880D01*
X41982Y188556D02*
X44600Y191173D01*
X41100Y188556D02*
X41982D01*
X24286Y172700D02*
X28300Y168686D01*
X31700Y167056D02*
Y168641D01*
X19929Y177359D02*
X22982D01*
X31700Y168641D01*
X22186Y174800D02*
X24286Y172700D01*
X24600D01*
X19929Y174800D02*
X22186D01*
X261050Y231299D02*
X262904Y233153D01*
X258650Y225590D02*
X264800Y219441D01*
X258650Y236950D02*
X261100Y239400D01*
X259850Y226804D02*
X266000Y220654D01*
X264500Y229300D02*
X270000Y223800D01*
X259850Y226804D02*
Y231796D01*
X262407Y234353D01*
X258650Y225590D02*
Y236950D01*
X261050Y227871D02*
Y231299D01*
Y227871D02*
X267850Y221071D01*
Y180747D02*
Y221071D01*
X262407Y234353D02*
X265653D01*
X266000Y180594D02*
Y220654D01*
X264800Y181091D02*
Y219441D01*
X112200Y81400D02*
X115447D01*
X121353D02*
X126244D01*
X152898Y220500D02*
X153484Y219914D01*
X150700Y220500D02*
X152898D01*
X118500Y222000D02*
X118800Y221700D01*
X118500Y222000D02*
Y229300D01*
X155700Y225800D02*
X157632Y223868D01*
Y220884D02*
Y223868D01*
Y220884D02*
X158602Y219914D01*
X161161D02*
Y226639D01*
X163721Y224520D02*
X168500Y229300D01*
X163721Y219914D02*
Y224520D01*
X158500Y229300D02*
X161161Y226639D01*
X178314Y219914D02*
X178800Y220400D01*
X176516Y219914D02*
X178314D01*
X208500Y229300D02*
X209000Y228800D01*
Y218400D02*
Y228800D01*
X199100Y218200D02*
Y219300D01*
X199000Y218100D02*
X199100Y218200D01*
X199300Y206300D02*
X199900Y205700D01*
X190500Y188700D02*
X192650Y190850D01*
X183447Y220753D02*
X184700Y219500D01*
X183447Y220753D02*
Y237180D01*
X188900Y198700D02*
X190500Y200300D01*
X188900Y177741D02*
Y198700D01*
X185600Y225000D02*
Y226751D01*
X173957Y217043D02*
X174600Y216400D01*
X173957Y217043D02*
Y219914D01*
X186100Y184300D02*
X186150Y184350D01*
X171398Y216602D02*
Y219914D01*
Y216602D02*
X171400Y216600D01*
X198500Y218600D02*
X199000Y218100D01*
X198500Y218600D02*
Y229300D01*
X173553Y226000D02*
X175500D01*
X169809Y222255D02*
X173553Y226000D01*
X169809Y220884D02*
Y222255D01*
X168839Y219914D02*
X169809Y220884D01*
X184647Y227704D02*
Y231599D01*
Y227704D02*
X185600Y226751D01*
X174000Y229300D02*
X178500D01*
X167250Y222550D02*
X174000Y229300D01*
X184647Y231599D02*
X189450Y236402D01*
X181150Y239477D02*
X183447Y237180D01*
X189450Y236402D02*
Y247250D01*
X167250Y220884D02*
Y222550D01*
X166279Y219914D02*
X167250Y220884D01*
X240592Y223592D02*
X241516Y222668D01*
X240592Y223592D02*
X241000Y224000D01*
X241516Y219914D02*
Y222668D01*
X240647Y227704D02*
X241410Y226942D01*
X241516Y200116D02*
X241600Y200200D01*
X241516Y196686D02*
Y200116D01*
X221043Y200243D02*
X221100Y200300D01*
X221043Y196686D02*
Y200243D01*
X151300Y213800D02*
X155072Y217572D01*
X221000Y216100D02*
X221043Y216143D01*
Y219914D01*
X176500Y193200D02*
X176516Y193216D01*
Y196686D01*
X156000Y193100D02*
X156043Y193143D01*
Y196686D01*
X151300Y189700D02*
Y213800D01*
X163721Y191520D02*
Y196686D01*
Y191520D02*
X164550Y190691D01*
X161161Y191602D02*
Y196686D01*
X160250Y190691D02*
X161161Y191602D01*
X168900Y166700D02*
X170850Y164750D01*
X162800Y82438D02*
X166956Y86594D01*
X165200Y83140D02*
X167453Y85394D01*
X165200Y80400D02*
Y83140D01*
Y80400D02*
X165600Y80000D01*
X162800Y81700D02*
Y82438D01*
X166715Y87794D02*
X171200Y92279D01*
X166334Y87794D02*
X166715D01*
X167212Y86594D02*
X172400Y91782D01*
X166956Y86594D02*
X167212D01*
X167709Y85394D02*
X173600Y91285D01*
X167453Y85394D02*
X167709D01*
X167800Y83788D02*
X174800Y90788D01*
X167800Y82700D02*
Y83788D01*
X206291Y99150D02*
X211300Y104159D01*
X205909Y99150D02*
X206291D01*
X231400Y84500D02*
Y86260D01*
Y84500D02*
X233768Y82132D01*
X233300Y86618D02*
X238496Y81421D01*
X233300Y86618D02*
Y87400D01*
X148586Y146075D02*
X150530Y148019D01*
X146675Y146075D02*
X148586D01*
X146100Y145500D02*
X146675Y146075D01*
X261350Y126750D02*
Y147850D01*
Y126750D02*
X262000Y126100D01*
X260300Y148900D02*
X261350Y147850D01*
X265850Y122109D02*
Y123699D01*
X272350Y120220D02*
Y125108D01*
X275343Y128101D01*
X271150Y125605D02*
X274846Y129300D01*
X265850Y123699D02*
X273852Y131701D01*
X278615D02*
X278808Y131507D01*
X273852Y131701D02*
X278615D01*
X277814Y129107D02*
X281202D01*
X277621Y129300D02*
X277814Y129107D01*
X274846Y129300D02*
X277621D01*
X277124Y128101D02*
X277317Y127907D01*
X275343Y128101D02*
X277124D01*
X299150Y145109D02*
X299350Y145309D01*
X299150Y135324D02*
Y145109D01*
Y135324D02*
X299573Y134900D01*
Y125100D02*
Y134900D01*
X298800Y124326D02*
X299573Y125100D01*
X297800Y153600D02*
X299350Y152050D01*
Y145309D02*
Y152050D01*
X300350Y144612D02*
X300550Y144812D01*
X300350Y135821D02*
Y144612D01*
X270511Y146564D02*
Y147202D01*
X184600Y152021D02*
Y153700D01*
Y152021D02*
X187273Y149348D01*
X116845Y152195D02*
X118789Y150251D01*
X274051Y106449D02*
X274653Y107050D01*
X280255Y123179D02*
X285746Y117688D01*
X287712D01*
X300350Y135821D02*
X300773Y135397D01*
X258100Y164776D02*
Y169300D01*
X255200Y161875D02*
X258100Y164776D01*
X256900Y166360D02*
Y169797D01*
X253808Y163268D02*
X256900Y166360D01*
X139395Y159435D02*
X142900Y162941D01*
X40900Y149100D02*
X46000D01*
X35750Y143850D02*
X40900Y149000D01*
X35750Y126877D02*
Y143850D01*
X305100Y138156D02*
X307487Y135769D01*
X310000D01*
X317650Y142491D02*
X320000Y144841D01*
Y156832D01*
X322919Y127750D02*
Y142059D01*
X325000Y144141D01*
Y156832D01*
X274508Y111492D02*
X276800Y109200D01*
X319600Y165244D02*
X320000Y164844D01*
Y156832D02*
Y164844D01*
X324700Y170756D02*
X324700Y170756D01*
X319600Y170756D02*
X324700D01*
X314500Y165244D02*
X319600D01*
X314500Y170292D02*
Y170756D01*
X302844Y155700D02*
X304900Y153644D01*
X139395Y159155D02*
Y159435D01*
X131700Y52000D02*
X133159Y50541D01*
Y44659D02*
Y50541D01*
X69400Y156900D02*
X70100Y157600D01*
X75200D01*
X41200D02*
X47100D01*
X35750Y126877D02*
X37400Y125227D01*
Y106100D02*
Y125227D01*
X27100Y199159D02*
X30650Y202709D01*
X34950Y202409D02*
Y207150D01*
X34000Y201459D02*
X34950Y202409D01*
X34000Y196400D02*
Y201459D01*
X37400Y106100D02*
X41700Y101800D01*
X81100Y58456D02*
Y77700D01*
X125200Y73000D02*
X126600Y74400D01*
X143200Y61456D02*
Y70200D01*
X137200D02*
Y70443D01*
X137171Y70471D02*
X137200Y70443D01*
X125200Y72900D02*
Y73000D01*
X177400Y77000D02*
X177750Y77350D01*
X164000Y88500D02*
Y91760D01*
X179550Y75850D02*
Y80388D01*
X178400Y81538D02*
X179550Y80388D01*
X179600Y83400D02*
X180600Y82400D01*
X177200Y81041D02*
Y103363D01*
X177750Y77350D02*
Y80490D01*
X177200Y81041D02*
X177750Y80490D01*
X75100Y58456D02*
X75300Y58656D01*
Y70700D01*
X69100Y58456D02*
X71673Y55883D01*
Y49650D02*
Y55883D01*
X179550Y75850D02*
X180100Y75300D01*
X176000Y80000D02*
Y104947D01*
X69100Y66800D02*
X70200Y67900D01*
X69100Y58456D02*
Y66800D01*
X63100Y58456D02*
X65100Y60456D01*
Y65000D01*
X62950Y64306D02*
Y70450D01*
X63000Y70500D01*
X57100Y58456D02*
X62950Y64306D01*
X175600Y79600D02*
X176000Y80000D01*
X167256Y83244D02*
X167800Y82700D01*
X51156Y58456D02*
X53600Y60900D01*
X51100Y58456D02*
X51156D01*
X45100D02*
X47340Y60696D01*
X47577D01*
X39100Y61500D02*
X39200Y61600D01*
X39100Y58456D02*
Y61500D01*
X61885Y78579D02*
X62713D01*
X64655Y80521D01*
Y85255D01*
X66200Y86800D01*
X55900Y87900D02*
X55980Y87821D01*
Y84485D02*
Y87821D01*
X19929Y70859D02*
X19970Y70900D01*
X26144D01*
X28644Y68400D01*
X27394Y75650D02*
X28644Y74400D01*
X23410Y75650D02*
X27394D01*
X22865Y75106D02*
X23410Y75650D01*
X20742Y75106D02*
X22865D01*
X20700Y75147D02*
X20742Y75106D01*
X39131Y76031D02*
X47505D01*
X36631Y73531D02*
X39131Y76031D01*
X47505D02*
X47515Y76020D01*
X36631Y72354D02*
Y73531D01*
X34156Y69879D02*
X36631Y72354D01*
X34156Y68400D02*
Y69879D01*
Y74400D02*
X37984Y78228D01*
X47164D01*
X47515Y78579D01*
X36527Y54892D02*
X38800Y57165D01*
Y58156D01*
X36527Y51227D02*
Y54892D01*
X33900Y48600D02*
X36527Y51227D01*
X33900Y33700D02*
Y48600D01*
X65673Y44900D02*
Y55883D01*
X76100Y15900D02*
Y47859D01*
X78150Y49909D02*
Y55406D01*
X71673Y49650D02*
X73900Y47423D01*
X289650Y202709D02*
Y204491D01*
X293250Y209150D02*
X293900Y209800D01*
X291750Y215550D02*
X296000Y219800D01*
X290550Y217390D02*
X295110Y221950D01*
X289350Y217888D02*
X294612Y223150D01*
X291750Y205785D02*
Y215550D01*
X290550Y205288D02*
Y217390D01*
X289350Y204791D02*
Y217888D01*
Y204791D02*
X289650Y204491D01*
X290550Y205288D02*
X290850Y204988D01*
X291750Y205785D02*
X292050Y205485D01*
X294612Y223150D02*
X294723D01*
X295110Y221950D02*
X295220D01*
X289450Y227644D02*
Y247250D01*
X278050Y232750D02*
X280600Y235300D01*
X279250Y230909D02*
X282750Y234409D01*
X278050Y204912D02*
X278353Y204610D01*
Y201302D02*
Y204610D01*
X281400Y226200D02*
X284500Y229300D01*
X281100Y237841D02*
Y247300D01*
Y237841D02*
X282750Y236191D01*
Y234409D02*
Y236191D01*
X142600Y60856D02*
X143200Y61456D01*
X131743Y60856D02*
Y68743D01*
X126314Y60856D02*
X126600Y61142D01*
X120886Y60856D02*
Y72814D01*
X115457Y60856D02*
X115800Y61199D01*
Y67500D01*
X104600Y60856D02*
Y65200D01*
X104500Y65300D02*
X104600Y65200D01*
X110000Y67700D02*
X110029Y67671D01*
Y60856D02*
Y67671D01*
X255355Y89506D02*
X263830Y81030D01*
X250391Y83850D02*
X254100Y80141D01*
X250900Y80300D02*
Y81240D01*
X250110Y83850D02*
X250391D01*
X254100Y79500D02*
Y80141D01*
X244064Y86989D02*
X247603Y83450D01*
X248691D01*
X250900Y81240D01*
X255355Y89506D02*
Y91105D01*
X254850Y91610D02*
X255355Y91105D01*
X254155Y89009D02*
X260200Y82964D01*
Y81500D02*
Y82964D01*
X251024Y93739D02*
X254155Y90608D01*
X251024Y93739D02*
Y93949D01*
X254155Y89009D02*
Y90608D01*
X254850Y91610D02*
Y92906D01*
X252416Y95341D02*
X254850Y92906D01*
X253900Y85300D02*
Y86141D01*
X248876Y91165D02*
X253900Y86141D01*
X248240Y91165D02*
X248876D01*
X248450Y85510D02*
X250110Y83850D01*
X248450Y85510D02*
Y85790D01*
X250421Y86200D02*
X250800D01*
X246848Y89773D02*
X250421Y86200D01*
X245860Y88381D02*
X248450Y85790D01*
X245456Y88381D02*
X245860D01*
X246969Y81300D02*
X247800D01*
X242672Y85597D02*
X246969Y81300D01*
X171200Y92279D02*
Y110061D01*
X172400Y109564D02*
X180313Y117477D01*
X172400Y91782D02*
Y109564D01*
X173600Y108115D02*
X181705Y116220D01*
X173600Y91285D02*
Y108115D01*
X174800Y106531D02*
X183097Y114828D01*
X174800Y90788D02*
Y106531D01*
X176000Y104947D02*
X184489Y113436D01*
X177200Y103363D02*
X185881Y112044D01*
X274500Y9200D02*
X274800Y9500D01*
X280367D01*
X245000Y25933D02*
X246367Y27300D01*
X245000Y21056D02*
Y25933D01*
X241500Y15500D02*
X241544Y15544D01*
X245000D01*
X252400Y9500D02*
X252500Y9400D01*
X246367Y9500D02*
X252400D01*
X229600Y9200D02*
X229900Y9500D01*
X235533D01*
X201500Y27267D02*
X201533Y27300D01*
X201500Y21056D02*
Y27267D01*
X204656Y15544D02*
X204800Y15400D01*
X201500Y15544D02*
X204656D01*
X207000Y9500D02*
X207500Y9000D01*
X201533Y9500D02*
X207000D01*
X184700Y9200D02*
X190400D01*
X190700Y9500D01*
X162500D02*
X162700Y9700D01*
X156700Y9500D02*
X162500D01*
X153100Y15700D02*
X156344D01*
X156500Y15544D01*
Y27100D02*
X156700Y27300D01*
X156500Y21056D02*
Y27100D01*
X137200Y52100D02*
X138600Y50700D01*
Y36447D02*
Y50700D01*
X137553Y35400D02*
X138600Y36447D01*
X108600Y50400D02*
X110000Y51800D01*
X108600Y38101D02*
Y50400D01*
X108572Y38073D02*
X108600Y38101D01*
X123517Y40483D02*
X124000Y40000D01*
X119017Y40483D02*
X123517D01*
X124000Y40000D02*
X124483Y40483D01*
X128983D01*
X128800Y35600D02*
X129000Y35400D01*
X131647D01*
X124000Y40000D02*
Y43147D01*
X123100Y35500D02*
X123200Y35600D01*
X116953Y35500D02*
X123100D01*
X123900Y31800D02*
X127700D01*
X128983Y30517D01*
X119017D02*
X120300Y31800D01*
X123900D01*
X124000Y31700D01*
Y28453D02*
Y31700D01*
X142500Y18200D02*
Y19600D01*
X138100Y24000D02*
X142500Y19600D01*
X135500Y24000D02*
X138100D01*
X133159Y26341D02*
X135500Y24000D01*
X104700Y18200D02*
X109047Y22547D01*
X124000D01*
X114841Y26341D02*
Y27185D01*
X111200Y35653D02*
Y47300D01*
X111047Y35500D02*
X111200Y35653D01*
Y47300D02*
X115700Y51800D01*
X108572Y33454D02*
Y38073D01*
Y33454D02*
X114841Y27185D01*
Y46441D02*
X120500Y52100D01*
X114841Y44659D02*
Y46441D01*
X126700Y51753D02*
Y52300D01*
X124000Y49053D02*
X126700Y51753D01*
X142500Y15153D02*
X142600Y15053D01*
X142500Y15153D02*
Y18200D01*
X142600Y52100D02*
X142800Y51900D01*
X142600Y52100D02*
Y55344D01*
X137171Y15053D02*
X137400Y15281D01*
Y18600D01*
X137171Y52129D02*
X137200Y52100D01*
X137171Y52129D02*
Y55344D01*
X131600Y15196D02*
X131743Y15053D01*
X131600Y15196D02*
Y18500D01*
X131700Y52000D02*
X131743Y52043D01*
Y55344D01*
X126314Y15053D02*
X126400Y15138D01*
Y18400D01*
X126314Y52686D02*
X126700Y52300D01*
X126314Y52686D02*
Y55344D01*
X120700Y15238D02*
X120886Y15053D01*
X120700Y15238D02*
Y18200D01*
X120500Y52100D02*
X120886Y52486D01*
Y55344D01*
X115457D02*
X115700Y55101D01*
Y51800D02*
Y55101D01*
X115200Y18400D02*
X115457Y18143D01*
Y15053D02*
Y18143D01*
X110029Y15053D02*
X110200Y15224D01*
Y18400D01*
X110000Y51800D02*
X110029Y51829D01*
Y55344D01*
X104600Y51700D02*
Y55344D01*
Y15053D02*
Y18100D01*
X104700Y18200D01*
X104600Y51700D02*
X104800Y51500D01*
X108572Y53917D02*
X110000Y55344D01*
X84800Y14600D02*
Y54756D01*
X201192Y96733D02*
X205400Y100940D01*
X203976Y93949D02*
X207827Y97800D01*
X211440Y92018D02*
X217300Y97878D01*
X202584Y95825D02*
X205909Y99150D01*
X207827Y97800D02*
X208100D01*
X210397Y92018D02*
X211440D01*
X208152Y89773D02*
X210397Y92018D01*
X211300Y104159D02*
Y104500D01*
X205400Y100940D02*
Y101300D01*
X202584Y95341D02*
Y95825D01*
X209544Y88381D02*
X219600Y98437D01*
X79400Y149100D02*
X82956D01*
X73600D02*
X79400D01*
X79856Y148644D01*
X82500D01*
X88694Y150094D02*
X89800Y151200D01*
X88694Y148453D02*
Y150094D01*
X87500Y147259D02*
X88694Y148453D01*
X87500Y121367D02*
Y147259D01*
X87000Y120867D02*
X87500Y121367D01*
X115454Y150803D02*
X117856Y148400D01*
X188060Y109260D02*
X188665D01*
X235713Y181279D02*
Y181363D01*
X237104Y179971D02*
Y180404D01*
X15774Y107174D02*
X16700Y108100D01*
X9071Y107174D02*
X15774D01*
X16852Y115048D02*
X17100Y114800D01*
X9071Y115048D02*
X16852D01*
X16878Y122922D02*
X16900Y122900D01*
X9071Y122922D02*
X16878D01*
X219288Y181363D02*
Y182178D01*
X16296Y130796D02*
X16300Y130800D01*
X9071Y130796D02*
X16296D01*
X27886Y168686D02*
X28300D01*
X26600Y167400D02*
X27886Y168686D01*
X26600Y166956D02*
Y167400D01*
X28500Y152641D02*
Y159500D01*
X26600Y161400D02*
X28500Y159500D01*
X26600Y161400D02*
Y161444D01*
X31644Y161544D02*
X31700D01*
X29700Y159600D02*
X31644Y161544D01*
X29700Y152400D02*
Y159600D01*
X28350Y152491D02*
X28500Y152641D01*
X29700Y152400D02*
X30500Y151600D01*
X28350Y151350D02*
Y152491D01*
X27400Y150400D02*
X28350Y151350D01*
X115600Y128600D02*
X117003D01*
X117903Y129500D01*
X118092D01*
X115600Y125500D02*
X118400Y128300D01*
X119676D01*
X122413Y131037D01*
X118092Y129500D02*
X121021Y132429D01*
X46000Y149100D02*
X46100Y149200D01*
X61700Y101800D02*
X65400D01*
X52100Y102200D02*
Y109100D01*
X51700Y101800D02*
X52100Y102200D01*
X56700Y101800D02*
X57200Y101300D01*
Y93200D02*
Y101300D01*
X71900Y110100D02*
X72000Y110000D01*
Y91733D02*
Y110000D01*
X82000Y120867D02*
X82100Y120767D01*
Y110900D02*
Y120767D01*
X110700Y152600D02*
X110872D01*
X114061Y149411D01*
X238496Y179037D02*
X242355Y182895D01*
Y183255D01*
X238496Y178579D02*
Y179037D01*
X112119Y148019D02*
X112670D01*
X110400Y146300D02*
X112119Y148019D01*
X120529Y156371D02*
X121021D01*
X112600Y162441D02*
X119629Y155411D01*
Y154979D02*
Y155411D01*
X112600Y162441D02*
Y164794D01*
X82956Y149100D02*
X83200Y149344D01*
X35300Y253100D02*
X37500Y250900D01*
X38000D01*
Y247719D02*
Y250900D01*
Y247719D02*
X39450Y246269D01*
Y241381D02*
Y246269D01*
X37019Y238950D02*
X39450Y241381D01*
X36350Y238950D02*
X37019D01*
X29450Y241381D02*
Y248950D01*
X203100Y198200D02*
X203200Y198300D01*
X203100Y184800D02*
Y198200D01*
X200800Y183700D02*
Y200300D01*
X25300Y253100D02*
X29450Y248950D01*
X32800Y203300D02*
Y204038D01*
X27100Y197800D02*
Y199159D01*
X198850Y182450D02*
X204816Y176484D01*
X198850Y182450D02*
Y205850D01*
X199300Y206300D01*
X200800Y200300D02*
X201000Y200500D01*
X197150Y182350D02*
Y207390D01*
Y182350D02*
X203545Y175955D01*
X197150Y207390D02*
X197500Y207740D01*
X11069Y233000D02*
X19450Y241381D01*
X11069Y209569D02*
Y233000D01*
X15300Y251400D02*
Y253100D01*
Y251400D02*
X19450Y247250D01*
Y241381D02*
Y247250D01*
X9700Y208200D02*
X11069Y209569D01*
X8950Y236750D02*
X15300Y243100D01*
X9450Y239477D02*
Y248950D01*
X6800Y236827D02*
X9450Y239477D01*
X8950Y215809D02*
Y236750D01*
X7550Y206750D02*
X10500Y203800D01*
X7550Y206750D02*
Y209090D01*
X6350Y202450D02*
Y209588D01*
Y202450D02*
X6500Y202300D01*
Y209738D02*
Y213960D01*
X6350Y209588D02*
X6500Y209738D01*
X7900Y209440D02*
Y214759D01*
X7550Y209090D02*
X7900Y209440D01*
Y214759D02*
X8950Y215809D01*
X4650D02*
Y238300D01*
X6500Y240150D01*
X6800Y216700D02*
Y236827D01*
X5300Y253100D02*
X9450Y248950D01*
X6500Y240150D02*
Y241900D01*
X4650Y215809D02*
X6500Y213960D01*
X97884Y213984D02*
X97900Y213968D01*
Y213800D02*
Y213968D01*
X97650Y213750D02*
X97884Y213984D01*
X99000Y211859D02*
X100050Y212910D01*
X99000Y209500D02*
Y211859D01*
X111800Y211900D02*
Y212600D01*
X114500Y207600D02*
X114600Y207500D01*
X111800Y211900D02*
X112200Y211500D01*
X190500Y177838D02*
Y188700D01*
X188900Y177741D02*
X198345Y168295D01*
X186100Y172359D02*
Y184300D01*
X184600Y172162D02*
X194650Y162112D01*
X213168Y179131D02*
Y204768D01*
X5300Y243100D02*
X6500Y241900D01*
X302500Y216340D02*
X304850Y213990D01*
X301500Y214300D02*
X303650Y212150D01*
X301500Y203300D02*
X301850Y202950D01*
X299350Y201991D02*
X300650Y200691D01*
X302500Y216340D02*
Y222300D01*
X282895Y141855D02*
X283494D01*
X279253Y138213D02*
X282895Y141855D01*
X269395Y155355D02*
X270494D01*
X268390Y154350D02*
X269395Y155355D01*
X267161Y154350D02*
X268390D01*
X264943Y152132D02*
X267161Y154350D01*
X265114Y160654D02*
X265994D01*
X260767Y156308D02*
X265114Y160654D01*
X269892Y154155D02*
X270991D01*
X266478Y150740D02*
X269892Y154155D01*
X258100Y169300D02*
X270647Y181847D01*
X256150Y185097D02*
Y190485D01*
X244064Y173011D02*
X256150Y185097D01*
X254950Y186614D02*
Y189988D01*
X242739Y174403D02*
X254950Y186614D01*
X253750Y187111D02*
Y189491D01*
X245994Y179355D02*
X253750Y187111D01*
X290900Y248700D02*
X295300Y253100D01*
X299450Y247250D02*
X305300Y253100D01*
X299450Y241381D02*
Y247250D01*
X278863Y138213D02*
X279253D01*
X252416Y164659D02*
X255700Y167944D01*
X267727Y149348D02*
X267881D01*
X266335Y150740D02*
X266478D01*
X285300Y251400D02*
Y253100D01*
Y251400D02*
X289450Y247250D01*
X275300Y253100D02*
X281100Y247300D01*
X245600Y219240D02*
Y220400D01*
X245700Y220500D01*
X215600Y207400D02*
X216700Y206300D01*
X285500Y236600D02*
Y242900D01*
X305300Y243100D02*
X305600Y242800D01*
Y236300D02*
Y242800D01*
X295300Y236100D02*
Y243100D01*
X294800Y235600D02*
X295300Y236100D01*
X267493Y233153D02*
X269750Y235409D01*
X269447Y231393D02*
X272600Y234546D01*
Y235400D01*
X262904Y233153D02*
X267493D01*
X265653Y234353D02*
X267600Y236300D01*
X272904Y233153D02*
X275353D01*
X269447Y227207D02*
Y231393D01*
X270647Y230896D02*
X272904Y233153D01*
X270647Y227704D02*
Y230896D01*
X275353Y233153D02*
X276900Y234700D01*
X261200Y219300D02*
Y220000D01*
Y219300D02*
X262500Y218000D01*
X239447Y232847D02*
X240000Y233400D01*
X242250Y238850D02*
X242400Y239000D01*
X242250Y232499D02*
Y238850D01*
X240647Y230896D02*
X242250Y232499D01*
X269750Y237550D02*
X275300Y243100D01*
X269750Y235409D02*
Y237550D01*
X262159Y154916D02*
Y155123D01*
X251024Y166051D02*
X254500Y169527D01*
X285300Y243100D02*
X285500Y242900D01*
X215300Y251400D02*
Y253100D01*
X211150Y247250D02*
X215300Y251400D01*
X211150Y238150D02*
Y247250D01*
X210300Y237300D02*
X211150Y238150D01*
X200400Y248200D02*
X205300Y253100D01*
X200400Y239500D02*
Y248200D01*
X205100Y235600D02*
Y242900D01*
X189450Y247250D02*
X195300Y253100D01*
X244895Y179355D02*
X245994D01*
X241335Y175795D02*
X244895Y179355D01*
X257350Y219150D02*
X258100Y219900D01*
X181150Y248950D02*
X185300Y253100D01*
X181150Y239477D02*
Y248950D01*
X210950Y214250D02*
X211300Y214600D01*
X210950Y213591D02*
X213250Y211291D01*
X210950Y213591D02*
Y214250D01*
X215300Y243100D02*
X216300Y242100D01*
X205100Y242900D02*
X205300Y243100D01*
X242672Y174403D02*
X242739D01*
X241280Y175795D02*
X241335D01*
X122353Y219853D02*
Y240178D01*
X121150Y241381D02*
X122353Y240178D01*
X115300Y253100D02*
X121150Y247250D01*
Y241381D02*
Y247250D01*
X121500Y219000D02*
X122353Y219853D01*
X123850Y220110D02*
Y241650D01*
X125300Y243100D01*
X126000Y221000D02*
Y221351D01*
X123850Y220110D02*
X124647Y219312D01*
X129450Y233799D02*
Y248950D01*
Y233799D02*
X132353Y230896D01*
Y227704D02*
Y230896D01*
X126000Y221351D02*
X132353Y227704D01*
X125300Y253100D02*
X129450Y248950D01*
X112300Y231943D02*
Y236100D01*
X112247Y231890D02*
X112300Y231943D01*
X112247Y226710D02*
Y231890D01*
Y226710D02*
X112300Y226657D01*
Y211600D02*
Y226657D01*
X114647Y232593D02*
Y242447D01*
X113447Y231393D02*
X114647Y232593D01*
X113447Y227207D02*
Y231393D01*
Y227207D02*
X114647Y226007D01*
Y207747D02*
Y226007D01*
X124647Y205547D02*
Y219312D01*
X114647Y242447D02*
X115300Y243100D01*
X95300Y250873D02*
X99450Y246723D01*
X100650Y248450D02*
X105300Y253100D01*
X97650Y213750D02*
Y216990D01*
X112200Y211500D02*
X112300Y211600D01*
X105300Y243100D02*
X112300Y236100D01*
X215600Y207400D02*
Y208800D01*
X123900Y204800D02*
X124647Y205547D01*
X213168Y179131D02*
X215112Y177187D01*
X207500Y174478D02*
Y180400D01*
X203100Y184800D02*
X207500Y180400D01*
X206208Y172986D02*
Y178292D01*
X200800Y183700D02*
X206208Y178292D01*
X114500Y207600D02*
X114647Y207747D01*
X211100Y178415D02*
X213720Y175795D01*
X204816Y171594D02*
Y176484D01*
X209900Y176831D02*
X212328Y174403D01*
X208700Y176054D02*
X209000Y175754D01*
X207500Y174478D02*
X209544Y172434D01*
X206208Y172986D02*
X208152Y171042D01*
X204816Y171594D02*
X206760Y169650D01*
X95300Y250873D02*
Y253100D01*
X209000Y174947D02*
X210936Y173011D01*
X209000Y174947D02*
Y175754D01*
X209544Y171619D02*
Y172434D01*
X208152Y170227D02*
Y171042D01*
X206760Y168835D02*
Y169650D01*
X203545Y173013D02*
Y175955D01*
X203424Y172892D02*
X203545Y173013D01*
X203424Y170202D02*
Y172892D01*
Y170202D02*
X205368Y168259D01*
Y167443D02*
Y168259D01*
X198345Y166195D02*
Y168295D01*
X190500Y177838D02*
X199546Y168792D01*
Y167698D02*
Y168792D01*
Y167698D02*
X202584Y164660D01*
X186100Y172359D02*
X197976Y160484D01*
X198345Y166195D02*
X201192Y163348D01*
Y163268D02*
Y163348D01*
X197976Y160484D02*
X198408D01*
X194650Y161458D02*
Y162112D01*
Y161458D02*
X197017Y159092D01*
X191449Y153311D02*
X195209Y149550D01*
X191449Y153311D02*
Y153524D01*
X195423Y149550D02*
X197300Y147673D01*
X195209Y149550D02*
X195423D01*
X135219Y125470D02*
Y125781D01*
X131100Y129900D02*
X135219Y125781D01*
X127981Y125470D02*
X129000Y124451D01*
Y123200D02*
Y124451D01*
X190057Y152132D02*
X190309D01*
X193100Y146300D02*
Y146305D01*
X188665Y150740D02*
X193100Y146305D01*
X123900Y167100D02*
X124211D01*
X127981Y163330D01*
X175409Y151450D02*
X176819D01*
X183097Y145172D01*
X188000Y131700D02*
Y137742D01*
X184992Y140750D02*
X188000Y137742D01*
X184735Y140750D02*
X184992D01*
X123805Y129645D02*
X127660Y133500D01*
X127800D01*
X181705Y143780D02*
X184735Y140750D01*
X119629Y133829D02*
X123800Y138000D01*
X180313Y142388D02*
X184101Y138600D01*
X149138Y149411D02*
Y149439D01*
X181134Y136000D02*
X181400D01*
X177529Y139604D02*
X181134Y136000D01*
X112670Y140781D02*
X116089Y144200D01*
X117700D01*
X123805Y159155D02*
X123945D01*
X81100Y49500D02*
Y52944D01*
X81000Y49400D02*
X81100Y49500D01*
X75100Y49900D02*
Y52944D01*
X74800Y49600D02*
X75100Y49900D01*
X74800Y49500D02*
Y49600D01*
X69100Y49900D02*
Y52944D01*
X68900Y49700D02*
X69100Y49900D01*
X63100Y49600D02*
Y52944D01*
X63000Y49500D02*
X63100Y49600D01*
X57100D02*
Y52944D01*
X57000Y49500D02*
X57100Y49600D01*
X51100Y49800D02*
Y52944D01*
X50800Y49500D02*
X51100Y49800D01*
X45100Y49600D02*
Y52944D01*
X39100Y49800D02*
Y52944D01*
X39000Y49700D02*
X39100Y49800D01*
X10000Y9800D02*
X33900Y33700D01*
X38800Y58156D02*
X39100Y58456D01*
X42527Y48796D02*
X43900Y47423D01*
X42527Y48796D02*
Y55883D01*
X43900Y33700D02*
Y47423D01*
X20000Y9800D02*
X43900Y33700D01*
X42527Y55883D02*
X45100Y58456D01*
X30000Y9800D02*
X46100Y25900D01*
Y47423D01*
X48527Y49850D01*
Y55883D01*
X51100Y58456D01*
X54527Y55883D02*
X57100Y58456D01*
X40000Y9800D02*
X54527Y24327D01*
Y55883D01*
X63100Y58456D02*
X65673Y55883D01*
X65200Y44427D02*
X65673Y44900D01*
X50000Y9800D02*
X65200Y25000D01*
Y44427D01*
X81000Y49400D02*
Y50100D01*
X75100Y58456D02*
X78150Y55406D01*
X60000Y9800D02*
X73900Y23700D01*
Y47423D01*
X70000Y9800D02*
X76100Y15900D01*
Y47859D02*
X78150Y49909D01*
X80000Y9800D02*
X84800Y14600D01*
X81100Y58456D02*
X84800Y54756D01*
X289500Y21056D02*
Y25600D01*
X291200Y27300D01*
X289500Y15544D02*
X292544D01*
X292900Y15900D01*
X291200Y9500D02*
X296800D01*
X296900Y9600D01*
X319100Y9500D02*
X325200D01*
X319000Y9400D02*
X319100Y9500D01*
X237000Y88300D02*
X241095Y84205D01*
X241280D01*
X247800Y235100D02*
X248353Y234547D01*
X240647Y227704D02*
Y230896D01*
X238957Y193297D02*
Y197786D01*
X216300Y223200D02*
Y242100D01*
X215450Y182416D02*
X217896Y179971D01*
X215450Y182416D02*
Y205790D01*
X222071Y184147D02*
X224015Y182203D01*
X222623Y179250D02*
Y180811D01*
X220679Y182755D02*
X222623Y180811D01*
X224015Y178945D02*
Y182203D01*
X228720Y190821D02*
Y197786D01*
X227500Y189600D02*
X228720Y190821D01*
X228091Y187450D02*
X228391D01*
X229650Y188709D01*
Y190053D01*
X230850Y188212D02*
Y189556D01*
X232050Y187715D02*
Y189059D01*
X233250Y187218D02*
Y187591D01*
X238957Y193297D01*
X229593Y183561D02*
X233250Y187218D01*
X232050Y189059D02*
X236398Y193406D01*
X230850Y189556D02*
X233839Y192544D01*
X229650Y190053D02*
X231279Y191683D01*
Y197786D01*
X233839Y192544D02*
Y197786D01*
X236398Y193406D02*
Y197786D01*
X227450Y186609D02*
Y186809D01*
X228091Y187450D01*
X225200Y187400D02*
Y196824D01*
X226161Y197786D01*
X225993Y185152D02*
X227450Y186609D01*
X227193Y184555D02*
X230850Y188212D01*
X228393Y184058D02*
X232050Y187715D01*
X223602Y190302D02*
Y197786D01*
X223000Y189700D02*
X223602Y190302D01*
X216504Y81421D02*
X216512D01*
X218484Y189116D02*
Y197786D01*
Y189116D02*
X218800Y188800D01*
X216650Y189691D02*
X216700Y189741D01*
Y206300D01*
X216650Y184815D02*
Y189691D01*
Y184815D02*
X219288Y182178D01*
X232377Y180811D02*
X234320Y182755D01*
X233768Y179335D02*
X235713Y181279D01*
X225993Y178548D02*
Y185152D01*
X221750Y178376D02*
X222623Y179250D01*
X222950Y177879D02*
X224015Y178945D01*
X233768Y177858D02*
Y179335D01*
X232377Y177553D02*
Y180811D01*
X224150Y175250D02*
X225200Y176300D01*
X230950Y177282D02*
Y178682D01*
X229593Y180039D02*
X230950Y178682D01*
X229593Y180039D02*
Y183561D01*
X229750Y176785D02*
Y178185D01*
X228393Y179542D02*
X229750Y178185D01*
X228393Y179542D02*
Y184058D01*
X228550Y176288D02*
Y177688D01*
X227193Y179045D02*
X228550Y177688D01*
X227193Y179045D02*
Y184555D01*
X227350Y175791D02*
Y177191D01*
X225993Y178548D02*
X227350Y177191D01*
X216800Y165200D02*
Y169400D01*
Y165200D02*
X217300Y164700D01*
X215900Y223200D02*
X216300D01*
X218484Y221014D02*
Y223284D01*
X224500Y229300D01*
X226100Y216500D02*
X226161Y216561D01*
X248353Y225979D02*
Y234547D01*
X247850Y195391D02*
X253750Y189491D01*
X249050Y195888D02*
X254950Y189988D01*
X244500Y227900D02*
Y229300D01*
X247585Y225050D02*
X253500Y219135D01*
X259500Y216900D02*
X260200D01*
X248353Y225979D02*
X254700Y219632D01*
X254500Y229300D02*
X255900Y227900D01*
X254700Y216541D02*
Y219632D01*
X257350Y217285D02*
Y219150D01*
Y217285D02*
X258050Y216585D01*
X252900Y215300D02*
X253500Y215900D01*
X255900Y217038D02*
Y227900D01*
X254700Y216541D02*
X255050Y216191D01*
Y213700D02*
Y216191D01*
X253500Y215900D02*
Y219135D01*
X255900Y217038D02*
X256500Y216438D01*
X246848Y170227D02*
X259850Y183229D01*
X245456Y171619D02*
X258650Y184813D01*
X254350Y192285D02*
X256150Y190485D01*
X213168Y204768D02*
X213300Y204900D01*
X213250Y207991D02*
Y211291D01*
Y207991D02*
X215450Y205790D01*
X228720Y221014D02*
X228800Y220935D01*
X231279Y221014D02*
X231300Y220994D01*
Y216500D02*
Y220994D01*
X269447Y227207D02*
X271200Y225454D01*
X270647Y227704D02*
X272400Y225951D01*
X229882Y229300D02*
X234500D01*
X223602Y221014D02*
Y223021D01*
X229882Y229300D01*
X225800Y216500D02*
X226100D01*
X227950Y212650D02*
X228800Y211800D01*
X227950Y220085D02*
X228800Y220935D01*
X227950Y212650D02*
Y220085D01*
X256500Y211200D02*
Y216438D01*
X270000Y214500D02*
Y223800D01*
X272400Y216838D02*
Y225951D01*
X271200Y216340D02*
Y225454D01*
X259850Y183229D02*
Y216550D01*
X258650Y184813D02*
Y212090D01*
X258050Y212690D02*
X258650Y212090D01*
X258050Y212690D02*
Y216585D01*
X254350Y213000D02*
X255050Y213700D01*
X254350Y192285D02*
Y213000D01*
X237104Y180404D02*
X243900Y187200D01*
X247088Y223850D02*
X249050Y221888D01*
X246590Y222650D02*
X247850Y221391D01*
X249050Y195888D02*
Y221888D01*
X247850Y195391D02*
Y221391D01*
X233500Y208700D02*
X233839Y209039D01*
X271847Y172993D02*
Y207012D01*
X271050Y207809D02*
X271847Y207012D01*
X270647Y181847D02*
Y206515D01*
X269850Y207312D02*
X270647Y206515D01*
X269850Y207312D02*
Y211310D01*
X271050Y207809D02*
Y210812D01*
X272150Y213610D02*
Y215390D01*
X273350Y213112D02*
Y215888D01*
X269850Y211310D02*
X272150Y213610D01*
X271200Y216340D02*
X272150Y215390D01*
X271050Y210812D02*
X273350Y213112D01*
X272400Y216838D02*
X273350Y215888D01*
X273200Y208700D02*
X274550Y210050D01*
X274500Y229300D02*
X274550Y229250D01*
Y210050D02*
Y229250D01*
X233839Y209039D02*
Y221014D01*
X236398Y206002D02*
Y221014D01*
Y206002D02*
X236400Y206000D01*
X238957Y203957D02*
Y221014D01*
X238600Y203600D02*
X238957Y203957D01*
X248240Y168835D02*
X262500Y183095D01*
Y218000D01*
X254500Y169527D02*
Y170791D01*
X255700Y167944D02*
Y170294D01*
X254500Y170791D02*
X264800Y181091D01*
X255700Y170294D02*
X266000Y180594D01*
X256900Y169797D02*
X267850Y180747D01*
X180313Y117477D02*
Y117612D01*
X168839Y173073D02*
Y196686D01*
X173957Y174797D02*
Y196686D01*
X171398Y173935D02*
Y196686D01*
X200940Y110400D02*
X201900D01*
X192841Y105084D02*
X196156Y108400D01*
X197100D01*
X195625Y102301D02*
X195738D01*
X200940Y109200D02*
Y110400D01*
X136611Y161939D02*
X139600Y164927D01*
Y165200D01*
X135219Y163330D02*
Y163860D01*
X243900Y187200D02*
Y217000D01*
X246050Y186950D02*
Y218791D01*
X245600Y219240D02*
X246050Y218791D01*
X242355Y183255D02*
X246050Y186950D01*
X226161Y216561D02*
Y219914D01*
Y221014D01*
X259500Y216900D02*
X259850Y216550D01*
X143571Y133739D02*
Y133821D01*
X171200Y110061D02*
X175645Y114506D01*
X200009Y108850D02*
X200591D01*
X200940Y109200D01*
X197100Y108400D02*
X197200Y108500D01*
X111500Y101600D02*
X111900Y102000D01*
X113100Y110300D02*
X113650Y109750D01*
X113200Y92000D02*
X113650Y92450D01*
Y109750D01*
X25300Y243100D02*
X29500Y238900D01*
X29083Y241014D02*
X30700Y239397D01*
X29083Y241014D02*
Y241014D01*
X29450Y241381D01*
X31900Y239700D02*
X35300Y243100D01*
X31900Y204938D02*
Y239700D01*
Y204938D02*
X32800Y204038D01*
X33100Y209000D02*
X34950Y207150D01*
X33100Y209000D02*
Y235700D01*
X36350Y238950D01*
X30650Y204191D02*
X30700Y204241D01*
Y239397D01*
X29500Y204738D02*
Y238900D01*
X30650Y202709D02*
Y204191D01*
X28500Y203600D02*
Y203738D01*
X29500Y204738D01*
X287712Y117688D02*
X306100Y99300D01*
X295791Y73100D02*
X298791Y70100D01*
X308000D01*
X316300Y61800D01*
X306100Y79700D02*
Y99300D01*
X322500Y47656D02*
Y53447D01*
X265500Y112879D02*
Y121759D01*
X300773Y122327D02*
Y135397D01*
Y122327D02*
X301000Y122100D01*
X298800Y113300D02*
Y124326D01*
X317300Y115500D02*
X317650Y115850D01*
Y142491D01*
X312081Y132850D02*
X315000Y135769D01*
X312081Y131360D02*
Y132850D01*
X304600Y117700D02*
Y117800D01*
X305550Y118750D02*
Y124829D01*
X304600Y117800D02*
X305550Y118750D01*
Y124829D02*
X312081Y131360D01*
X297250Y160591D02*
X298500Y161841D01*
Y162200D01*
X271847Y172993D02*
X274150Y170691D01*
X276100Y199049D02*
X278353Y201302D01*
X265994Y160654D02*
X274150Y168811D01*
Y170691D01*
X262159Y155123D02*
X276100Y169064D01*
Y199049D01*
X271903Y145172D02*
X287650Y160919D01*
X273295Y143780D02*
X288850Y159335D01*
X274687Y142388D02*
X290050Y157751D01*
X277317Y127907D02*
X281698D01*
X278808Y131507D02*
X280207D01*
X290900Y227397D02*
Y248700D01*
X287500Y203600D02*
Y222300D01*
X294500Y229300D01*
X282850Y221044D02*
X289450Y227644D01*
X284050Y220547D02*
X290900Y227397D01*
X281400Y206300D02*
Y226200D01*
X279250Y205410D02*
X280647Y204012D01*
X278050Y204912D02*
Y232750D01*
X279250Y205410D02*
Y230909D01*
X284050Y208388D02*
Y220547D01*
X283550Y205410D02*
Y207190D01*
X282850Y207891D02*
X283550Y207190D01*
X282850Y207891D02*
Y221044D01*
X284750Y204912D02*
Y207688D01*
X284050Y208388D02*
X284750Y207688D01*
X270494Y155355D02*
X281100Y165961D01*
X304900Y159156D02*
X311927Y166183D01*
X170200Y143400D02*
X170500D01*
X170100Y149818D02*
X178921Y140997D01*
X169309Y141250D02*
X170316D01*
X174745Y136820D01*
X160250Y174547D02*
Y190691D01*
X162400Y175000D02*
Y189800D01*
X164550Y175150D02*
Y190691D01*
X166279Y173580D02*
Y196686D01*
X158602Y176900D02*
Y196686D01*
X157150Y175448D02*
X158602Y176900D01*
X158350Y172647D02*
X160250Y174547D01*
X160750Y171350D02*
X164550Y175150D01*
X159550Y172150D02*
X162400Y175000D01*
X146750Y61550D02*
Y95691D01*
Y61550D02*
X147200Y61100D01*
X154400Y57400D02*
X154450Y57450D01*
X257200Y56756D02*
X257600Y56356D01*
X317100Y64753D02*
X322500Y59353D01*
X326150Y109450D02*
Y124519D01*
X324900Y108200D02*
X326150Y109450D01*
X325800Y127600D02*
X327350Y126050D01*
X325800Y127600D02*
Y128000D01*
X326400Y66900D02*
X327350Y67850D01*
Y126050D01*
X322919Y127750D02*
X326150Y124519D01*
X328600Y64100D02*
Y130200D01*
X328000Y130800D02*
X328600Y130200D01*
X308850Y76950D02*
X313719D01*
X317100Y73569D01*
Y64753D02*
Y73569D01*
X306100Y79700D02*
X308850Y76950D01*
X230950Y177282D02*
X233650Y174582D01*
X229750Y176785D02*
X232450Y174085D01*
X228550Y176288D02*
X231250Y173588D01*
X227350Y175791D02*
X230050Y173091D01*
X227850Y124782D02*
X230050Y122582D01*
X229050Y125279D02*
X231250Y123079D01*
X230250Y125776D02*
X232450Y123576D01*
X231450Y126273D02*
X233650Y124073D01*
X217300Y97878D02*
Y164700D01*
X219600Y98437D02*
Y171100D01*
X226650Y124285D02*
X228850Y122085D01*
X233850Y139809D02*
X236050Y137609D01*
X233850Y139809D02*
Y141591D01*
X232650Y126770D02*
Y142088D01*
X233650Y157400D02*
Y174582D01*
X232450Y157897D02*
Y174085D01*
X231250Y158394D02*
Y173588D01*
X230050Y158891D02*
Y173091D01*
X224150Y170744D02*
Y175250D01*
X225450Y123788D02*
X227650Y121588D01*
X231450Y126273D02*
Y155200D01*
X233650Y157400D01*
X230250Y125776D02*
Y155697D01*
X232450Y157897D01*
X229050Y125279D02*
Y156194D01*
X231250Y158394D01*
X227850Y124782D02*
Y156691D01*
X230050Y158891D01*
X225450Y123788D02*
Y169444D01*
X224150Y170744D02*
X225450Y169444D01*
X226300Y173200D02*
X226650Y172850D01*
Y124285D02*
Y172850D01*
X196600Y210200D02*
X197500Y209300D01*
Y207740D02*
Y209300D01*
X191800Y203500D02*
X192650Y202650D01*
Y190850D02*
Y202650D01*
X164000Y91760D02*
X165950Y93709D01*
X163800Y97700D02*
X164155Y98055D01*
X158100Y106300D02*
X158500Y106700D01*
X158000Y106300D02*
X158400Y106700D01*
X158000Y106300D02*
X158100D01*
X165355Y101895D02*
X165950Y101300D01*
X142550Y99891D02*
Y106642D01*
X165950Y93709D02*
Y101300D01*
X156600Y98262D02*
Y102359D01*
X157250Y103009D01*
X142550Y106642D02*
X142550Y106642D01*
X149138Y149439D02*
X152300Y152600D01*
X165550Y166391D02*
X173957Y174797D01*
X164350Y166888D02*
X171398Y173935D01*
X163150Y167385D02*
X168839Y173073D01*
X161950Y169250D02*
X166279Y173580D01*
X170850Y156009D02*
Y164750D01*
Y156009D02*
X175409Y151450D01*
X168700Y154241D02*
Y161000D01*
X146355Y152195D02*
X150000Y155840D01*
X153190D02*
X154450Y154581D01*
X150000Y155840D02*
X153190D01*
X143950Y144609D02*
Y146391D01*
Y144609D02*
X145209Y143350D01*
X146991D01*
X147757Y144117D01*
X147747Y150187D02*
Y150803D01*
X143950Y146391D02*
X147747Y150187D01*
X153484Y192316D02*
Y196686D01*
Y192316D02*
X155950Y189850D01*
X182800Y199600D02*
X184600Y197800D01*
Y172162D02*
Y197800D01*
X186150Y202150D02*
X187200Y203200D01*
X186150Y184350D02*
Y202150D01*
X204500Y216100D02*
X207350Y213250D01*
X208950Y211450D02*
X209500Y212000D01*
X207350Y206712D02*
Y213250D01*
X208950Y206809D02*
Y211450D01*
X208700Y176054D02*
Y205362D01*
X207350Y206712D02*
X208700Y205362D01*
X209900Y176831D02*
Y205859D01*
X208950Y206809D02*
X209900Y205859D01*
X211100Y178415D02*
Y207700D01*
X299350Y201991D02*
Y223650D01*
X301500Y225800D01*
X129450Y129509D02*
Y131291D01*
X131317Y126183D02*
Y127643D01*
X129450Y129509D02*
X131317Y127643D01*
Y133157D02*
Y136657D01*
X129450Y131291D02*
X131317Y133157D01*
X221750Y124600D02*
X221800Y124550D01*
X222950Y125097D02*
Y177879D01*
Y125097D02*
X223000Y125047D01*
Y124541D02*
Y125047D01*
Y124541D02*
X225350Y122191D01*
X221800Y120950D02*
Y124550D01*
X221750Y124600D02*
Y178376D01*
X126600Y61142D02*
Y74400D01*
X159600Y84600D02*
X163141D01*
X166334Y87794D01*
X137171Y60856D02*
Y70471D01*
X197200Y108500D02*
Y109100D01*
X197300Y126800D02*
Y147673D01*
X196300Y122500D02*
Y124159D01*
X197600Y112627D02*
Y113400D01*
X195150Y125309D02*
Y127691D01*
X191449Y106476D02*
X197600Y112627D01*
X77000Y91733D02*
Y105600D01*
X190700Y27300D02*
X196750Y33350D01*
X235533Y27300D02*
X237650D01*
X242500Y32150D01*
X195150Y127691D02*
X195250Y127791D01*
Y147191D01*
X64050Y116550D02*
Y123909D01*
X64150Y124009D01*
Y183167D01*
X63860Y183457D02*
X64150Y183167D01*
X285049Y107351D02*
X287000Y105400D01*
Y104900D02*
Y105400D01*
X271647Y92650D02*
X282976Y81322D01*
X272144Y93850D02*
X284176Y81818D01*
X272641Y95050D02*
X285376Y82316D01*
X273138Y96250D02*
X286576Y82813D01*
X283166Y97445D02*
X287776Y92836D01*
X282976Y72824D02*
Y81322D01*
Y72824D02*
X288300Y67500D01*
X118600Y158300D02*
X120529Y156371D01*
X120900Y162060D02*
X123805Y159155D01*
X120900Y162060D02*
Y172700D01*
X118600Y158300D02*
Y171100D01*
X120900Y140000D02*
X122400Y141500D01*
X138709Y167350D02*
X139239D01*
X139500Y167611D01*
Y172800D01*
X125197Y160547D02*
X125794D01*
X131317Y136657D02*
X139000Y144341D01*
X134600Y150600D02*
X135800D01*
X135300Y156300D02*
X135500Y156500D01*
Y158044D01*
X138003Y160547D01*
X131200Y157100D02*
Y157327D01*
Y157100D02*
X131700D01*
X122400Y141500D02*
X125500D01*
X117856Y148400D02*
X120196D01*
X139000Y153192D02*
X142179Y156371D01*
X139000Y144341D02*
Y153192D01*
X129050Y149638D02*
X129344Y149344D01*
X118789Y150251D02*
X120350D01*
X121742Y151643D01*
X121742D01*
X122149Y152050D01*
X129050Y149638D02*
Y154509D01*
X129550Y155009D01*
X126589Y161939D02*
X131200Y157327D01*
X129550Y155009D02*
Y156791D01*
X125500Y141500D02*
X134600Y150600D01*
X120196Y148400D02*
X121696Y149900D01*
X123100D01*
X125794Y160547D02*
X129550Y156791D01*
X123000Y149800D02*
X123100Y149900D01*
X122149Y152050D02*
X123791D01*
X126200Y149641D01*
Y149400D02*
Y149641D01*
X294450Y154988D02*
X294850Y155388D01*
X295650Y154491D02*
X296050Y154891D01*
X297250Y158209D02*
Y160591D01*
X298500Y156106D02*
Y156959D01*
X297250Y158209D02*
X298500Y156959D01*
X300550Y144812D02*
Y154056D01*
X298500Y156106D02*
X300550Y154056D01*
X301973Y125627D02*
Y154330D01*
X301100Y155203D02*
X301973Y154330D01*
X301100Y155203D02*
Y157400D01*
X299400Y159100D02*
X301100Y157400D01*
X274687Y117612D02*
Y117883D01*
X180200Y127900D02*
Y128900D01*
X173353Y124572D02*
Y125165D01*
X179289Y131100D01*
X184800D01*
X187300Y128600D01*
X170100Y149818D02*
Y152600D01*
X170200Y143400D02*
Y144150D01*
X176137Y138213D01*
X312700Y36700D02*
Y45900D01*
X307600Y51000D02*
X312700Y45900D01*
X271600Y55365D02*
Y56356D01*
X267100Y50865D02*
X271600Y55365D01*
X267100Y50844D02*
Y50865D01*
X242500Y32150D02*
X309847D01*
X196750Y33350D02*
X309350D01*
X290702Y73300D02*
X290902Y73100D01*
X295791D01*
X290205Y72100D02*
X290405Y71900D01*
X295294D01*
X289908Y70700D02*
X294797D01*
X289708Y70900D02*
X289908Y70700D01*
X289211Y69700D02*
X289411Y69500D01*
X237104Y80029D02*
X246600Y70534D01*
Y69193D02*
Y70534D01*
Y69193D02*
X247852Y67941D01*
Y64952D02*
Y67941D01*
X246900Y64000D02*
X247852Y64952D01*
X298900Y51000D02*
X307600D01*
X287100Y50844D02*
X291700Y55444D01*
Y56356D01*
X237600Y46200D02*
Y50844D01*
Y46200D02*
X244500Y39300D01*
X247600Y46200D02*
Y50844D01*
Y46200D02*
X254500Y39300D01*
X257600Y46200D02*
Y50844D01*
Y46200D02*
X264500Y39300D01*
X267100Y46700D02*
Y50844D01*
Y46700D02*
X274500Y39300D01*
X242100Y56356D02*
X245844Y60100D01*
X249300D01*
X254400Y58656D02*
Y60000D01*
X252100Y56356D02*
X254400Y58656D01*
X264100Y58356D02*
Y60600D01*
X262100Y56356D02*
X264100Y58356D01*
X269027Y61027D02*
X269600Y61600D01*
X269027Y58283D02*
Y61027D01*
X267100Y56356D02*
X269027Y58283D01*
X277100Y56356D02*
Y59300D01*
X276600Y59800D02*
X277100Y59300D01*
X287100Y56356D02*
Y60300D01*
X290300Y63500D01*
X294273Y55627D02*
X298900Y51000D01*
X291856Y69500D02*
X294273Y67082D01*
Y55627D02*
Y67082D01*
X289411Y69500D02*
X291856D01*
X281600Y55365D02*
Y56356D01*
X277100Y50865D02*
X281600Y55365D01*
X277100Y50844D02*
Y50865D01*
Y46700D02*
Y50844D01*
Y46700D02*
X284500Y39300D01*
X287100Y46700D02*
Y50844D01*
Y46700D02*
X294500Y39300D01*
X284176Y74293D02*
X288768Y69700D01*
X285376Y74790D02*
X289265Y70900D01*
X286576Y75287D02*
X289762Y72100D01*
X287776Y75784D02*
X290260Y73300D01*
X287776Y75784D02*
Y92836D01*
X290260Y73300D02*
X290702D01*
X286576Y75287D02*
Y82813D01*
X289762Y72100D02*
X290205D01*
X285376Y74790D02*
Y82316D01*
X289265Y70900D02*
X289708D01*
X284176Y74293D02*
Y81818D01*
X288768Y69700D02*
X289211D01*
X310000Y135769D02*
Y141300D01*
X237250Y113091D02*
X237550Y112791D01*
X237250Y113091D02*
Y139450D01*
X237550Y101990D02*
Y112791D01*
X236000Y140700D02*
X237250Y139450D01*
X229950Y86012D02*
X230200Y85762D01*
X229950Y86012D02*
Y88788D01*
X278863Y121237D02*
Y121788D01*
Y121237D02*
X284700Y115400D01*
X277471Y120396D02*
X281151Y116715D01*
Y111249D02*
Y116715D01*
X139395Y129645D02*
X141339Y127701D01*
X140787Y130916D02*
X142731Y128972D01*
X142179Y132429D02*
X144123Y130485D01*
X143571Y133739D02*
X145515Y131795D01*
X144963Y135213D02*
X146907Y133269D01*
X148299Y124199D02*
Y134661D01*
X146355Y136605D02*
X148299Y134661D01*
X147747Y137997D02*
X149690Y136053D01*
X149138Y139389D02*
X151466Y137061D01*
X154800Y114600D02*
Y114800D01*
X144950Y122612D02*
X145450Y122112D01*
X158500Y106500D02*
Y106700D01*
X157250Y103009D02*
Y104709D01*
X156350Y105609D02*
X157250Y104709D01*
X148050Y100921D02*
X148550Y100421D01*
X150450Y123309D02*
Y125091D01*
X149690Y125850D02*
X150450Y125091D01*
X149690Y125850D02*
Y136053D01*
X151650Y122812D02*
Y125588D01*
X151466Y125771D02*
X151650Y125588D01*
X151466Y125771D02*
Y137061D01*
X161000Y102900D02*
Y103900D01*
X162950Y105850D01*
X156350Y105609D02*
Y107391D01*
X157609Y108650D01*
X157791D01*
X154750Y104050D02*
X155000Y103800D01*
X153100Y99500D02*
Y100962D01*
X151650Y102412D02*
X153100Y100962D01*
X149250Y101418D02*
X149750Y100918D01*
X148550Y95050D02*
Y100421D01*
X147850Y120709D02*
X150450Y123309D01*
X148300Y124000D02*
Y124200D01*
X146400Y99200D02*
X146850Y99650D01*
X146150Y123109D02*
X146650Y122609D01*
X149750Y96890D02*
Y100918D01*
X149050Y120212D02*
X151650Y122812D01*
X150450Y101915D02*
X150950Y101415D01*
Y97388D02*
Y101415D01*
X150250Y119715D02*
X153400Y122865D01*
X148550Y95050D02*
X148900Y94700D01*
X149750Y96890D02*
X151050Y95591D01*
X150950Y97388D02*
X152250Y96088D01*
X138003Y128253D02*
X139950Y126306D01*
X154800Y114600D02*
X155300Y115100D01*
Y119674D01*
X158750Y103709D02*
X161750Y106709D01*
X139150Y107825D02*
Y110911D01*
X141350Y98050D02*
Y107139D01*
X141350Y107139D01*
Y108012D01*
X141350Y108012D02*
X141350Y108012D01*
X141350Y108012D02*
Y110788D01*
X142550Y106642D02*
Y108509D01*
X142550Y108509D02*
X142550Y108509D01*
X142550Y108509D02*
Y110291D01*
X146850Y99650D02*
Y110391D01*
X148050Y100921D02*
Y110888D01*
X149250Y101418D02*
Y112018D01*
X150450Y101915D02*
Y112515D01*
X151650Y102412D02*
Y113012D01*
X152850Y102909D02*
Y113509D01*
X136900Y110700D02*
X139950Y113750D01*
Y126306D01*
X139150Y110911D02*
X141339Y113100D01*
X142539Y116186D02*
X142775Y115950D01*
X141339Y113100D02*
Y127701D01*
X142539Y116186D02*
Y126770D01*
X142731Y126962D01*
Y128972D01*
X143739Y116899D02*
Y126274D01*
X144123Y126657D01*
Y130485D01*
X144950Y122612D02*
Y125788D01*
X145515Y126352D01*
Y131795D01*
X146150Y123109D02*
Y125291D01*
X146907Y126047D01*
Y133269D01*
X154750Y104050D02*
Y111709D01*
X156800Y111050D02*
X157750Y112000D01*
Y113012D01*
X158500Y106700D02*
X160550Y108750D01*
X146650Y110591D02*
X146850Y110391D01*
X147850Y111088D02*
X148050Y110888D01*
X149050Y112218D02*
X149250Y112018D01*
X150250Y112715D02*
X150450Y112515D01*
X151450Y113212D02*
X151650Y113012D01*
X152650Y113709D02*
X152850Y113509D01*
X165355Y101895D02*
Y111494D01*
X141350Y110788D02*
X143050Y112488D01*
Y115891D01*
X142991Y115950D02*
X143050Y115891D01*
X142775Y115950D02*
X142991D01*
X142550Y110291D02*
X144250Y111991D01*
Y116388D01*
X143739Y116899D02*
X144250Y116388D01*
X145450Y109400D02*
Y122112D01*
X146650Y110591D02*
Y122609D01*
X147850Y111088D02*
Y120709D01*
X149050Y112218D02*
Y120212D01*
X150250Y112715D02*
Y119715D01*
X151450Y113212D02*
Y119218D01*
X152650Y113709D02*
Y118721D01*
X154750Y111709D02*
X156950Y113909D01*
Y119627D01*
X157750Y113012D02*
X158150Y113412D01*
Y119130D01*
X157791Y108650D02*
X159350Y110209D01*
Y118633D01*
X160550Y108750D02*
Y118136D01*
X161750Y106709D02*
Y117639D01*
X162950Y105850D02*
Y117142D01*
X164150Y111001D02*
Y116645D01*
X165350Y111498D02*
Y116148D01*
X15400Y73805D02*
X16700Y75106D01*
X17572Y68300D02*
X19829D01*
X15400Y70472D02*
Y73805D01*
Y70472D02*
X17572Y68300D01*
X324700Y165244D02*
X325756D01*
X328200Y162800D01*
X165350Y111498D02*
X165355Y111494D01*
X164155Y98055D02*
Y110997D01*
X164150Y111001D02*
X164155Y110997D01*
X158750Y100650D02*
Y103709D01*
X149900Y59200D02*
Y89001D01*
X151050Y90151D01*
Y95591D01*
X152100Y80400D02*
X152250Y80550D01*
Y96088D01*
X152850Y102909D02*
X155350Y100409D01*
Y98709D02*
Y100409D01*
X155650Y60310D02*
X164500Y51460D01*
Y39300D02*
Y51460D01*
X150530Y140781D02*
X153400Y137911D01*
Y122865D02*
Y137911D01*
X147757Y144117D02*
X151874D01*
X167950Y142609D02*
Y153491D01*
X168700Y154241D01*
X167950Y142609D02*
X169309Y141250D01*
X154750Y122518D02*
Y141241D01*
X151874Y144117D02*
X154750Y141241D01*
X165350Y116148D02*
X166750Y117548D01*
X164150Y116645D02*
X165550Y118045D01*
X162950Y117142D02*
X164350Y118542D01*
X161750Y117639D02*
X163150Y119039D01*
X160550Y118136D02*
X161950Y119536D01*
X159350Y118633D02*
X160750Y120033D01*
X158150Y119130D02*
X159550Y120530D01*
X156950Y119627D02*
X158350Y121027D01*
X155300Y119674D02*
X157150Y121524D01*
X152650Y118721D02*
X155950Y122021D01*
X151450Y119218D02*
X154750Y122518D01*
X166750Y117548D02*
Y154867D01*
X154450Y151894D02*
Y154581D01*
X155950Y152091D02*
Y189850D01*
X157150Y152588D02*
Y175448D01*
X158350Y153085D02*
Y172647D01*
X159550Y153582D02*
Y172150D01*
X160750Y154079D02*
Y171350D01*
X161950Y154576D02*
Y169250D01*
X163150Y155073D02*
Y167385D01*
X164350Y155570D02*
Y166888D01*
X154450Y151894D02*
X155950Y150394D01*
Y122021D02*
Y150394D01*
Y152091D02*
X157150Y150891D01*
Y121524D02*
Y150891D01*
Y152588D02*
X158350Y151388D01*
Y121027D02*
Y151388D01*
Y153085D02*
X159550Y151885D01*
Y120530D02*
Y151885D01*
Y153582D02*
X160750Y152382D01*
Y120033D02*
Y152382D01*
Y154079D02*
X161950Y152879D01*
Y119536D02*
Y152879D01*
Y154576D02*
X163150Y153376D01*
Y119039D02*
Y153376D01*
Y155073D02*
X164350Y153873D01*
Y118542D02*
Y153873D01*
Y155570D02*
X165550Y154370D01*
Y118045D02*
Y154370D01*
Y156067D02*
Y166391D01*
Y156067D02*
X166750Y154867D01*
X45094Y179050D02*
X46391D01*
X244500Y227900D02*
X247350Y225050D01*
X247585D01*
X244574Y222650D02*
X246590D01*
X245071Y223850D02*
X247088D01*
X239447Y227207D02*
Y232847D01*
X241482Y225742D02*
X244574Y222650D01*
X239447Y227207D02*
X240913Y225742D01*
X241482D01*
X241410Y226942D02*
X241979D01*
X245071Y223850D01*
X154450Y57450D02*
Y97809D01*
X155850Y63000D02*
X170597D01*
X155650Y63200D02*
X155850Y63000D01*
X155650Y60310D02*
Y63200D01*
Y97312D01*
X201911Y89100D02*
X205368Y92557D01*
X230200Y81366D02*
Y85762D01*
Y81366D02*
X234320Y77245D01*
X233768Y80581D02*
Y82132D01*
Y80581D02*
X235713Y78637D01*
X276234Y125951D02*
X277484D01*
X280255Y123179D01*
X272350Y120220D02*
X274687Y117883D01*
X271150Y118365D02*
Y125605D01*
Y118365D02*
X273295Y116220D01*
X294723Y223150D02*
X298150Y226577D01*
Y240081D01*
X299350Y226080D02*
Y228250D01*
X301200Y230100D01*
X295220Y221950D02*
X299350Y226080D01*
X298150Y240081D02*
X299450Y241381D01*
X178400Y81538D02*
Y101779D01*
X187273Y110652D01*
X179600Y83400D02*
Y100800D01*
X188060Y109260D01*
X175645Y114506D02*
Y115105D01*
X176150Y115609D01*
Y116233D01*
X178921Y119004D01*
D41*
X15300Y63000D02*
X15482Y63182D01*
X19829D01*
X15500Y169500D02*
X15682Y169682D01*
X19829D01*
X53421Y78579D02*
Y84485D01*
X143500Y169300D02*
Y170100D01*
X241349Y63851D02*
X243500Y61700D01*
X241149Y63851D02*
X241349D01*
X244655Y67357D02*
Y67499D01*
X241149Y63851D02*
X244655Y67357D01*
X9071Y95429D02*
X9100Y95400D01*
X9071Y95429D02*
Y99300D01*
X41800Y73556D02*
X45400D01*
X59024Y84000D02*
X60900D01*
X58539Y84485D02*
X59024Y84000D01*
X273000Y137800D02*
Y137918D01*
X305100Y129600D02*
Y132644D01*
X310000Y156832D02*
X315000D01*
X308328Y150728D02*
X310000Y152400D01*
X306656Y149056D02*
X308328Y150728D01*
X304900Y149056D02*
X306656D01*
X310000Y152400D02*
Y156832D01*
X105644Y154156D02*
X105700Y154100D01*
X105644Y154156D02*
Y157200D01*
X143500Y169300D02*
X143544Y169256D01*
X146500D01*
X144200Y161200D02*
X146500Y163500D01*
Y163744D01*
X53421Y78579D02*
X54700Y77300D01*
X45400Y64600D02*
X48744D01*
X24200Y80900D02*
X28083D01*
X24218Y73418D02*
X24300Y73500D01*
X19929Y73418D02*
X24218D01*
X257000Y92500D02*
Y93291D01*
X253808Y96483D02*
X257000Y93291D01*
X142600Y6000D02*
X142700Y5900D01*
X142600Y6000D02*
Y9147D01*
X104400Y5900D02*
X104600Y6100D01*
Y9147D01*
X115457Y5943D02*
X115500Y5900D01*
X115457Y5943D02*
Y9147D01*
X126200Y6000D02*
X126314Y6114D01*
Y9147D01*
X137171D02*
X142600D01*
X131743D02*
X137171D01*
X126314D02*
X131743D01*
X120886D02*
X126314D01*
X115457D02*
X120886D01*
X110029D02*
X115457D01*
X104600D02*
X110029D01*
X102900Y168656D02*
Y172000D01*
X102800Y172100D02*
X102900Y172000D01*
X102800Y172100D02*
Y175544D01*
X111298Y181056D02*
X112600Y179754D01*
X102800Y181056D02*
X111298D01*
X110950Y163144D02*
X112600Y164794D01*
X102900Y163144D02*
X110950D01*
X114200Y157200D02*
X114500Y157500D01*
X111156Y157200D02*
X114200D01*
X259376Y157700D02*
X262676Y161000D01*
X246500Y164300D02*
Y164311D01*
X249632Y167443D01*
X253200Y157300D02*
X253408D01*
X256592Y160484D01*
X235900Y187118D02*
Y187200D01*
X232928Y184147D02*
X235900Y187118D01*
X192595Y160729D02*
X195625Y157700D01*
X258551Y89949D02*
Y90949D01*
X257000Y92500D02*
X258551Y90949D01*
X253808Y96483D02*
Y96733D01*
X263500Y161800D02*
X265551Y163851D01*
X263000Y161800D02*
X263500D01*
X322500Y38100D02*
Y42144D01*
X19929Y179918D02*
X26626D01*
X26700Y179844D01*
X29744D01*
X29900Y180000D01*
X79100Y167300D02*
X81701D01*
X54400Y167100D02*
Y178100D01*
X55500Y179200D01*
X195100Y96208D02*
X198408Y99516D01*
X195100Y94600D02*
Y96208D01*
X205949Y80949D02*
X207900Y82900D01*
Y83700D01*
Y83704D01*
X210936Y86740D01*
Y86989D01*
X280256Y64700D02*
X283200D01*
X283300Y64800D01*
X124700Y155300D02*
X124850Y155150D01*
Y154050D02*
X125200Y153700D01*
X124850Y154050D02*
Y155150D01*
Y155326D01*
X122413Y157763D02*
X124850Y155326D01*
X304900Y143544D02*
X306744D01*
X308000Y144800D01*
X176137Y121788D02*
X178850Y124500D01*
X180700D01*
X283449Y89951D02*
Y90351D01*
Y89951D02*
X285300Y88100D01*
X242100Y47800D02*
Y50844D01*
Y47800D02*
X242300Y47600D01*
X252100Y48000D02*
Y50844D01*
Y48000D02*
X252300Y47800D01*
X262100D02*
Y50844D01*
Y47800D02*
X262300Y47600D01*
X271600Y47800D02*
Y50844D01*
Y47800D02*
X271900Y47500D01*
X281600Y47600D02*
Y50844D01*
X291700Y47700D02*
Y50844D01*
X291600Y47600D02*
X291700Y47700D01*
X301000Y76500D02*
X303600Y73900D01*
X304400D01*
X290100Y76500D02*
X294000D01*
X24200Y80900D02*
X25300Y82000D01*
X26000D01*
X192949Y92949D02*
X194600Y94600D01*
X195100D01*
D42*
X47515Y71485D02*
Y73461D01*
Y71485D02*
X48885Y70115D01*
X50861D01*
X53421Y68221D02*
Y70115D01*
X52700Y67500D02*
X53421Y68221D01*
X52144Y67500D02*
X52700D01*
X49244Y64600D02*
X52144Y67500D01*
D43*
X269119Y112044D02*
X272163Y109000D01*
X277471Y139604D02*
X280866Y143000D01*
X273000Y137918D02*
X276079Y140996D01*
X269119Y112044D02*
X269456D01*
X278423Y114877D02*
X278900Y114400D01*
X200495Y84900D02*
X206760Y91165D01*
X196900Y84900D02*
X200495D01*
X144963Y153587D02*
X151559Y160183D01*
Y160809D01*
X151750Y161000D01*
X276079Y119004D02*
X278423Y116660D01*
Y114877D02*
Y116660D01*
X15416Y161808D02*
X17763D01*
X20458Y164503D01*
X10593Y161808D02*
X15416D01*
X8329Y164072D02*
X10593Y161808D01*
X244465Y97723D02*
X249632Y92557D01*
X244465Y97723D02*
Y100409D01*
X251550Y104558D02*
X256592Y99516D01*
X251550Y104558D02*
Y106449D01*
X184489Y146564D02*
X189702Y141351D01*
Y140781D02*
Y141351D01*
X183391Y101202D02*
X190057Y107868D01*
X183391Y94712D02*
Y101202D01*
Y94712D02*
X185551Y92551D01*
D44*
X294000Y77750D02*
D03*
Y81050D02*
D03*
X301000D02*
D03*
Y77750D02*
D03*
D45*
X8329Y57572D02*
D03*
Y79028D02*
D03*
Y185528D02*
D03*
Y164072D02*
D03*
D46*
X145300Y253100D02*
D03*
X135300D02*
D03*
X125300D02*
D03*
X115300D02*
D03*
X105300D02*
D03*
X95300D02*
D03*
X145300Y243100D02*
D03*
X135300D02*
D03*
X125300D02*
D03*
X115300D02*
D03*
X105300D02*
D03*
X235300Y253100D02*
D03*
X225300D02*
D03*
X215300D02*
D03*
X205300D02*
D03*
X195300D02*
D03*
X185300D02*
D03*
X235300Y243100D02*
D03*
X225300D02*
D03*
X215300D02*
D03*
X205300D02*
D03*
X195300D02*
D03*
X325300Y253100D02*
D03*
X315300D02*
D03*
X305300D02*
D03*
X295300D02*
D03*
X285300D02*
D03*
X275300D02*
D03*
X325300Y243100D02*
D03*
X315300D02*
D03*
X305300D02*
D03*
X295300D02*
D03*
X285300D02*
D03*
X322000Y73100D02*
D03*
Y83100D02*
D03*
Y93100D02*
D03*
Y103100D02*
D03*
Y113100D02*
D03*
Y123100D02*
D03*
X312000Y73100D02*
D03*
Y83100D02*
D03*
Y93100D02*
D03*
Y103100D02*
D03*
Y113100D02*
D03*
X322000Y180600D02*
D03*
Y190600D02*
D03*
Y200600D02*
D03*
Y210600D02*
D03*
Y220600D02*
D03*
Y230600D02*
D03*
X312000Y180600D02*
D03*
Y190600D02*
D03*
Y200600D02*
D03*
Y210600D02*
D03*
Y220600D02*
D03*
X15300Y243100D02*
D03*
X25300D02*
D03*
X35300D02*
D03*
X45300D02*
D03*
X55300D02*
D03*
X75300D02*
D03*
X65300D02*
D03*
X5300Y253100D02*
D03*
X15300D02*
D03*
X25300D02*
D03*
X35300D02*
D03*
X45300D02*
D03*
X55300D02*
D03*
X65300D02*
D03*
X75300D02*
D03*
D47*
X95300Y243100D02*
D03*
X185300D02*
D03*
X275300D02*
D03*
X5300D02*
D03*
D48*
X312000Y123100D02*
D03*
Y230600D02*
D03*
D49*
X59200Y109800D02*
D03*
X44200D02*
D03*
D50*
X17535Y103237D02*
D03*
D51*
X22000Y211410D02*
D03*
D52*
X154500Y39300D02*
D03*
X164500D02*
D03*
X208500Y229300D02*
D03*
X294500D02*
D03*
X244500Y39300D02*
D03*
X174500D02*
D03*
D53*
X118500Y229300D02*
D03*
X128500D02*
D03*
X138500D02*
D03*
X148500D02*
D03*
X158500D02*
D03*
X168500D02*
D03*
X178500D02*
D03*
X188500D02*
D03*
X198500D02*
D03*
X224500D02*
D03*
X234500D02*
D03*
X244500D02*
D03*
X254500D02*
D03*
X264500D02*
D03*
X274500D02*
D03*
X284500D02*
D03*
X294500Y39300D02*
D03*
X284500D02*
D03*
X274500D02*
D03*
X264500D02*
D03*
X254500D02*
D03*
X224500D02*
D03*
X214500D02*
D03*
X204500D02*
D03*
X194500D02*
D03*
X184500D02*
D03*
D54*
X304500Y169300D02*
D03*
Y59300D02*
D03*
X104500Y229300D02*
D03*
X99500Y39300D02*
D03*
D55*
X191126Y79919D02*
D03*
X177337Y164750D02*
D03*
X187300Y75900D02*
D03*
X196900Y84900D02*
D03*
X173000Y168200D02*
D03*
X15300Y63000D02*
D03*
X15500Y169500D02*
D03*
X292500Y175400D02*
D03*
X44300Y73556D02*
D03*
X123800Y138000D02*
D03*
X225500Y118300D02*
D03*
X235400Y111900D02*
D03*
X239400Y117500D02*
D03*
X131600Y130400D02*
D03*
X303400Y124100D02*
D03*
X209900Y67600D02*
D03*
X144600Y94100D02*
D03*
X148900Y94700D02*
D03*
X234300Y150300D02*
D03*
X184600Y153700D02*
D03*
X182500Y151000D02*
D03*
X119800Y173800D02*
D03*
X47100Y175300D02*
D03*
X80800Y179700D02*
D03*
X81100Y174144D02*
D03*
X83900Y157300D02*
D03*
X23300Y150300D02*
D03*
X9100Y95400D02*
D03*
X60900Y84000D02*
D03*
X47600Y172200D02*
D03*
X30100Y185200D02*
D03*
X29900Y180000D02*
D03*
X55500Y179200D02*
D03*
X54400Y130300D02*
D03*
X109900Y128900D02*
D03*
X119800Y113900D02*
D03*
X127800Y133500D02*
D03*
X66700Y113900D02*
D03*
X71400Y187300D02*
D03*
X61100Y188700D02*
D03*
X24600Y172700D02*
D03*
X112200Y81400D02*
D03*
X150700Y220500D02*
D03*
X118800Y221700D02*
D03*
X155700Y225800D02*
D03*
X178800Y220400D02*
D03*
X209000Y218400D02*
D03*
X199100Y219300D02*
D03*
X196600Y210200D02*
D03*
X199900Y205700D02*
D03*
X191800Y203500D02*
D03*
X190500Y200300D02*
D03*
X182800Y199600D02*
D03*
X187200Y203200D02*
D03*
X184700Y219500D02*
D03*
X185600Y225000D02*
D03*
X215900Y223200D02*
D03*
X174600Y216400D02*
D03*
X171400Y216600D02*
D03*
X175500Y226000D02*
D03*
X241600Y200200D02*
D03*
X221100Y200300D02*
D03*
X155744Y216900D02*
D03*
X204500Y216100D02*
D03*
X221000D02*
D03*
X176500Y193200D02*
D03*
X156000Y193100D02*
D03*
X151300Y189700D02*
D03*
X162400Y189800D02*
D03*
X165600Y80000D02*
D03*
X167800Y82700D02*
D03*
X159600Y84600D02*
D03*
X162800Y81700D02*
D03*
X121800Y92200D02*
D03*
X164000Y88500D02*
D03*
X208100Y97800D02*
D03*
X205400Y101300D02*
D03*
X232600Y94000D02*
D03*
X233300Y87400D02*
D03*
X259600Y115900D02*
D03*
X259000Y145100D02*
D03*
X260300Y148900D02*
D03*
X262000Y126100D02*
D03*
X276234Y125951D02*
D03*
X273000Y137800D02*
D03*
X303700Y155700D02*
D03*
X261000Y164300D02*
D03*
X237000Y88300D02*
D03*
X305100Y129600D02*
D03*
X319800Y141600D02*
D03*
X325200Y141300D02*
D03*
X276800Y109200D02*
D03*
X328200Y162800D02*
D03*
X308328Y150728D02*
D03*
X105700Y154100D02*
D03*
X99400Y54600D02*
D03*
X110000Y51800D02*
D03*
X66800Y200100D02*
D03*
X99000Y198100D02*
D03*
X91200Y90100D02*
D03*
X142800Y51900D02*
D03*
X137200Y52100D02*
D03*
X69400Y156900D02*
D03*
X47100Y157600D02*
D03*
X58100Y65700D02*
D03*
X137200Y70200D02*
D03*
X143200D02*
D03*
X125200Y72900D02*
D03*
X81100Y77700D02*
D03*
X177400Y77000D02*
D03*
X175600Y79600D02*
D03*
X55900Y87900D02*
D03*
X66200Y86800D02*
D03*
X180600Y82400D02*
D03*
X75300Y70700D02*
D03*
X63000Y70500D02*
D03*
X180100Y75300D02*
D03*
X199800Y75000D02*
D03*
X70200Y67900D02*
D03*
X65100Y65000D02*
D03*
X53600Y60900D02*
D03*
X47577Y60696D02*
D03*
X187300Y86400D02*
D03*
X39200Y61600D02*
D03*
X41800Y65100D02*
D03*
X45400Y64600D02*
D03*
X24300Y73500D02*
D03*
X68900Y49700D02*
D03*
X74800Y49600D02*
D03*
X81900Y225800D02*
D03*
X44800Y215700D02*
D03*
X54500Y200400D02*
D03*
X82700Y200000D02*
D03*
X34000Y196400D02*
D03*
X81900Y215600D02*
D03*
X72900Y215400D02*
D03*
X53800Y215800D02*
D03*
X60800Y218000D02*
D03*
X295400Y199900D02*
D03*
X293900Y209800D02*
D03*
X287500Y203600D02*
D03*
X285500Y236600D02*
D03*
X280600Y235300D02*
D03*
X131743Y68743D02*
D03*
X120886Y72814D02*
D03*
X115800Y67500D02*
D03*
X104500Y65300D02*
D03*
X251000Y75500D02*
D03*
X110000Y67700D02*
D03*
X263830Y81030D02*
D03*
X250900Y80300D02*
D03*
X247800Y81300D02*
D03*
X260200Y81500D02*
D03*
X259800Y95800D02*
D03*
X257000Y92500D02*
D03*
X253900Y85300D02*
D03*
X262700Y89300D02*
D03*
X204700Y70500D02*
D03*
X254100Y79500D02*
D03*
X242500Y78300D02*
D03*
X250800Y86200D02*
D03*
X274500Y9200D02*
D03*
X241500Y15500D02*
D03*
X252500Y9400D02*
D03*
X229600Y9200D02*
D03*
X204800Y15400D02*
D03*
X207500Y9000D02*
D03*
X184700Y9200D02*
D03*
X162700Y9700D02*
D03*
X153100Y15700D02*
D03*
X142700Y5900D02*
D03*
X104400D02*
D03*
X115500D02*
D03*
X126200Y6000D02*
D03*
X128800Y35600D02*
D03*
X124000Y40000D02*
D03*
X123200Y35600D02*
D03*
X123900Y31800D02*
D03*
X142500Y18200D02*
D03*
X137400Y18600D02*
D03*
X131600Y18500D02*
D03*
X131700Y52000D02*
D03*
X126400Y18400D02*
D03*
X126700Y52300D02*
D03*
X120700Y18200D02*
D03*
X120500Y52100D02*
D03*
X115700Y51800D02*
D03*
X115200Y18400D02*
D03*
X110200D02*
D03*
X104700Y18200D02*
D03*
X104800Y51500D02*
D03*
X211300Y104500D02*
D03*
X39000Y136200D02*
D03*
X80700Y149000D02*
D03*
X89800Y151200D02*
D03*
X72100Y126200D02*
D03*
X77000D02*
D03*
X95100Y98600D02*
D03*
X16700Y108100D02*
D03*
X17100Y114800D02*
D03*
X16900Y122900D02*
D03*
X16300Y130800D02*
D03*
X27400Y150400D02*
D03*
X30500Y151600D02*
D03*
X115600Y125500D02*
D03*
Y128600D02*
D03*
X46100Y149200D02*
D03*
X65400Y101800D02*
D03*
X52100Y109100D02*
D03*
X57200Y93200D02*
D03*
X71900Y110100D02*
D03*
X82100Y110900D02*
D03*
X110700Y152600D02*
D03*
X114500Y157500D02*
D03*
X102900Y172000D02*
D03*
X203200Y198300D02*
D03*
X32800Y203300D02*
D03*
X27100Y197800D02*
D03*
X114600Y207500D02*
D03*
X111800Y212600D02*
D03*
X201000Y200500D02*
D03*
X9700Y208200D02*
D03*
X99000Y209500D02*
D03*
X97900Y213800D02*
D03*
X6800Y216700D02*
D03*
X6500Y202300D02*
D03*
X10500Y203800D02*
D03*
X123900Y204800D02*
D03*
X28500Y203600D02*
D03*
X301500Y203300D02*
D03*
X302500Y222300D02*
D03*
X301500Y214300D02*
D03*
X281000Y143000D02*
D03*
X272000Y169800D02*
D03*
X301500Y225800D02*
D03*
X296000Y219800D02*
D03*
X263000Y161800D02*
D03*
X268700Y173100D02*
D03*
X301200Y230100D02*
D03*
X276900Y234700D02*
D03*
X245700Y220500D02*
D03*
X305600Y236300D02*
D03*
X294800Y235600D02*
D03*
X272600Y235400D02*
D03*
X267500Y156500D02*
D03*
X261200Y220000D02*
D03*
X247800Y235100D02*
D03*
X240000Y233400D02*
D03*
X242400Y239000D02*
D03*
X246500Y164300D02*
D03*
X253200Y157300D02*
D03*
X210300Y237300D02*
D03*
X267600Y236300D02*
D03*
X205100Y235600D02*
D03*
X200400Y239500D02*
D03*
X261100Y239400D02*
D03*
X243000Y180500D02*
D03*
X251600Y188600D02*
D03*
X211300Y214600D02*
D03*
X258100Y219900D02*
D03*
X126000Y221000D02*
D03*
X121500Y219000D02*
D03*
X95500Y216100D02*
D03*
X201000Y170500D02*
D03*
X192100Y161600D02*
D03*
X196500Y165000D02*
D03*
X196100Y151700D02*
D03*
X129000Y123200D02*
D03*
X110400Y146300D02*
D03*
X193100D02*
D03*
X123900Y167100D02*
D03*
X168900Y166700D02*
D03*
X188000Y132600D02*
D03*
X184101Y138600D02*
D03*
X133500Y135800D02*
D03*
X181400Y136000D02*
D03*
X188700Y158200D02*
D03*
X275000Y80500D02*
D03*
X280000Y100500D02*
D03*
X256500Y69500D02*
D03*
X183900Y169000D02*
D03*
X189300Y174300D02*
D03*
X275900Y164700D02*
D03*
X270100Y89300D02*
D03*
X269400Y82300D02*
D03*
X63000Y49500D02*
D03*
X57000D02*
D03*
X50800D02*
D03*
X45100Y49600D02*
D03*
X39000Y49700D02*
D03*
X81000Y50100D02*
D03*
X9600Y36700D02*
D03*
X19800D02*
D03*
X29700Y36900D02*
D03*
X39600Y36700D02*
D03*
X50200D02*
D03*
X60000Y36900D02*
D03*
X70000Y36600D02*
D03*
X79900Y36700D02*
D03*
X56100Y125300D02*
D03*
X273000Y109000D02*
D03*
X292900Y15900D02*
D03*
X296900Y9600D02*
D03*
X319000Y9400D02*
D03*
X235900Y187200D02*
D03*
X219000Y72500D02*
D03*
X227500Y189600D02*
D03*
X225200Y187400D02*
D03*
X223000Y189700D02*
D03*
X218800Y188800D02*
D03*
X219600Y171100D02*
D03*
X226300Y173200D02*
D03*
X225200Y176300D02*
D03*
X219600Y175400D02*
D03*
X260200Y216900D02*
D03*
X256500Y211200D02*
D03*
X252900Y215300D02*
D03*
X213300Y204900D02*
D03*
X215600Y208800D02*
D03*
X209500Y212000D02*
D03*
X211100Y207700D02*
D03*
X231300Y216500D02*
D03*
X270000Y214500D02*
D03*
X228800Y211800D02*
D03*
X225800Y216500D02*
D03*
X233500Y208700D02*
D03*
X273200D02*
D03*
X236400Y206000D02*
D03*
X238600Y203600D02*
D03*
X271600Y75856D02*
D03*
X268500Y67500D02*
D03*
X201900Y110400D02*
D03*
X243900Y217000D02*
D03*
X111500Y101600D02*
D03*
X113200Y92000D02*
D03*
X52200Y179700D02*
D03*
X38900Y219900D02*
D03*
X298800Y113300D02*
D03*
X301000Y122100D02*
D03*
X317300Y115500D02*
D03*
X298500Y162200D02*
D03*
X281400Y206300D02*
D03*
X176300Y153600D02*
D03*
X170500Y143400D02*
D03*
X209000Y49100D02*
D03*
X203900Y61800D02*
D03*
X324900Y108200D02*
D03*
X158800Y100600D02*
D03*
X163800Y97700D02*
D03*
X144700Y109400D02*
D03*
X146100Y145500D02*
D03*
X152300Y152600D02*
D03*
X168700Y161000D02*
D03*
X212900Y62400D02*
D03*
X277900Y69900D02*
D03*
X183400Y90400D02*
D03*
X200900Y106700D02*
D03*
X197300Y126800D02*
D03*
X196300Y122500D02*
D03*
X197600Y113400D02*
D03*
X197200Y109100D02*
D03*
X201200Y89400D02*
D03*
X195100Y94600D02*
D03*
X197800Y92800D02*
D03*
X207900Y83700D02*
D03*
X212200Y79900D02*
D03*
X191265Y98664D02*
D03*
X92000Y177900D02*
D03*
X216800Y169400D02*
D03*
X214000Y165900D02*
D03*
X62000Y124900D02*
D03*
X287000Y104900D02*
D03*
X142900Y164600D02*
D03*
X144200Y161200D02*
D03*
X139500Y172800D02*
D03*
X143500Y170100D02*
D03*
X139600Y165200D02*
D03*
X117700Y144200D02*
D03*
X135300Y156300D02*
D03*
X135800Y150600D02*
D03*
X131700Y157100D02*
D03*
X129344Y149344D02*
D03*
X125200Y153700D02*
D03*
X126200Y149400D02*
D03*
X123000Y149800D02*
D03*
X299400Y159100D02*
D03*
X288700Y151300D02*
D03*
X297800Y153600D02*
D03*
X308000Y144800D02*
D03*
X180700Y124500D02*
D03*
X174000Y116500D02*
D03*
X285300Y88100D02*
D03*
X170100Y152600D02*
D03*
X281600Y47600D02*
D03*
X283300Y64800D02*
D03*
X249787Y69046D02*
D03*
X246900Y64000D02*
D03*
X290300Y63500D02*
D03*
X269600Y61600D02*
D03*
X243500Y61700D02*
D03*
X249300Y60100D02*
D03*
X291600Y47600D02*
D03*
X242300D02*
D03*
X276600Y59800D02*
D03*
X252300Y47800D02*
D03*
X262300Y47600D02*
D03*
X271900Y47500D02*
D03*
X304400Y73900D02*
D03*
X290100Y76500D02*
D03*
X310000Y141300D02*
D03*
X236000Y140700D02*
D03*
X278900Y114400D02*
D03*
X156900Y110800D02*
D03*
X158500Y106500D02*
D03*
X155000Y103800D02*
D03*
X153100Y99500D02*
D03*
X146400Y99200D02*
D03*
X161000Y102900D02*
D03*
X168600Y113800D02*
D03*
X148300Y124200D02*
D03*
X154800Y114800D02*
D03*
X240592Y223592D02*
D03*
X26000Y82000D02*
D03*
D56*
X54400Y167100D02*
D03*
X79100Y167300D02*
D03*
X136700Y81800D02*
D03*
X132000Y121200D02*
D03*
X293300Y94300D02*
D03*
X282900Y94600D02*
D03*
X187300Y128600D02*
D03*
X254400Y60000D02*
D03*
X264100Y60600D02*
D03*
X322500Y38100D02*
D03*
X267700Y119000D02*
D03*
X304600Y117700D02*
D03*
X284700Y115400D02*
D03*
X147200Y61100D02*
D03*
X149900Y59200D02*
D03*
X154400Y57400D02*
D03*
X326400Y66900D02*
D03*
X328600Y64100D02*
D03*
X325800Y128000D02*
D03*
X328000Y130800D02*
D03*
X221800Y120950D02*
D03*
X152100Y80400D02*
D03*
X76900Y105600D02*
D03*
X180200Y128900D02*
D03*
X288300Y67500D02*
D03*
X136900Y110700D02*
D03*
X139150Y107825D02*
D03*
X124004Y187240D02*
D03*
X194488Y182000D02*
D03*
X151750Y161000D02*
D03*
X244465Y100409D02*
D03*
X251550Y106449D02*
D03*
X189702Y140781D02*
D03*
D57*
X51800Y80200D02*
D03*
X57062Y79662D02*
D03*
Y74938D02*
D03*
X52338D02*
D03*
M02*
