M48
;Layer_Color=9474304
;FILE_FORMAT=2:5
INCH,LZ
;TYPE=PLATED
T1F00S00C0.01200
T2F00S00C0.01299
T3F00S00C0.01500
T4F00S00C0.03500
T5F00S00C0.03600
T6F00S00C0.03937
T7F00S00C0.04200
T8F00S00C0.04724
;TYPE=NON_PLATED
T9F00S00C0.03800
T10F00S00C0.12600
%
T01
X00096Y00367
X00198
X00297Y00369
X00396Y00367
X00502
X006Y00369
X007Y00366
X00799Y00367
X0081Y00501
X00748Y00496
X00689Y00497
X0063Y00495
X0057
X00508
X00451Y00496
X0039Y00497
X00392Y00616
X00418Y00651
X00454Y00646
X0047577Y0060696
X00536Y00609
X00581Y00657
X00651Y0065
X0063Y00705
X00702Y00679
X00753Y00707
X00811Y00777
X00912Y00901
X00951Y00986
X01132Y0092
X01218Y00922
X0120886Y0072814
X01252Y00729
X0131743Y0068743
X01372Y00702
X01432
X01472Y00611
X01499Y00592
X01544Y00574
X01428Y00519
X01372Y00521
X01317Y0052
X01267Y00523
X01205Y00521
X01157Y00518
X011
X01048Y00515
X00994Y00546
X01045Y00653
X011Y00677
X01158Y00675
X01122Y00814
X01367Y00818
X01521Y00804
X01489Y00947
X01446Y00941
X01464Y00992
X01531Y00995
Y00157
X01425Y00182
X01374Y00186
X01316Y00185
X01264Y00184
X01207Y00182
X01152Y00184
X01102
X01047Y00182
X01044Y00059
X01155
X01262Y0006
X01427Y00059
X01288Y00356
X01232
X01239Y00318
X0124Y004
X00662Y00868
X00609Y0084
X00559Y00879
X00572Y00932
X00443Y0073556
X00243Y00735
X0026Y0082
X00153Y0063
X00091Y00954
X01588Y01006
X01638Y00977
X0164Y00885
X01628Y00817
X01656Y008
X01678Y00827
X01596Y00846
X01756Y00796
X01774Y0077
X01801Y00753
X01806Y00824
X01873Y00864
X01834Y00904
X01951Y00946
X01978Y00928
X02012Y00894
X01969Y00849
X0191126Y0079919
X01873Y00759
X01998Y0075
X02047Y00705
X02099Y00676
X02129Y00624
X02039Y00618
X0209Y00491
X0219Y00725
X02122Y00799
X02079Y00837
X02081Y00978
X0191265Y0098664
X02326Y0094
X02333Y00874
X0237Y00883
X02425Y00783
X02478Y00813
X02509Y00803
X02541Y00795
X02539Y00853
X02508Y00862
X0251Y00755
X0249787Y0069046
X02565Y00695
X02544Y006
X02493Y00601
X02469Y0064
X02435Y00617
X02423Y00476
X02523Y00478
X02623Y00476
X02719Y00475
X02816Y00476
X02916
X02903Y00635
X02883Y00675
X02833Y00648
X02779Y00699
X02766Y00598
X02696Y00616
X02641Y00606
X02685Y00675
X02716Y0075856
X0275Y00805
X02694Y00823
X026383Y008103
X02602Y00815
X02627Y00893
X02701
X0257Y00925
X02598Y00958
X02829Y00946
X028Y01005
X02853Y00881
X02933Y00943
X02901Y00765
X03044Y00739
X02929Y00159
X02969Y00096
X02745Y00092
X02525Y00094
X02415Y00155
X02296Y00092
X02075Y0009
X02048Y00154
X01847Y00092
X01627Y00097
X0319Y00094
X03225Y00381
X03286Y00641
X03264Y00669
X03249Y01082
X03173Y01155
X03258Y0128
X0328Y01308
X03252Y01413
X03198Y01416
X03282Y01628
X02985Y01622
X02994Y01591
X02978Y01536
X03037Y01557
X0308328Y0150728
X0308Y01448
X031Y01413
X03051Y01296
X03034Y01241
X0301Y01221
X03046Y01177
X02988Y01133
X02847Y01154
X02789Y01144
X02768Y01092
X0273Y0109
X02677Y0119
X02596Y01159
X0262Y01261
X0276234Y0125951
X0273Y01378
X0281Y0143
X02887Y01513
X02759Y01647
X0272Y01698
X02687Y01731
X0261Y01643
X0263Y01618
X02675Y01565
X02603Y01489
X0259Y01451
X02532Y01573
X02465Y01643
X0243Y01805
X02359Y01872
X02275Y01896
X02252Y01874
X0223Y01897
X02188Y01888
X02211Y02003
X02133Y02049
X02111Y02077
X02156Y02088
X02095Y0212
X02113Y02146
X0209Y02184
X02045Y02161
X01991Y02193
X01966Y02102
X01999Y02057
X0201Y02005
X02032Y01983
X01905Y02003
X01918Y02035
X01872Y02032
X01828Y01996
X01765Y01932
X01624Y01898
X0156Y01931
X0155744Y02169
X01557Y02258
X01755Y0226
X01788Y02204
X01847Y02195
X01856Y0225
X01746Y02164
X01714Y02166
X0173Y01682
X01689Y01667
X01687Y0161
X01701Y01526
X01763Y01536
X01846Y01537
X01825Y0151
X01887Y01582
X01921Y01616
X01965Y0165
X0201Y01705
X01893Y01743
X01839Y0169
X0177337Y016475
X01705Y01434
X01814Y0136
X0184101Y01386
X0188Y01326
X01873Y01286
X01802Y01289
X01807Y01245
X0174Y01165
X01686Y01138
X01569Y01108
X01585Y01065
X0161Y01029
X01972Y01091
X01976Y01134
X02019Y01104
X02009Y01067
X02054Y01013
X02113Y01045
X02218Y012095
X02255Y01183
X02394Y01175
X02354Y01119
X0236Y01407
X02343Y01503
X02263Y01732
X02252Y01763
X02196Y01754
Y01711
X02168Y01694
X0214Y01659
X01961Y01517
X01931Y01463
X01973Y01268
X01963Y01225
X0287Y01049
X02925Y01754
X02954Y01999
X03015Y02033
Y02143
X03025Y02223
X03015Y02258
X03012Y02301
X03056Y02363
X02948Y02356
X02855Y02366
X02806Y02353
X02769Y02347
X02726Y02354
X02676Y02363
X02611Y02394
X02478Y02351
X02424Y0239
X024Y02334
X0240592Y0223592
X02457Y02205
X02439Y0217
X02529Y02153
X02565Y02112
X02602Y02169
X02612Y022
X02581Y02199
X027Y02145
X02732Y02087
X02814Y02063
X02875Y02036
X02939Y02098
X0296Y02198
X02313Y02165
X02258
X0221Y02161
X02288Y02118
X02335Y02087
X02364Y0206
X02386Y02036
X02416Y02002
X02516Y01886
X02159Y02232
X02103Y02373
X02051Y02356
X02004Y02395
X01507Y02205
X0126Y0221
X01215Y0219
X01188Y02217
X01118Y02126
X01146Y02075
X01239Y02048
X0124004Y018724
X01198Y01738
X01239Y01671
X01252Y01537
X01262Y01494
X0129344Y0149344
X0123Y01498
X01177Y01442
X01104Y01463
X01107Y01526
X01057Y01541
X01145Y01575
X01317Y01571
X01353Y01563
X01358Y01506
X01461Y01455
X01523Y01526
X01442Y01612
X01429Y01646
X01396Y01652
X01395Y01728
X01435Y01701
X01513Y01897
X0099Y01981
Y02095
X00979Y02138
X00955Y02161
X00819Y02156
X00729Y02154
X00608Y0218
X00538Y02158
X00448Y02157
X00389Y02199
X00328Y02033
X00285Y02036
X00271Y01978
X0034Y01964
X00301Y01852
X00299Y018
X00246Y01727
X00155Y01695
X00233Y01503
X00274Y01504
X00305Y01516
X00461Y01492
X00471Y01576
X00476Y01722
X00471Y01753
X00522Y01797
X00555Y01792
X00544Y01671
X00791Y01673
X00811Y0174144
X00808Y01797
X0092Y01779
X01029Y0172
X00839Y01573
X00807Y0149
X00898Y01512
X00694Y01569
X00714Y01873
X00611Y01887
X00668Y02001
X00545Y02004
X00827Y02
X00819Y02258
X00068Y02167
X00097Y02082
X00105Y02038
X00065Y02023
X00163Y01308
X00169Y01229
X00171Y01148
X00167Y01081
X00521Y01091
X00667Y01139
X00719Y01101
X00769Y01056
X00821Y01109
X0077Y01262
X00721
X0062Y01249
X00561Y01253
X00544Y01303
X0039Y01362
X00654Y01018
X01115Y01016
X01198Y01139
X01156Y01255
Y01286
X01099Y01289
X01278Y01335
X01316Y01304
X01335Y01358
X01238Y0138
X0129Y01232
X0132Y01212
X01369Y01107
X013915Y0107825
X01447Y01094
X01548Y01148
X0155Y01038
X01483Y01242
T02
X0052338Y0074938
X0057062
Y0079662
X00518Y00802
T03
X0244465Y0100409
X025155Y0106449
X0189702Y0140781
X0194488Y0182
X015175Y0161
T04
X0020458Y0058003
Y0078597
Y0164503
Y0185097
T05
X01545Y00393
X01645
X01745
X01845
X01945
X02045
X02145
X02245
X02445
X02545
X02645
X02745
X02845
X02945
Y02293
X02845
X02745
X02645
X02545
X02445
X02345
X02245
X02085
X01985
X01885
X01785
X01685
X01585
X01485
X01385
X01285
X01185
T06
X0017535Y0103237
Y0142607
T07
X0312Y00731
X0322
Y00831
Y00931
X0312
Y00831
Y01031
X0322
Y01131
Y01231
X0312
Y01131
Y01806
X0322
Y01906
Y02006
Y02106
Y02206
Y02306
X0312
Y02206
Y02106
Y02006
Y01906
X03153Y02431
Y02531
X03253
Y02431
X03053
Y02531
X02953
X02853
X02753
Y02431
X02853
X02953
X02353
Y02531
X02253
X02153
X02053
X01953
X01853
Y02431
X01953
X02053
X02153
X02253
X01453
Y02531
X01353
X01253
X01153
X01053
X00953
Y02431
X01053
X01153
X01253
X01353
X00753
X00653
X00553
X00453
X00353
X00253
X00153
X00053
Y02531
X00153
X00253
X00353
X00453
X00553
X00653
X00753
T08
X0008329Y0057572
Y0079028
Y0164072
Y0185528
X0022Y021141
Y022519
T09
X00442Y01098
X00592
T10
X00995Y00393
X03045Y00593
Y01693
X01045Y02293
M30
